<?xml version="1.0" encoding="UTF-8" standalone="no"?>
<!-- Created with Inkscape (http://www.inkscape.org/) -->

<svg
   xmlns:dc="http://purl.org/dc/elements/1.1/"
   xmlns:cc="http://creativecommons.org/ns#"
   xmlns:rdf="http://www.w3.org/1999/02/22-rdf-syntax-ns#"
   xmlns:svg="http://www.w3.org/2000/svg"
   xmlns="http://www.w3.org/2000/svg"
   xmlns:sodipodi="http://sodipodi.sourceforge.net/DTD/sodipodi-0.dtd"
   xmlns:inkscape="http://www.inkscape.org/namespaces/inkscape"
   width="270"
   height="70"
   id="svg2"
   sodipodi:version="0.32"
   inkscape:version="0.47 r22583"
   version="1.0"
   sodipodi:docname="3d_glasses_red_cyan.svg">
  <defs
     id="defs4">
    <inkscape:perspective
       sodipodi:type="inkscape:persp3d"
       inkscape:vp_x="0 : 35 : 1"
       inkscape:vp_y="0 : 1000 : 0"
       inkscape:vp_z="270 : 35 : 1"
       inkscape:persp3d-origin="135 : 23.333333 : 1"
       id="perspective2847" />
  </defs>
  <sodipodi:namedview
     id="base"
     pagecolor="#ffffff"
     bordercolor="#666666"
     borderopacity="1.0"
     inkscape:pageopacity="0.0"
     inkscape:pageshadow="2"
     inkscape:zoom="2.9012204"
     inkscape:cx="77.7012"
     inkscape:cy="31.247748"
     inkscape:document-units="px"
     inkscape:current-layer="layer1"
     showgrid="true"
     inkscape:grid-points="true"
     gridtolerance="3px"
     inkscape:window-width="958"
     inkscape:window-height="1179"
     inkscape:window-x="0"
     inkscape:window-y="19"
     inkscape:window-maximized="0">
    <inkscape:grid
       id="GridFromPre046Settings"
       type="xygrid"
       originx="0px"
       originy="0px"
       spacingx="5px"
       spacingy="5px"
       color="#0000ff"
       empcolor="#0000ff"
       opacity="0.2"
       empopacity="0.4"
       empspacing="5" />
  </sodipodi:namedview>
  <metadata
     id="metadata7">
    <rdf:RDF>
      <cc:Work
         rdf:about="">
        <dc:format>image/svg+xml</dc:format>
        <dc:type
           rdf:resource="http://purl.org/dc/dcmitype/StillImage" />
      </cc:Work>
    </rdf:RDF>
  </metadata>
  <g
     inkscape:label="Ebene 1"
     inkscape:groupmode="layer"
     id="layer1">
    <path
       style="fill:#ffffff;fill-opacity:1;fill-rule:evenodd;stroke:#000000;stroke-width:1px;stroke-linecap:butt;stroke-linejoin:miter;stroke-opacity:1"
       d="M 34.5,5.5 C 34.5,20.49999 34.5,45.49999 34.5,55.49999 C 34.5,65.49999 44.5,65.49999 54.5,65.49999 C 64.5,65.49999 114.5,65.49999 114.5,65.49999 C 114.5,65.49999 124.5,65.49999 124.5,55.49999 C 124.5,55.49999 124.5,45.49999 134.5,45.49999 C 144.5,45.49999 144.5,55.49999 144.5,55.49999 C 144.5,65.49999 154.5,65.49999 154.5,65.49999 C 154.5,65.49999 204.5,65.5 214.5,65.49999 C 219.5,65.49999 234.5,65.49999 234.5,55.49999 C 234.5,45.98028 234.5,20.49999 234.5,5.5 C 224.5,5.5 44.5,5.5 34.5,5.5 z "
       id="path1307"
       sodipodi:nodetypes="ccsccscccscc" />
    <path
       style="fill:#ff0000;fill-opacity:1;fill-rule:evenodd;stroke:#000000;stroke-width:1px;stroke-linecap:butt;stroke-linejoin:miter;stroke-opacity:1"
       d="M 54.5,15.49999 C 44.5,35.49999 54.5,55.49999 54.5,55.49999 C 54.5,55.49999 104.5,55.49999 114.5,55.49999 C 124.5,35.49999 114.5,15.49999 114.5,15.49999 C 114.5,15.49999 74.5,15.49999 54.5,15.49999 z "
       id="path1309"
       sodipodi:nodetypes="ccccc" />
    <path
       sodipodi:nodetypes="ccccc"
       id="path1311"
       d="M 214.5,15.49999 C 224.5,35.49999 214.5,55.49999 214.5,55.49999 C 214.5,55.49999 165,55.99999 155,55.99999 C 144.5,35.49999 154.5,15.49999 154.5,15.49999 C 154.5,15.49999 194.5,15.49999 214.5,15.49999 z "
       style="fill:#0000ff;fill-opacity:1;fill-rule:evenodd;stroke:#000000;stroke-width:1px;stroke-linecap:butt;stroke-linejoin:miter;stroke-opacity:1" />
    <path
       style="fill:#ffffff;fill-opacity:1;fill-rule:evenodd;stroke:#000000;stroke-width:1px;stroke-linecap:butt;stroke-linejoin:miter;stroke-opacity:1"
       d="M 34.5,5.5 C 34.5,5.5 14.5,15.49999 4.5,25.49999 C 4.5,35.5 4.5,45.49999 4.5,55.49999 C 4.5,65.49999 14.5,65.49999 14.5,65.49999 C 14.5,65.49999 14.5,52.24896 14.5,45.49999 C 24.5,45.49999 34.5,55.49999 34.5,55.49999"
       id="path4807"
       sodipodi:nodetypes="cccccc" />
    <path
       sodipodi:nodetypes="cccccc"
       id="path4809"
       d="M 234.5,5 C 234.5,5 254.5,14.99999 264.5,24.99999 C 264.5,35 264.5,44.99999 264.5,54.99999 C 264.5,64.99999 254.5,64.99999 254.5,64.99999 C 254.5,64.99999 254.5,51.74896 254.5,44.99999 C 244.5,44.99999 234.5,54.99999 234.5,54.99999"
       style="fill:#ffffff;fill-opacity:1;fill-rule:evenodd;stroke:#000000;stroke-width:1px;stroke-linecap:butt;stroke-linejoin:miter;stroke-opacity:1" />
  </g>
</svg>
