<?xml version="1.0" encoding="UTF-8" standalone="no"?>
<svg
   width="2830.8899"
   height="986.79022"
   viewBox="0 0 2830.8899 986.79022"
   version="1.1"
   xml:space="preserve"
   style="clip-rule:evenodd;fill-rule:evenodd;stroke-linejoin:round;stroke-miterlimit:2"
   id="svg35"
   sodipodi:docname="Logo.svg"
   inkscape:version="1.3 (0e150ed, 2023-07-21)"
   xmlns:inkscape="http://www.inkscape.org/namespaces/inkscape"
   xmlns:sodipodi="http://sodipodi.sourceforge.net/DTD/sodipodi-0.dtd"
   xmlns:xlink="http://www.w3.org/1999/xlink"
   xmlns="http://www.w3.org/2000/svg"
   xmlns:svg="http://www.w3.org/2000/svg"><defs
     id="defs35"><linearGradient
       id="linearGradient51"
       inkscape:collect="always"><stop
         style="stop-color:#000000;stop-opacity:1;"
         offset="0"
         id="stop51" /><stop
         style="stop-color:#000000;stop-opacity:1;"
         offset="0.247851"
         id="stop53" /><stop
         style="stop-color:#00ffff;stop-opacity:1;"
         offset="0.52796561"
         id="stop54" /><stop
         style="stop-color:#ff00ff;stop-opacity:1;"
         offset="0.52999997"
         id="stop55" /><stop
         style="stop-color:#000000;stop-opacity:1;"
         offset="0.75035816"
         id="stop56" /><stop
         style="stop-color:#000000;stop-opacity:1;"
         offset="1"
         id="stop52" /></linearGradient><filter
       style="color-interpolation-filters:sRGB"
       inkscape:label="Drop Shadow"
       id="filter47"
       x="-0.027945194"
       y="-0.077385212"
       width="1.0707686"
       height="1.1959709"
       inkscape:menu="Shadows and Glows"
       inkscape:menu-tooltip="Cut out, add inner shadow and colorize some parts of an image"><feFlood
         result="flood"
         in="SourceGraphic"
         flood-opacity="1.000000"
         flood-color="rgb(0,255,255)"
         id="feFlood46" /><feGaussianBlur
         result="blur"
         in="SourceGraphic"
         stdDeviation="0.000000"
         id="feGaussianBlur46" /><feOffset
         result="offset"
         in="blur"
         dx="20.000000"
         dy="20.000000"
         id="feOffset46" /><feComposite
         result="comp1"
         operator="in"
         in="flood"
         in2="offset"
         id="feComposite46" /><feComposite
         result="fbSourceGraphic"
         operator="over"
         in="SourceGraphic"
         in2="comp1"
         id="feComposite47" /><feColorMatrix
         result="fbSourceGraphicAlpha"
         in="fbSourceGraphic"
         values="0 0 0 -1 0 0 0 0 -1 0 0 0 0 -1 0 0 0 0 1 0"
         id="feColorMatrix66" /><feColorMatrix
         id="feColorMatrix67"
         values="0 0 0 0 0 0 0 0 0 0 0 0 0 0 0 0.21 0.72 0.07 0 0 "
         result="result1"
         in="fbSourceGraphic" /><feColorMatrix
         id="feColorMatrix68"
         values="1 0 0 0 0 0 1 0 0 0 0 0 1 0 0 0 0 0 2 0 "
         result="result9" /><feComposite
         id="feComposite68"
         in2="result9"
         in="fbSourceGraphic"
         operator="in"
         result="result4" /><feFlood
         id="feFlood68"
         result="result2"
         flood-color="rgb(0,0,0)" /><feComposite
         id="feComposite69"
         in2="result9"
         operator="in"
         result="result10" /><feComposite
         id="feComposite70"
         in2="result4"
         operator="atop" /><feGaussianBlur
         id="feGaussianBlur70"
         stdDeviation="3"
         result="result8" /><feOffset
         id="feOffset70"
         dx="3"
         dy="3"
         result="result3"
         in="result8" /><feFlood
         id="feFlood70"
         flood-opacity="1"
         flood-color="rgb(219,173,62)"
         result="result5" /><feMerge
         id="feMerge70"
         result="result6"><feMergeNode
           id="feMergeNode70"
           in="result5" /><feMergeNode
           id="feMergeNode71"
           in="result3" /><feMergeNode
           id="feMergeNode72"
           in="result4" /></feMerge><feComposite
         id="feComposite72"
         in2="fbSourceGraphic"
         operator="in"
         result="fbSourceGraphic" /><feColorMatrix
         result="fbSourceGraphicAlpha"
         in="fbSourceGraphic"
         values="0 0 0 -1 0 0 0 0 -1 0 0 0 0 -1 0 0 0 0 1 0"
         id="feColorMatrix84" /><feFlood
         id="feFlood84"
         result="flood"
         in="fbSourceGraphic"
         flood-opacity="1.000000"
         flood-color="rgb(255,0,255)" /><feGaussianBlur
         id="feGaussianBlur84"
         result="blur"
         in="fbSourceGraphic"
         stdDeviation="7.000000" /><feOffset
         id="feOffset84"
         result="offset"
         in="blur"
         dx="0.000000"
         dy="0.000000" /><feComposite
         id="feComposite84"
         result="comp1"
         operator="out"
         in="flood"
         in2="offset" /><feComposite
         id="feComposite85"
         result="comp2"
         operator="atop"
         in="comp1"
         in2="fbSourceGraphic" /></filter><linearGradient
       inkscape:collect="always"
       xlink:href="#linearGradient51"
       id="linearGradient52"
       x1="1366.7981"
       y1="630.44397"
       x2="1366.7981"
       y2="70.627831"
       gradientUnits="userSpaceOnUse" /><filter
       style="color-interpolation-filters:sRGB"
       inkscape:label="Drop Shadow"
       id="filter60"
       x="-0.021155326"
       y="-0.087983912"
       width="1.0423099"
       height="1.1759678"><feFlood
         result="flood"
         in="SourceGraphic"
         flood-opacity="1.000000"
         flood-color="rgb(0,255,255)"
         id="feFlood59" /><feGaussianBlur
         result="blur"
         in="SourceGraphic"
         stdDeviation="20.000000"
         id="feGaussianBlur59" /><feOffset
         result="offset"
         in="blur"
         dx="0.000000"
         dy="0.000000"
         id="feOffset59" /><feComposite
         result="comp1"
         operator="in"
         in="flood"
         in2="offset"
         id="feComposite59" /><feComposite
         result="comp2"
         operator="over"
         in="SourceGraphic"
         in2="comp1"
         id="feComposite60" /></filter><filter
       style="color-interpolation-filters:sRGB"
       inkscape:label="Drop Shadow"
       id="filter56"
       x="-0.06899129"
       y="-0.054158775"
       width="1.1379826"
       height="1.1083175"><feFlood
         result="flood"
         in="SourceGraphic"
         flood-opacity="1.000000"
         flood-color="rgb(255,0,255)"
         id="feFlood55" /><feGaussianBlur
         result="blur"
         in="SourceGraphic"
         stdDeviation="8.000000"
         id="feGaussianBlur55" /><feOffset
         result="offset"
         in="blur"
         dx="0.000000"
         dy="0.000000"
         id="feOffset55" /><feComposite
         result="comp1"
         operator="in"
         in="flood"
         in2="offset"
         id="feComposite55" /><feComposite
         result="comp2"
         operator="over"
         in="SourceGraphic"
         in2="comp1"
         id="feComposite56" /></filter><filter
       style="color-interpolation-filters:sRGB"
       inkscape:label="Drop Shadow"
       id="filter58"
       x="-0.083618408"
       y="-0.063817284"
       width="1.1672368"
       height="1.1276346"><feFlood
         result="flood"
         in="SourceGraphic"
         flood-opacity="1.000000"
         flood-color="rgb(255,0,255)"
         id="feFlood56" /><feGaussianBlur
         result="blur"
         in="SourceGraphic"
         stdDeviation="8.000000"
         id="feGaussianBlur56" /><feOffset
         result="offset"
         in="blur"
         dx="0.000000"
         dy="0.000000"
         id="feOffset56" /><feComposite
         result="comp1"
         operator="in"
         in="flood"
         in2="offset"
         id="feComposite57" /><feComposite
         result="comp2"
         operator="over"
         in="SourceGraphic"
         in2="comp1"
         id="feComposite58" /></filter><filter
       style="color-interpolation-filters:sRGB"
       inkscape:label="Drop Shadow"
       id="filter62"
       x="-0.072958307"
       y="-0.065149454"
       width="1.1459166"
       height="1.1302989"><feFlood
         result="flood"
         in="SourceGraphic"
         flood-opacity="1.000000"
         flood-color="rgb(255,0,255)"
         id="feFlood58" /><feGaussianBlur
         result="blur"
         in="SourceGraphic"
         stdDeviation="8.000000"
         id="feGaussianBlur58" /><feOffset
         result="offset"
         in="blur"
         dx="0.000000"
         dy="0.000000"
         id="feOffset58" /><feComposite
         result="comp1"
         operator="in"
         in="flood"
         in2="offset"
         id="feComposite61" /><feComposite
         result="comp2"
         operator="over"
         in="SourceGraphic"
         in2="comp1"
         id="feComposite62" /></filter><filter
       style="color-interpolation-filters:sRGB"
       inkscape:label="Drop Shadow"
       id="filter64"
       x="-0.088097956"
       y="-0.06834662"
       width="1.1761959"
       height="1.1366932"><feFlood
         result="flood"
         in="SourceGraphic"
         flood-opacity="1.000000"
         flood-color="rgb(255,0,255)"
         id="feFlood62" /><feGaussianBlur
         result="blur"
         in="SourceGraphic"
         stdDeviation="8.000000"
         id="feGaussianBlur62" /><feOffset
         result="offset"
         in="blur"
         dx="0.000000"
         dy="0.000000"
         id="feOffset62" /><feComposite
         result="comp1"
         operator="in"
         in="flood"
         in2="offset"
         id="feComposite63" /><feComposite
         result="comp2"
         operator="over"
         in="SourceGraphic"
         in2="comp1"
         id="feComposite64" /></filter><filter
       style="color-interpolation-filters:sRGB"
       inkscape:label="Drop Shadow"
       id="filter66"
       x="-0.20972375"
       y="-0.068332995"
       width="1.4194475"
       height="1.136666"><feFlood
         result="flood"
         in="SourceGraphic"
         flood-opacity="1.000000"
         flood-color="rgb(255,0,255)"
         id="feFlood64" /><feGaussianBlur
         result="blur"
         in="SourceGraphic"
         stdDeviation="8.000000"
         id="feGaussianBlur64" /><feOffset
         result="offset"
         in="blur"
         dx="0.000000"
         dy="0.000000"
         id="feOffset64" /><feComposite
         result="comp1"
         operator="in"
         in="flood"
         in2="offset"
         id="feComposite65" /><feComposite
         result="comp2"
         operator="over"
         in="SourceGraphic"
         in2="comp1"
         id="feComposite66" /></filter><filter
       style="color-interpolation-filters:sRGB"
       inkscape:label="Drop Shadow"
       id="filter71"
       x="-0.068422541"
       y="-0.062032535"
       width="1.1368451"
       height="1.1240651"><feFlood
         result="flood"
         in="SourceGraphic"
         flood-opacity="1.000000"
         flood-color="rgb(255,0,255)"
         id="feFlood66" /><feGaussianBlur
         result="blur"
         in="SourceGraphic"
         stdDeviation="8.000000"
         id="feGaussianBlur66" /><feOffset
         result="offset"
         in="blur"
         dx="0.000000"
         dy="0.000000"
         id="feOffset66" /><feComposite
         result="comp1"
         operator="in"
         in="flood"
         in2="offset"
         id="feComposite67" /><feComposite
         result="comp2"
         operator="over"
         in="SourceGraphic"
         in2="comp1"
         id="feComposite71" /></filter><filter
       style="color-interpolation-filters:sRGB"
       inkscape:label="Drop Shadow"
       id="filter74"
       x="-0.096110046"
       y="-0.061183186"
       width="1.1922201"
       height="1.1223664"><feFlood
         result="flood"
         in="SourceGraphic"
         flood-opacity="1.000000"
         flood-color="rgb(255,0,255)"
         id="feFlood71" /><feGaussianBlur
         result="blur"
         in="SourceGraphic"
         stdDeviation="8.000000"
         id="feGaussianBlur71" /><feOffset
         result="offset"
         in="blur"
         dx="0.000000"
         dy="0.000000"
         id="feOffset71" /><feComposite
         result="comp1"
         operator="in"
         in="flood"
         in2="offset"
         id="feComposite73" /><feComposite
         result="comp2"
         operator="over"
         in="SourceGraphic"
         in2="comp1"
         id="feComposite74" /></filter><linearGradient
       inkscape:collect="always"
       xlink:href="#linearGradient51"
       id="linearGradient1"
       gradientUnits="userSpaceOnUse"
       x1="1366.7981"
       y1="630.44397"
       x2="1366.7981"
       y2="70.627831" /><linearGradient
       inkscape:collect="always"
       xlink:href="#linearGradient51"
       id="linearGradient2"
       gradientUnits="userSpaceOnUse"
       x1="1366.7981"
       y1="630.44397"
       x2="1366.7981"
       y2="70.627831" /><linearGradient
       inkscape:collect="always"
       xlink:href="#linearGradient51"
       id="linearGradient3"
       gradientUnits="userSpaceOnUse"
       x1="1366.7981"
       y1="630.44397"
       x2="1366.7981"
       y2="70.627831" /><linearGradient
       inkscape:collect="always"
       xlink:href="#linearGradient51"
       id="linearGradient4"
       gradientUnits="userSpaceOnUse"
       x1="1366.7981"
       y1="630.44397"
       x2="1366.7981"
       y2="70.627831" /><linearGradient
       inkscape:collect="always"
       xlink:href="#linearGradient51"
       id="linearGradient5"
       gradientUnits="userSpaceOnUse"
       x1="1366.7981"
       y1="630.44397"
       x2="1366.7981"
       y2="70.627831" /><linearGradient
       inkscape:collect="always"
       xlink:href="#linearGradient51"
       id="linearGradient6"
       gradientUnits="userSpaceOnUse"
       x1="1366.7981"
       y1="630.44397"
       x2="1366.7981"
       y2="70.627831" /><linearGradient
       inkscape:collect="always"
       xlink:href="#linearGradient51"
       id="linearGradient7"
       gradientUnits="userSpaceOnUse"
       x1="1366.7981"
       y1="630.44397"
       x2="1366.7981"
       y2="70.627831" /><linearGradient
       inkscape:collect="always"
       xlink:href="#linearGradient51"
       id="linearGradient8"
       gradientUnits="userSpaceOnUse"
       x1="1366.7981"
       y1="630.44397"
       x2="1366.7981"
       y2="70.627831" /><linearGradient
       inkscape:collect="always"
       xlink:href="#linearGradient51"
       id="linearGradient9"
       gradientUnits="userSpaceOnUse"
       x1="1366.7981"
       y1="630.44397"
       x2="1366.7981"
       y2="70.627831" /><linearGradient
       inkscape:collect="always"
       xlink:href="#linearGradient51"
       id="linearGradient10"
       gradientUnits="userSpaceOnUse"
       x1="1366.7981"
       y1="630.44397"
       x2="1366.7981"
       y2="70.627831" /><linearGradient
       inkscape:collect="always"
       xlink:href="#linearGradient51"
       id="linearGradient11"
       gradientUnits="userSpaceOnUse"
       x1="1366.7981"
       y1="630.44397"
       x2="1366.7981"
       y2="70.627831" /><linearGradient
       inkscape:collect="always"
       xlink:href="#linearGradient51"
       id="linearGradient12"
       gradientUnits="userSpaceOnUse"
       x1="1366.7981"
       y1="630.44397"
       x2="1366.7981"
       y2="70.627831" /><linearGradient
       inkscape:collect="always"
       xlink:href="#linearGradient51"
       id="linearGradient13"
       gradientUnits="userSpaceOnUse"
       x1="1366.7981"
       y1="630.44397"
       x2="1366.7981"
       y2="70.627831" /><linearGradient
       inkscape:collect="always"
       xlink:href="#linearGradient51"
       id="linearGradient14"
       gradientUnits="userSpaceOnUse"
       x1="1366.7981"
       y1="630.44397"
       x2="1366.7981"
       y2="70.627831" /><linearGradient
       inkscape:collect="always"
       xlink:href="#linearGradient51"
       id="linearGradient15"
       gradientUnits="userSpaceOnUse"
       x1="1366.7981"
       y1="630.44397"
       x2="1366.7981"
       y2="70.627831" /><linearGradient
       inkscape:collect="always"
       xlink:href="#linearGradient51"
       id="linearGradient16"
       gradientUnits="userSpaceOnUse"
       x1="1366.7981"
       y1="630.44397"
       x2="1366.7981"
       y2="70.627831" /><linearGradient
       inkscape:collect="always"
       xlink:href="#linearGradient51"
       id="linearGradient17"
       gradientUnits="userSpaceOnUse"
       x1="1366.7981"
       y1="630.44397"
       x2="1366.7981"
       y2="70.627831" /><linearGradient
       inkscape:collect="always"
       xlink:href="#linearGradient51"
       id="linearGradient18"
       gradientUnits="userSpaceOnUse"
       x1="1366.7981"
       y1="630.44397"
       x2="1366.7981"
       y2="70.627831" /><linearGradient
       inkscape:collect="always"
       xlink:href="#linearGradient51"
       id="linearGradient19"
       gradientUnits="userSpaceOnUse"
       x1="1366.7981"
       y1="630.44397"
       x2="1366.7981"
       y2="70.627831" /><linearGradient
       inkscape:collect="always"
       xlink:href="#linearGradient51"
       id="linearGradient20"
       gradientUnits="userSpaceOnUse"
       x1="1366.7981"
       y1="630.44397"
       x2="1366.7981"
       y2="70.627831" /><linearGradient
       inkscape:collect="always"
       xlink:href="#linearGradient51"
       id="linearGradient21"
       gradientUnits="userSpaceOnUse"
       x1="1366.7981"
       y1="630.44397"
       x2="1366.7981"
       y2="70.627831" /></defs><sodipodi:namedview
     id="namedview35"
     pagecolor="#ffffff"
     bordercolor="#000000"
     borderopacity="0.25"
     inkscape:showpageshadow="2"
     inkscape:pageopacity="0.0"
     inkscape:pagecheckerboard="0"
     inkscape:deskcolor="#d1d1d1"
     inkscape:zoom="0.29411111"
     inkscape:cx="15.30034"
     inkscape:cy="419.90934"
     inkscape:window-width="1456"
     inkscape:window-height="854"
     inkscape:window-x="0"
     inkscape:window-y="38"
     inkscape:window-maximized="0"
     inkscape:current-layer="layer1"
     showguides="true"
     showgrid="false"><sodipodi:guide
       position="-129.95871,23.380286"
       orientation="1,0"
       id="guide56"
       inkscape:locked="false" /></sodipodi:namedview><g
     inkscape:groupmode="layer"
     id="layer1"
     inkscape:label="Vintage"
     style="fill:url(#linearGradient52);stroke:#000000;stroke-width:2;stroke-linecap:round;stroke-linejoin:round;stroke-dasharray:none;stroke-opacity:1;filter:url(#filter60)"
     transform="translate(-130.42504,-22.874999)"><path
       d="M 304.343,501.133 179.425,99.749 H 279.771 L 370.006,391.31 616.488,99.749 h 99.788 L 376.258,501.133 Z"
       style="clip-rule:evenodd;fill:url(#linearGradient1);fill-rule:nonzero;stroke:#000000;stroke-width:2;stroke-linecap:round;stroke-linejoin:round;stroke-miterlimit:2;stroke-dasharray:none;stroke-opacity:1"
       id="path1" /><path
       d="m 636.6,501.133 86.638,-323.337 h 85.294 l -86.638,323.337 z m 92.015,-343.406 23.004,-85.852 h 85.294 l -23.004,85.852 z"
       style="clip-rule:evenodd;fill:url(#linearGradient2);fill-rule:nonzero;stroke:#000000;stroke-width:2;stroke-linecap:round;stroke-linejoin:round;stroke-miterlimit:2;stroke-dasharray:none;stroke-opacity:1"
       id="path2" /><path
       d="m 741.405,501.133 86.638,-323.337 h 246.963 c 14.773,0 27.319,3.716 37.639,11.149 10.319,7.433 17.468,17.247 21.448,29.442 3.979,12.195 4.009,25.609 0.088,40.243 l -64.979,242.503 H 983.908 L 1047.692,263.09 H 890.483 L 826.7,501.133 Z"
       style="clip-rule:evenodd;fill:url(#linearGradient3);fill-rule:nonzero;stroke:#000000;stroke-width:2;stroke-linecap:round;stroke-linejoin:round;stroke-miterlimit:2;stroke-dasharray:none;stroke-opacity:1"
       id="path3" /><path
       d="m 1206.34,501.133 c -15.052,0 -27.668,-3.717 -37.848,-11.15 -10.18,-7.433 -17.353,-17.247 -21.518,-29.442 -4.166,-12.194 -4.288,-25.609 -0.367,-40.243 L 1237.278,81.91 h 85.295 l -25.693,95.886 h 119.858 l -22.855,85.294 h -119.858 l -40.929,152.749 h 119.858 l -22.854,85.294 z"
       style="clip-rule:evenodd;fill:url(#linearGradient4);fill-rule:nonzero;stroke:#000000;stroke-width:2;stroke-linecap:round;stroke-linejoin:round;stroke-miterlimit:2;stroke-dasharray:none;stroke-opacity:1"
       id="path4" /><path
       d="m 1429.89,501.133 c -14.773,0 -27.319,-3.717 -37.639,-11.15 -10.319,-7.433 -17.468,-17.247 -21.448,-29.442 -3.979,-12.194 -4.009,-25.609 -0.088,-40.243 l 33.162,-123.76 h 242.502 l 8.963,-33.448 h -242.503 l 22.855,-85.294 h 246.962 c 15.017,0 27.61,3.693 37.78,11.08 10.169,7.386 17.248,17.235 21.237,29.546 3.989,12.311 4.042,25.714 0.158,40.208 l -64.978,242.503 z m 27.314,-85.294 h 157.209 l 11.95,-44.599 h -157.209 z"
       style="clip-rule:evenodd;fill:url(#linearGradient5);fill-rule:nonzero;stroke:#000000;stroke-width:2;stroke-linecap:round;stroke-linejoin:round;stroke-miterlimit:2;stroke-dasharray:none;stroke-opacity:1"
       id="path5" /><path
       d="m 1742.99,628.795 23.003,-85.852 h 191.773 l 11.203,-41.81 H 1807.3 c -14.796,0 -27.372,-3.694 -37.727,-11.08 -10.355,-7.387 -17.582,-17.236 -21.681,-29.547 -4.1,-12.31 -4.208,-25.713 -0.324,-40.208 l 43.319,-161.668 c 3.921,-14.634 11.232,-28.048 21.933,-40.243 10.7,-12.195 23.202,-22.009 37.505,-29.442 14.302,-7.433 28.84,-11.149 43.613,-11.149 h 166.129 c 15.051,0 27.667,3.716 37.847,11.149 10.18,7.433 17.26,17.247 21.24,29.442 3.979,12.195 4.008,25.609 0.087,40.243 l -77.526,289.331 c -4.023,15.017 -11.252,28.6 -21.684,40.748 -10.433,12.148 -22.793,21.866 -37.08,29.154 -14.287,7.288 -28.863,10.932 -43.729,10.932 z m 91.067,-212.956 h 157.766 l 40.929,-152.749 h -157.766 z"
       style="clip-rule:evenodd;fill:url(#linearGradient6);fill-rule:nonzero;stroke:#000000;stroke-width:2;stroke-linecap:round;stroke-linejoin:round;stroke-miterlimit:2;stroke-dasharray:none;stroke-opacity:1"
       id="path6" /><path
       d="m 2180.81,501.133 c -14.633,0 -27.052,-3.717 -37.255,-11.15 -10.203,-7.433 -17.388,-17.247 -21.553,-29.442 -4.165,-12.194 -4.288,-25.609 -0.366,-40.243 l 43.318,-161.668 c 3.922,-14.634 11.232,-28.048 21.933,-40.243 10.701,-12.195 23.144,-22.009 37.331,-29.442 14.186,-7.433 28.596,-11.149 43.23,-11.149 h 166.128 c 15.018,0 27.611,3.693 37.78,11.08 10.169,7.386 17.248,17.235 21.237,29.546 3.989,12.311 4.042,25.714 0.158,40.208 l -33.161,123.76 h -242.503 l -8.962,33.449 h 242.502 l -22.854,85.294 z m 56.293,-193.445 h 157.209 l 11.95,-44.598 h -157.208 z"
       style="clip-rule:evenodd;fill:url(#linearGradient7);fill-rule:nonzero;stroke:#000000;stroke-width:2;stroke-linecap:round;stroke-linejoin:round;stroke-miterlimit:2;stroke-dasharray:none;stroke-opacity:1"
       id="path7" /><path
       d="M 304.343,501.133 179.425,99.749 H 279.771 L 370.006,391.31 616.488,99.749 h 99.788 L 376.258,501.133 Z"
       style="clip-rule:evenodd;fill:url(#linearGradient8);fill-rule:nonzero;stroke:#000000;stroke-width:2;stroke-linecap:round;stroke-linejoin:round;stroke-miterlimit:2;stroke-dasharray:none;stroke-opacity:1"
       id="path8" /><path
       d="m 636.6,501.133 86.638,-323.337 h 85.294 l -86.638,323.337 z m 92.015,-343.406 23.004,-85.852 h 85.294 l -23.004,85.852 z"
       style="clip-rule:evenodd;fill:url(#linearGradient9);fill-rule:nonzero;stroke:#000000;stroke-width:2;stroke-linecap:round;stroke-linejoin:round;stroke-miterlimit:2;stroke-dasharray:none;stroke-opacity:1"
       id="path9" /><path
       d="m 741.405,501.133 86.638,-323.337 h 246.963 c 14.773,0 27.319,3.716 37.639,11.149 10.319,7.433 17.468,17.247 21.448,29.442 3.979,12.195 4.009,25.609 0.088,40.243 l -64.979,242.503 H 983.908 L 1047.692,263.09 H 890.483 L 826.7,501.133 Z"
       style="clip-rule:evenodd;fill:url(#linearGradient10);fill-rule:nonzero;stroke:#000000;stroke-width:2;stroke-linecap:round;stroke-linejoin:round;stroke-miterlimit:2;stroke-dasharray:none;stroke-opacity:1"
       id="path10" /><path
       d="m 1206.34,501.133 c -15.052,0 -27.668,-3.717 -37.848,-11.15 -10.18,-7.433 -17.353,-17.247 -21.518,-29.442 -4.166,-12.194 -4.288,-25.609 -0.367,-40.243 L 1237.278,81.91 h 85.295 l -25.693,95.886 h 119.858 l -22.855,85.294 h -119.858 l -40.929,152.749 h 119.858 l -22.854,85.294 z"
       style="clip-rule:evenodd;fill:url(#linearGradient11);fill-rule:nonzero;stroke:#000000;stroke-width:2;stroke-linecap:round;stroke-linejoin:round;stroke-miterlimit:2;stroke-dasharray:none;stroke-opacity:1"
       id="path11" /><path
       d="m 1429.89,501.133 c -14.773,0 -27.319,-3.717 -37.639,-11.15 -10.319,-7.433 -17.468,-17.247 -21.448,-29.442 -3.979,-12.194 -4.009,-25.609 -0.088,-40.243 l 33.162,-123.76 h 242.502 l 8.963,-33.448 h -242.503 l 22.855,-85.294 h 246.962 c 15.017,0 27.61,3.693 37.78,11.08 10.169,7.386 17.248,17.235 21.237,29.546 3.989,12.311 4.042,25.714 0.158,40.208 l -64.978,242.503 z m 27.314,-85.294 h 157.209 l 11.95,-44.599 h -157.209 z"
       style="clip-rule:evenodd;fill:url(#linearGradient12);fill-rule:nonzero;stroke:#000000;stroke-width:2;stroke-linecap:round;stroke-linejoin:round;stroke-miterlimit:2;stroke-dasharray:none;stroke-opacity:1"
       id="path12" /><path
       d="m 1742.99,628.795 23.003,-85.852 h 191.773 l 11.203,-41.81 H 1807.3 c -14.796,0 -27.372,-3.694 -37.727,-11.08 -10.355,-7.387 -17.582,-17.236 -21.681,-29.547 -4.1,-12.31 -4.208,-25.713 -0.324,-40.208 l 43.319,-161.668 c 3.921,-14.634 11.232,-28.048 21.933,-40.243 10.7,-12.195 23.202,-22.009 37.505,-29.442 14.302,-7.433 28.84,-11.149 43.613,-11.149 h 166.129 c 15.051,0 27.667,3.716 37.847,11.149 10.18,7.433 17.26,17.247 21.24,29.442 3.979,12.195 4.008,25.609 0.087,40.243 l -77.526,289.331 c -4.023,15.017 -11.252,28.6 -21.684,40.748 -10.433,12.148 -22.793,21.866 -37.08,29.154 -14.287,7.288 -28.863,10.932 -43.729,10.932 z m 91.067,-212.956 h 157.766 l 40.929,-152.749 h -157.766 z"
       style="clip-rule:evenodd;fill:url(#linearGradient13);fill-rule:nonzero;stroke:#000000;stroke-width:2;stroke-linecap:round;stroke-linejoin:round;stroke-miterlimit:2;stroke-dasharray:none;stroke-opacity:1"
       id="path13" /><path
       d="m 2180.81,501.133 c -14.633,0 -27.052,-3.717 -37.255,-11.15 -10.203,-7.433 -17.388,-17.247 -21.553,-29.442 -4.165,-12.194 -4.288,-25.609 -0.366,-40.243 l 43.318,-161.668 c 3.922,-14.634 11.232,-28.048 21.933,-40.243 10.701,-12.195 23.144,-22.009 37.331,-29.442 14.186,-7.433 28.596,-11.149 43.23,-11.149 h 166.128 c 15.018,0 27.611,3.693 37.78,11.08 10.169,7.386 17.248,17.235 21.237,29.546 3.989,12.311 4.042,25.714 0.158,40.208 l -33.161,123.76 h -242.503 l -8.962,33.449 h 242.502 l -22.854,85.294 z m 56.293,-193.445 h 157.209 l 11.95,-44.598 h -157.208 z"
       style="clip-rule:evenodd;fill:url(#linearGradient14);fill-rule:nonzero;stroke:#000000;stroke-width:2;stroke-linecap:round;stroke-linejoin:round;stroke-miterlimit:2;stroke-dasharray:none;stroke-opacity:1"
       id="path14" /><path
       d="M 304.343,501.133 179.425,99.749 H 279.771 L 370.006,391.31 616.488,99.749 h 99.788 L 376.258,501.133 Z"
       style="clip-rule:evenodd;fill:url(#linearGradient15);fill-rule:nonzero;stroke:#000000;stroke-width:2;stroke-linecap:round;stroke-linejoin:round;stroke-miterlimit:2;stroke-dasharray:none;stroke-opacity:1"
       id="path15" /><path
       d="m 636.6,501.133 86.638,-323.337 h 85.294 l -86.638,323.337 z m 92.015,-343.406 23.004,-85.852 h 85.294 l -23.004,85.852 z"
       style="clip-rule:evenodd;fill:url(#linearGradient16);fill-rule:nonzero;stroke:#000000;stroke-width:2;stroke-linecap:round;stroke-linejoin:round;stroke-miterlimit:2;stroke-dasharray:none;stroke-opacity:1"
       id="path16" /><path
       d="m 741.405,501.133 86.638,-323.337 h 246.963 c 14.773,0 27.319,3.716 37.639,11.149 10.319,7.433 17.468,17.247 21.448,29.442 3.979,12.195 4.009,25.609 0.088,40.243 l -64.979,242.503 H 983.908 L 1047.692,263.09 H 890.483 L 826.7,501.133 Z"
       style="clip-rule:evenodd;fill:url(#linearGradient17);fill-rule:nonzero;stroke:#000000;stroke-width:2;stroke-linecap:round;stroke-linejoin:round;stroke-miterlimit:2;stroke-dasharray:none;stroke-opacity:1"
       id="path17" /><path
       d="m 1206.34,501.133 c -15.052,0 -27.668,-3.717 -37.848,-11.15 -10.18,-7.433 -17.353,-17.247 -21.518,-29.442 -4.166,-12.194 -4.288,-25.609 -0.367,-40.243 L 1237.278,81.91 h 85.295 l -25.693,95.886 h 119.858 l -22.855,85.294 h -119.858 l -40.929,152.749 h 119.858 l -22.854,85.294 z"
       style="clip-rule:evenodd;fill:url(#linearGradient18);fill-rule:nonzero;stroke:#000000;stroke-width:2;stroke-linecap:round;stroke-linejoin:round;stroke-miterlimit:2;stroke-dasharray:none;stroke-opacity:1"
       id="path18" /><path
       d="m 1429.89,501.133 c -14.773,0 -27.319,-3.717 -37.639,-11.15 -10.319,-7.433 -17.468,-17.247 -21.448,-29.442 -3.979,-12.194 -4.009,-25.609 -0.088,-40.243 l 33.162,-123.76 h 242.502 l 8.963,-33.448 h -242.503 l 22.855,-85.294 h 246.962 c 15.017,0 27.61,3.693 37.78,11.08 10.169,7.386 17.248,17.235 21.237,29.546 3.989,12.311 4.042,25.714 0.158,40.208 l -64.978,242.503 z m 27.314,-85.294 h 157.209 l 11.95,-44.599 h -157.209 z"
       style="clip-rule:evenodd;fill:url(#linearGradient19);fill-rule:nonzero;stroke:#000000;stroke-width:2;stroke-linecap:round;stroke-linejoin:round;stroke-miterlimit:2;stroke-dasharray:none;stroke-opacity:1"
       id="path19" /><path
       d="m 1742.99,628.795 23.003,-85.852 h 191.773 l 11.203,-41.81 H 1807.3 c -14.796,0 -27.372,-3.694 -37.727,-11.08 -10.355,-7.387 -17.582,-17.236 -21.681,-29.547 -4.1,-12.31 -4.208,-25.713 -0.324,-40.208 l 43.319,-161.668 c 3.921,-14.634 11.232,-28.048 21.933,-40.243 10.7,-12.195 23.202,-22.009 37.505,-29.442 14.302,-7.433 28.84,-11.149 43.613,-11.149 h 166.129 c 15.051,0 27.667,3.716 37.847,11.149 10.18,7.433 17.26,17.247 21.24,29.442 3.979,12.195 4.008,25.609 0.087,40.243 l -77.526,289.331 c -4.023,15.017 -11.252,28.6 -21.684,40.748 -10.433,12.148 -22.793,21.866 -37.08,29.154 -14.287,7.288 -28.863,10.932 -43.729,10.932 z m 91.067,-212.956 h 157.766 l 40.929,-152.749 h -157.766 z"
       style="clip-rule:evenodd;fill:url(#linearGradient20);fill-rule:nonzero;stroke:#000000;stroke-width:2;stroke-linecap:round;stroke-linejoin:round;stroke-miterlimit:2;stroke-dasharray:none;stroke-opacity:1"
       id="path20" /><path
       d="m 2180.81,501.133 c -14.633,0 -27.052,-3.717 -37.255,-11.15 -10.203,-7.433 -17.388,-17.247 -21.553,-29.442 -4.165,-12.194 -4.288,-25.609 -0.366,-40.243 l 43.318,-161.668 c 3.922,-14.634 11.232,-28.048 21.933,-40.243 10.701,-12.195 23.144,-22.009 37.331,-29.442 14.186,-7.433 28.596,-11.149 43.23,-11.149 h 166.128 c 15.018,0 27.611,3.693 37.78,11.08 10.169,7.386 17.248,17.235 21.237,29.546 3.989,12.311 4.042,25.714 0.158,40.208 l -33.161,123.76 h -242.503 l -8.962,33.449 h 242.502 l -22.854,85.294 z m 56.293,-193.445 h 157.209 l 11.95,-44.598 h -157.208 z"
       style="clip-rule:evenodd;fill:url(#linearGradient21);fill-rule:nonzero;stroke:#000000;stroke-width:2;stroke-linecap:round;stroke-linejoin:round;stroke-miterlimit:2;stroke-dasharray:none;stroke-opacity:1"
       id="path21" /></g><g
     inkscape:groupmode="layer"
     id="layer2"
     inkscape:label="Reality"
     style="display:inline;filter:url(#filter47)"
     transform="translate(-130.42504,-22.874999)"><path
       d="m 1356.97,908.079 c -1.403,0.558 -2.684,-0.292 -3.843,-2.55 -1.158,-2.258 -2.457,-4.417 -3.895,-6.476 l 4.644,-0.883 c -2.055,-6.024 -2.626,-11.82 -1.713,-17.388 0.914,-5.568 2.04,-11.03 3.38,-16.387 1.339,-5.358 2.469,-10.529 3.39,-15.516 0.921,-4.986 0.362,-9.909 -1.677,-14.77 1.418,0.605 2.469,0.041 3.151,-1.692 0.682,-1.734 1.218,-3.877 1.607,-6.429 0.39,-2.552 0.496,-5.197 0.318,-7.933 -0.177,-2.736 -0.418,-4.95 -0.723,-6.642 3.539,-9.712 6.299,-19.567 8.282,-29.566 1.983,-9.999 3.756,-19.885 5.319,-29.659 1.563,-9.773 3.341,-19.296 5.333,-28.568 1.993,-9.272 4.626,-18.155 7.898,-26.65 3.932,-1.33 8.09,-1.61 12.473,-0.84 4.383,0.771 7.294,2.186 8.732,4.245 8.631,-8.638 16.258,-18.544 22.88,-29.716 6.623,-11.173 13.318,-22.14 20.087,-32.903 6.769,-10.763 14.467,-20.609 23.095,-29.539 8.627,-8.929 19.403,-15.351 32.329,-19.265 6.82,3.66 14.488,7.524 23.006,11.591 8.518,4.067 15.506,9.809 20.965,17.228 2.271,1.026 10.937,5.648 13.208,6.674 l 0.087,6.544 c 3.99,3.032 7.356,6.839 10.097,11.421 2.741,4.581 5.205,9.507 7.391,14.778 2.186,5.27 4.302,10.627 6.349,16.069 2.048,5.443 4.371,10.395 6.969,14.858 -0.54,1.852 -0.73,3.419 -0.572,4.701 0.158,1.282 0.457,2.538 0.896,3.766 0.44,1.229 0.811,2.616 1.113,4.162 0.303,1.547 0.47,3.483 0.501,5.81 -0.921,15.629 -5.61,28.985 -14.067,40.069 -8.458,11.084 -18.768,20.77 -30.93,29.059 -12.162,8.289 -25.11,15.853 -38.843,22.691 -13.733,6.838 -26.195,13.799 -37.386,20.883 0.015,1.164 0.656,1.625 1.922,1.384 1.267,-0.24 1.63,0.565 1.091,2.417 8.512,3.631 15.111,6.605 19.796,8.921 4.686,2.317 9.084,4.178 13.193,5.584 4.11,1.406 8.637,2.368 13.581,2.886 4.944,0.518 11.791,0.966 20.542,1.344 8.751,0.378 15.598,0.753 20.54,1.126 4.942,0.373 9.388,0.548 13.337,0.526 3.95,-0.021 8.18,-0.169 12.69,-0.443 4.511,-0.274 10.571,-0.697 18.18,-1.269 3.139,2.611 5.722,5.911 7.749,9.899 2.028,3.988 3.493,8.083 4.396,12.286 0.902,4.202 1.168,8.306 0.798,12.313 -0.37,4.007 -1.524,7.361 -3.463,10.062 0.297,1.11 1.077,1.471 2.342,1.085 1.264,-0.386 2.602,-0.567 4.013,-0.544 -1.951,1.829 -3.616,3.895 -4.996,6.198 -1.38,2.304 -2.76,4.607 -4.14,6.91 -1.38,2.304 -2.973,4.502 -4.779,6.595 -1.806,2.092 -4.114,3.552 -6.924,4.377 -10.077,5.998 -23.02,8.604 -38.83,7.818 -15.809,-0.786 -36.019,-3.651 -60.63,-8.595 -12.163,-2.354 -22.068,-4.699 -29.717,-7.036 -7.648,-2.337 -14.311,-4.788 -19.987,-7.354 -5.677,-2.566 -10.935,-5.503 -15.776,-8.811 -4.84,-3.308 -10.394,-7.282 -16.662,-11.922 -0.841,0.452 -1.326,1.127 -1.455,2.026 -0.129,0.899 -0.613,1.575 -1.454,2.026 -1.252,11.901 -3.308,21.768 -6.166,29.601 -2.858,7.833 -7.051,16.065 -12.579,24.697 -4.514,-0.017 -7.533,0.994 -9.058,3.034 -1.524,2.039 -3.403,4 -5.635,5.882 -2.806,1.116 -4.918,1.445 -6.334,0.985 -1.417,-0.46 -2.694,-1.019 -3.831,-1.677 -1.138,-0.659 -2.416,-1.291 -3.834,-1.896 -1.419,-0.605 -3.674,-0.468 -6.766,0.411 -0.879,-2.457 -1.757,-4.841 -2.634,-7.153 -0.877,-2.312 -3.143,-2.974 -6.798,-1.988 0.81,-2.778 1.061,-5.086 0.755,-6.923 -0.307,-1.837 -0.752,-3.502 -1.336,-4.994 -0.584,-1.493 -1.099,-3.072 -1.544,-4.737 -0.446,-1.665 -0.262,-3.741 0.552,-6.228 z m 138.338,-226.172 c -3.585,6.221 -7.599,12.014 -12.042,17.378 -4.443,5.364 -8.813,10.86 -13.111,16.488 -4.298,5.628 -8.098,11.598 -11.4,17.912 -3.301,6.313 -5.603,13.53 -6.906,21.65 11.8,-3.7 24.137,-9.471 37.01,-17.312 12.874,-7.842 25.047,-15.331 36.519,-22.468 -1.55,-10.494 -5.323,-18.451 -11.32,-23.872 -5.997,-5.421 -12.247,-8.68 -18.75,-9.776 z"
       style="clip-rule:evenodd;fill:#ff00ff;fill-rule:nonzero;stroke-linejoin:round;stroke-miterlimit:2"
       id="path29" /><path
       d="m 1857.37,604.343 c 0.309,1.982 0.399,3.496 0.272,4.54 -0.127,1.045 -0.255,2.017 -0.384,2.916 -0.13,0.899 -0.187,1.858 -0.174,2.876 0.014,1.018 0.315,2.491 0.905,4.42 -5.778,11.012 -12.512,19.072 -20.203,24.178 -7.69,5.107 -16.028,9.316 -25.012,12.627 -8.984,3.311 -18.178,6.735 -27.582,10.272 -9.404,3.537 -18.711,9.096 -27.92,16.678 -3.678,-0.758 -6.985,-0.13 -9.92,1.886 -2.936,2.016 -7.221,3.268 -12.857,3.756 -1.666,2.066 -3.76,3.703 -6.283,4.912 -2.523,1.208 -5.045,2.489 -7.566,3.843 1.16,2.404 1.689,5.001 1.585,7.79 -0.104,2.79 0.277,4.977 1.145,6.562 9.861,-1 20.764,-3.218 32.708,-6.654 11.945,-3.437 23.684,-6.397 35.219,-8.881 0.3,1.401 0.172,2.373 -0.385,2.916 -0.557,0.543 -0.687,1.37 -0.39,2.48 1.989,1.08 3.983,2.523 5.982,4.33 1.999,1.807 3.997,3.541 5.994,5.202 1.997,1.662 4.059,2.947 6.187,3.854 2.128,0.908 4.598,0.949 7.408,0.123 1.156,2.113 1.964,4.511 2.423,7.194 0.459,2.682 0.145,5.585 -0.942,8.707 -4.46,4.055 -8.919,8.183 -13.378,12.384 -4.458,4.2 -9.132,8.077 -14.022,11.631 -4.89,3.554 -10.068,6.652 -15.534,9.295 -5.466,2.642 -11.579,4.46 -18.336,5.453 -1.407,0.267 -2.463,0.468 -3.166,0.602 -0.704,0.133 -1.624,-0.129 -2.761,-0.788 -2.232,1.882 -5.393,2.92 -9.481,3.114 -4.088,0.194 -7.248,1.232 -9.48,3.114 -3.115,-0.865 -6.852,-0.811 -11.212,0.163 -4.36,0.975 -8.237,1.201 -11.629,0.68 -4.422,6.963 -8.415,14.283 -11.981,21.959 -3.565,7.675 -6.703,15.707 -9.413,24.095 9.588,-0.365 17.546,-1.294 23.874,-2.788 6.327,-1.495 12.301,-3.14 17.919,-4.937 5.619,-1.797 11.378,-3.621 17.278,-5.471 5.9,-1.85 13.355,-3.486 22.364,-4.907 5.586,-4.269 12.241,-7.648 19.967,-10.137 7.725,-2.489 14.809,-5.511 21.25,-9.068 2.263,0.444 4.253,1.597 5.971,3.457 1.717,1.861 3.363,3.589 4.935,5.185 1.573,1.597 3.214,2.961 4.922,4.095 1.707,1.133 3.826,1.313 6.355,0.541 1.141,0.95 1.933,2.184 2.376,3.703 0.444,1.52 0.816,2.98 1.117,4.381 0.3,1.4 0.809,2.543 1.526,3.427 0.717,0.884 1.918,1.021 3.603,0.409 -4.094,10.4 -8.851,18.667 -14.27,24.799 -5.42,6.133 -11.631,11.177 -18.631,15.132 -7.001,3.955 -14.783,7.475 -23.347,10.561 -8.564,3.085 -18.038,6.635 -28.423,10.65 -2.525,1.064 -4.637,1.392 -6.335,0.986 -1.698,-0.406 -3.673,-0.396 -5.924,0.032 -6.453,2.685 -14.175,5.465 -23.165,8.34 -8.99,2.875 -18.13,5.049 -27.42,6.523 -9.291,1.475 -18.172,1.923 -26.643,1.347 -8.472,-0.577 -15.418,-3.12 -20.838,-7.63 -2.278,-1.608 -3.788,-3.727 -4.528,-6.356 -0.74,-2.629 -2.668,-4.377 -5.783,-5.243 -0.331,-3.727 -0.95,-7.838 -1.856,-12.331 -0.906,-4.493 -1.815,-9.204 -2.727,-14.133 -0.912,-4.93 -1.612,-9.826 -2.1,-14.691 -0.488,-4.864 -0.337,-9.412 0.453,-13.644 0.787,-4.523 2.493,-8.784 5.12,-12.782 2.627,-3.999 3.492,-7.953 2.593,-11.865 1.403,-0.558 2.237,-1.518 2.501,-2.881 0.264,-1.362 1.383,-2.085 3.357,-2.169 1.619,-5.556 3.382,-10.848 5.29,-15.876 1.908,-5.028 3.888,-9.924 5.941,-14.687 2.053,-4.764 4.104,-9.601 6.155,-14.51 2.051,-4.909 4.024,-10.314 5.921,-16.215 -3.99,-3.032 -6.93,-6.628 -8.819,-10.789 -1.889,-4.16 -3.286,-8.414 -4.19,-12.762 -0.904,-4.347 -1.67,-8.867 -2.296,-13.559 -0.627,-4.692 -1.677,-9.377 -3.15,-14.054 2.757,-4.897 6.157,-9.115 10.2,-12.654 4.044,-3.538 8.446,-6.635 13.207,-9.289 4.761,-2.655 9.948,-5.098 15.561,-7.332 5.613,-2.233 11.505,-4.665 17.677,-7.296 11.206,-5.92 21.228,-10.741 30.065,-14.462 8.838,-3.72 17.539,-7.051 26.105,-9.991 8.566,-2.94 17.484,-5.875 26.756,-8.803 9.271,-2.929 19.801,-6.679 31.589,-11.253 2.568,2.136 4.977,2.991 7.228,2.563 1.091,-2.832 2.417,-3.886 3.979,-3.162 1.561,0.724 2.184,-0.196 1.867,-2.76 2.88,4.409 6.523,7.872 10.93,10.387 4.406,2.516 9.298,4.429 14.676,5.74 z"
       style="clip-rule:evenodd;fill:#ff00ff;fill-rule:nonzero;stroke-linejoin:round;stroke-miterlimit:2"
       id="path30" /><path
       d="m 2073.32,772.798 c -1.623,5.265 -4.018,10.751 -7.187,16.456 -3.169,5.704 -6.908,10.935 -11.218,15.69 -4.309,4.756 -9.12,8.95 -14.432,12.584 -5.312,3.634 -10.921,6.158 -16.827,7.572 -3.67,-0.177 -6.145,-0.654 -7.425,-1.432 -1.28,-0.777 -2.629,-1.468 -4.048,-2.073 -0.852,-0.421 -3.689,-1.632 -4.256,-1.815 l -5.094,-1.219 1.613,-5.992 c 0.532,-2.434 0.367,-4.225 -0.495,-5.374 -0.861,-1.148 -2.574,-2.645 -5.138,-4.49 -0.856,-0.712 -1.711,-1.424 -2.567,-2.136 -0.856,-0.712 -1.571,-1.451 -2.146,-2.217 l -7.286,-6.925 11.357,-5.22 c 7.008,-3.373 11.687,-6.887 14.036,-10.541 2.35,-3.654 3.193,-9.208 2.53,-16.663 -5.644,-0.094 -10.36,0.657 -14.147,2.251 -3.788,1.595 -7.644,3.348 -11.568,5.261 -5.046,2.417 -10.166,4.629 -15.358,6.636 -5.193,2.008 -10.885,3.6 -17.076,4.777 -2.251,0.428 -4.363,0.756 -6.335,0.985 -1.971,0.229 -4.085,0.412 -6.34,0.549 l -4.233,-0.07 c -0.605,-3.092 -1.192,-4.803 -1.761,-5.133 -0.569,-0.329 -1.138,-0.731 -1.709,-1.206 -1.426,-1.186 -2.93,-2.869 -4.51,-5.047 -1.581,-2.178 -1.974,-5.237 -1.18,-9.179 -1.442,-2.35 -2.321,-4.807 -2.637,-7.371 -1.643,3.811 -2.861,7.687 -3.655,11.628 l -1.63,4.684 -4.21,1.675 c -0.559,0.398 -0.972,1.132 -1.24,2.204 -0.268,1.071 -0.398,1.898 -0.39,2.48 l -2.012,7.817 c -0.555,0.689 -2.781,3.007 -3.337,3.696 -0.528,2.725 -1.196,5.476 -2.006,8.254 -0.809,2.778 -1.621,5.411 -2.434,7.898 -1.357,4.048 -2.503,7.984 -3.44,11.807 -0.937,3.823 -1.241,7.452 -0.913,10.889 l -1.625,5.12 c -1.384,2.012 -2.913,3.688 -4.588,5.027 -1.675,1.339 -3.351,2.605 -5.028,3.798 -0.555,0.689 -1.322,1.345 -2.301,1.969 -0.979,0.623 -1.748,1.134 -2.307,1.532 l -1.203,5.039 -5.054,1.836 c -3.088,1.17 -5.263,2.02 -6.525,2.552 -1.263,0.532 -2.738,0.958 -4.427,1.279 l -4.227,0.366 c -3.13,-2.03 -5.55,-3.684 -7.26,-4.962 -1.71,-1.279 -3.7,-2.431 -5.971,-3.458 -2.579,-3.009 -4.021,-5.359 -4.325,-7.05 -0.305,-1.692 -0.607,-3.238 -0.908,-4.639 -0.586,-1.638 -0.957,-3.025 -1.114,-4.162 -0.156,-1.137 -0.519,-1.942 -1.09,-2.417 l -5.557,-4.192 4.591,-4.809 0.324,-7.497 c 5.431,-15.903 11.221,-31.291 17.372,-46.164 6.15,-14.873 12.507,-30.078 19.071,-45.613 2.19,-5.081 10.525,-25.327 12.715,-30.408 -0.293,-0.819 -0.447,-1.81 -0.463,-2.974 -0.015,-1.163 0.249,-2.525 0.792,-4.087 3.03,-5.532 5.504,-10.449 7.422,-14.75 1.917,-4.301 3.834,-8.674 5.75,-13.121 2.185,-5.372 4.443,-10.612 6.773,-15.72 2.33,-5.109 5.292,-10.482 8.884,-16.122 l 6.714,-4.338 c 0.84,-0.451 1.82,-1.002 2.94,-1.652 1.12,-0.65 2.384,-1.109 3.791,-1.377 l 6.343,-0.331 c 7.829,-5.278 14.653,-11.897 20.472,-19.855 5.819,-7.958 11.76,-17.324 17.824,-28.099 l 4.14,-6.91 5.534,2.447 c 1.418,0.605 3.399,1.031 5.941,1.276 2.543,0.246 5.227,0.538 8.053,0.875 5.081,0.201 9.882,0.601 14.404,1.199 4.522,0.598 8.209,2.084 11.062,4.458 1.75,4.333 2.782,7.636 3.094,9.909 0.313,2.273 0.766,4.52 1.359,6.739 0.91,4.784 1.75,9.582 2.519,14.392 0.77,4.811 1.335,10.243 1.698,16.298 1.473,4.677 2.734,9.321 3.782,13.933 1.049,4.612 2.029,9.309 2.939,14.093 1.499,6.713 2.996,13.208 4.49,19.484 1.495,6.277 3.406,12.11 5.735,17.499 2.251,-0.428 3.66,-0.55 4.227,-0.366 1.399,-0.849 2.871,-1.566 4.414,-2.151 1.544,-0.585 3.299,-1.211 5.265,-1.876 l 4.638,-1.319 1.746,4.042 c 0.301,1.401 1.728,2.588 4.28,3.56 3.662,-0.404 6.346,-0.112 8.052,0.876 1.706,0.987 3.272,2.075 4.698,3.262 1.141,0.949 2.279,1.608 3.412,1.975 l 6.367,1.414 -3.29,7.186 c -2.745,5.77 -6.688,11.55 -11.831,17.338 -5.142,5.789 -10.928,10.898 -17.358,15.327 0.304,1.692 0.538,3.324 0.7,4.897 0.162,1.573 0.536,3.178 1.122,4.816 0.91,4.784 1.681,9.74 2.313,14.869 0.633,5.128 0.704,10.509 0.215,16.142 z m -122.997,-52.287 c 8.435,-2.187 16.095,-4.299 22.98,-6.336 6.885,-2.038 14.537,-4.731 22.956,-8.081 -2.086,-8.351 -4.317,-17.039 -6.694,-26.063 -2.377,-9.025 -4.894,-17.95 -7.55,-26.776 l -2.475,4.844 c -5.547,7.178 -10.874,15.042 -15.979,23.594 -5.106,8.551 -9.443,16.52 -13.013,23.904 -1.654,2.939 -3.307,5.877 -4.961,8.816 -1.654,2.938 -3.167,5.85 -4.539,8.735 1.685,-0.611 3.301,-1.064 4.849,-1.359 1.548,-0.294 3.023,-0.72 4.426,-1.278 z"
       style="clip-rule:evenodd;fill:#ff00ff;fill-rule:nonzero;stroke-linejoin:round;stroke-miterlimit:2"
       id="path31" /><path
       d="m 2213.05,778.169 c -7.845,4.116 -16.394,8.365 -25.645,12.747 -9.252,4.383 -18.522,7.457 -27.808,9.222 -14.071,2.674 -25.235,1.152 -33.493,-4.568 -1.45,-2.932 -2.745,-4.873 -3.886,-5.822 -0.86,-1.003 -1.65,-2.092 -2.371,-3.267 -0.721,-1.175 -1.238,-2.9 -1.55,-5.173 -3.431,-3.43 -6.167,-7.648 -8.209,-12.654 -2.041,-5.006 -3.451,-10.278 -4.23,-15.816 -0.779,-5.538 -0.996,-11.256 -0.652,-17.153 0.345,-5.897 1.186,-11.597 2.524,-17.099 0.547,-1.271 0.883,-2.501 1.009,-3.691 0.125,-1.19 0.319,-2.539 0.581,-4.047 1.063,-4.867 2.2,-9.603 3.408,-14.206 1.208,-4.604 2.917,-8.719 5.126,-12.346 -1.161,-2.404 -1.2,-5.312 -0.116,-8.725 1.083,-3.414 2.31,-6.563 3.683,-9.448 3.793,-11.801 6.974,-21.809 9.545,-30.025 2.571,-8.215 5.214,-16.371 7.927,-24.468 4.61,-13.998 8.941,-27.796 12.992,-41.396 4.051,-13.599 7.666,-28.136 10.846,-43.611 2.232,-1.883 3.907,-3.221 5.025,-4.017 1.681,-0.903 3.082,-1.606 4.204,-2.111 5.1,1.655 11.044,3.076 17.83,4.265 6.787,1.188 12.432,1.355 16.935,0.499 2.27,1.026 3.692,1.849 4.264,2.469 0.573,0.621 1.144,1.168 1.715,1.643 3.146,3.192 5.87,6.538 8.174,10.036 2.304,3.499 3.076,8.528 2.317,15.087 -1.654,2.938 -2.903,4.488 -3.747,4.648 -1.33,6.085 -2.742,11.31 -4.235,15.676 -1.494,4.366 -3.058,8.745 -4.692,13.138 -1.912,4.737 -3.684,9.448 -5.314,14.131 -1.63,4.684 -2.966,10.332 -4.007,16.944 -1.106,1.669 -1.862,3.124 -2.269,4.368 -0.407,1.244 -0.882,2.646 -1.425,4.207 -0.544,1.562 -1.157,3.209 -1.839,4.942 -0.682,1.734 -1.719,3.316 -3.111,4.747 -0.743,7.722 -1.999,14.084 -3.766,19.085 -1.768,5.001 -3.605,10.016 -5.513,15.044 -3.265,9.076 -6.178,18.086 -8.74,27.028 -2.561,8.943 -4.051,18.848 -4.471,29.717 1.399,-0.849 2.732,-1.394 3.998,-1.635 1.267,-0.241 2.463,-0.468 3.589,-0.682 2.532,-0.481 5.493,-0.607 8.881,-0.376 8.381,-6.258 17.561,-10.773 27.539,-13.544 9.979,-2.772 19.891,-5.239 29.737,-7.402 3.939,-0.749 7.879,-1.497 11.819,-2.246 3.94,-0.749 7.594,-1.735 10.964,-2.959 2.552,0.973 4.18,1.465 4.886,1.477 0.705,0.012 1.762,-0.116 3.169,-0.384 1.97,-0.374 3.66,-0.55 5.071,-0.526 3.419,2.557 6.687,4.269 9.802,5.135 3.114,0.866 6.368,1.559 9.761,2.081 3.111,0.575 6.152,1.236 9.125,1.983 2.972,0.747 5.88,2.017 8.726,3.809 l 3.204,18.198 c 2.004,2.243 2.872,3.828 2.602,4.754 0.031,2.326 -0.509,4.178 -1.619,5.556 l 0.908,4.638 c -4.209,1.675 -7.08,3.241 -8.613,4.699 -1.532,1.457 -2.992,3.047 -4.38,4.769 -2.247,0.718 -3.863,1.171 -4.848,1.359 -0.985,0.187 -1.9,0.361 -2.744,0.521 -3.94,0.749 -8.714,2.385 -14.323,4.909 -7.633,-1.173 -15.53,-0.984 -23.691,0.567 -3.096,0.588 -6.33,1.349 -9.703,2.282 -3.373,0.932 -6.746,1.865 -10.12,2.798 -3.369,1.223 -6.81,2.315 -10.324,3.274 -3.514,0.96 -7.1,1.787 -10.758,2.482 z"
       style="clip-rule:evenodd;fill:#ff00ff;fill-rule:nonzero;stroke-linejoin:round;stroke-miterlimit:2"
       id="path32" /><path
       d="m 2421.23,712.795 c 1.524,8.458 1.122,15.386 -1.204,20.785 -2.327,5.399 -5.654,9.749 -9.983,13.051 -4.329,3.301 -9.306,5.632 -14.931,6.993 -5.624,1.36 -10.975,2.086 -16.052,2.176 -2.868,-3.537 -5.468,-8.146 -7.801,-13.825 -2.333,-5.68 -4.527,-11.605 -6.584,-17.775 -2.057,-6.169 -3.902,-12.306 -5.535,-18.411 -1.633,-6.104 -3.045,-11.522 -4.236,-16.252 1.361,-3.758 2.222,-7.931 2.584,-12.519 0.362,-4.588 0.583,-9.223 0.662,-13.903 0.078,-4.68 0.156,-9.433 0.233,-14.259 0.077,-4.826 0.368,-9.473 0.873,-13.943 1.807,-12.59 4.537,-24.772 8.189,-36.546 3.652,-11.774 6.525,-23.838 8.618,-36.19 0.528,-2.725 0.284,-5.157 -0.732,-7.297 -1.016,-2.139 -1.256,-4.28 -0.72,-6.423 0.266,-1.217 1.099,-2.177 2.501,-2.881 1.401,-0.704 2.232,-1.81 2.495,-3.317 0.801,-3.36 0.978,-6.018 0.528,-7.973 -0.449,-1.956 0.011,-4.522 1.379,-7.698 1.376,-2.594 3.09,-6.346 5.14,-11.255 2.051,-4.909 2.762,-9.783 2.134,-14.62 2.509,-2.227 4.874,-4.717 7.094,-7.472 2.221,-2.754 4.514,-5.304 6.881,-7.649 2.367,-2.346 5.018,-4.526 7.954,-6.542 2.935,-2.016 6.514,-3.425 10.735,-4.227 2.29,2.48 3.81,5.399 4.56,8.755 0.75,3.357 1.5,6.713 2.25,10.07 0.75,3.356 1.848,6.427 3.296,9.214 1.448,2.786 3.872,4.731 7.272,5.834 0.031,2.327 0.07,5.236 0.116,8.726 0.046,3.49 0.232,6.881 0.558,10.172 0.326,3.291 1,6.225 2.022,8.8 1.021,2.576 2.664,4.086 4.927,4.531 -4.88,14.923 -9.41,29.635 -13.59,44.133 -4.181,14.499 -7.586,28.924 -10.216,43.274 -2.631,14.35 -4.205,28.572 -4.723,42.666 -0.518,14.095 0.584,28.027 3.306,41.797 z"
       style="clip-rule:evenodd;fill:#ff00ff;fill-rule:nonzero;stroke-linejoin:round;stroke-miterlimit:2"
       id="path33" /><path
       d="m 2708,478.53 c -7.035,1.337 -14.627,3.29 -22.774,5.859 -8.148,2.569 -16.154,5.184 -24.018,7.845 -5.616,1.943 -11.024,3.699 -16.222,5.271 -5.199,1.571 -9.907,2.903 -14.124,3.996 -1.885,6.773 -3.779,12.819 -5.684,18.138 -1.904,5.319 -3.951,10.519 -6.14,15.6 -2.186,5.372 -4.159,10.777 -5.921,16.215 -1.761,5.437 -3.448,11.225 -5.059,17.363 -2.752,5.188 -5.017,9.919 -6.794,14.194 -1.777,4.274 -3.195,8.99 -4.255,14.148 -3.319,5.005 -5.791,10.067 -7.415,15.187 -1.625,5.12 -2.836,9.505 -3.634,13.156 l -1.619,5.556 c -1.665,2.066 -2.632,3.634 -2.9,4.706 -0.268,1.071 -0.959,2.15 -2.073,3.237 -0.239,3.253 -1.181,6.639 -2.827,10.159 -0.544,1.562 -0.947,3.023 -1.211,4.386 -0.264,1.362 -0.392,2.334 -0.385,2.916 0.039,2.908 -0.639,4.932 -2.035,6.072 0.301,1.401 0.321,2.928 0.061,4.581 -0.26,1.653 -0.521,3.234 -0.783,4.741 -0.798,3.651 -1.043,6.467 -0.734,8.45 0.859,1.003 1.647,1.874 2.362,2.612 0.715,0.739 1.223,1.809 1.524,3.21 1.704,0.842 2.98,1.329 3.828,1.459 1.137,0.659 2.839,1.356 5.106,2.091 l 3.857,3.641 c 1.519,8.167 0.342,15.097 -3.532,20.79 -4.148,6.329 -11.287,10.456 -21.418,12.381 l -5.066,0.963 c -1.426,-1.187 -2.286,-2.19 -2.579,-3.009 -2.263,-0.444 -4.102,-0.824 -5.516,-1.138 -1.415,-0.314 -2.697,-1.237 -3.846,-2.768 -3.682,-1.05 -6.656,-1.943 -8.923,-2.678 l -3.828,-1.459 c -0.042,-3.2 -0.065,-4.945 -0.069,-5.235 -2.005,-2.244 -3.521,-4.871 -4.549,-7.883 -1.027,-3.013 -1.843,-6.065 -2.449,-9.157 -0.597,-2.511 -1.263,-4.863 -1.998,-7.056 -0.734,-2.193 -1.676,-4.055 -2.825,-5.586 -0.787,-16.762 0.571,-31.308 4.075,-43.637 3.504,-12.329 7.154,-24.249 10.951,-35.759 2.174,-6.245 4.347,-12.562 6.519,-18.952 2.172,-6.391 4.059,-12.945 5.663,-19.665 l 3.741,-5.085 c 1.908,-5.028 3.475,-9.189 4.701,-12.484 1.225,-3.294 2.521,-6.675 3.885,-10.142 0.817,-2.196 1.565,-4.306 2.243,-6.33 0.679,-2.025 1.29,-3.817 1.833,-5.379 -1.688,0.321 -3.235,0.688 -4.64,1.101 -1.405,0.413 -7.442,2.581 -8.847,2.994 -1.405,0.413 -2.812,0.753 -4.219,1.02 -1.97,0.375 -3.379,0.497 -4.227,0.366 -3.076,2.043 -6.443,3.412 -10.102,4.107 l -4.221,0.803 c -0.844,0.16 -1.619,0.234 -2.324,0.223 -0.706,-0.012 -1.34,0.036 -1.903,0.143 -2.814,0.534 -5.06,1.399 -6.736,2.592 -3.377,0.642 -13.93,2.648 -13.93,2.648 -0.563,0.107 -3.653,1.131 -4.216,1.238 -1.97,0.375 -4.083,0.558 -6.34,0.549 -2.257,-0.008 -4.662,-0.499 -7.214,-1.471 -3.439,-4.012 -5.723,-6.056 -6.853,-6.133 l -3.868,-4.513 c -0.305,-1.692 -0.749,-3.284 -1.333,-4.777 -0.585,-1.492 -1.172,-3.203 -1.761,-5.132 -1.165,-2.695 -2.262,-5.621 -3.291,-8.778 -1.029,-3.158 -1.575,-7.063 -1.637,-11.717 0.25,-2.38 0.79,-4.232 1.619,-5.556 0.829,-1.324 1.519,-2.476 2.07,-3.455 l 1.179,-6.785 5.494,-0.607 11.819,-2.246 c 9.005,-1.712 18.146,-3.814 27.423,-6.306 9.277,-2.492 18.835,-5.11 28.673,-7.855 5.62,-1.651 11.311,-3.316 17.073,-4.994 5.761,-1.679 11.733,-3.397 17.917,-5.155 1.09,-2.832 2.183,-5.518 3.278,-8.059 l 4.192,-2.983 c 5.062,-1.254 8.658,-1.282 10.79,-0.083 2.132,1.198 3.911,2.391 5.338,3.578 6.183,-1.759 12.436,-3.603 18.758,-5.534 6.322,-1.93 12.712,-4.092 19.169,-6.486 9.549,-3.273 19.17,-6.414 28.863,-9.422 9.693,-3.009 19.043,-5.369 28.048,-7.081 3.94,-0.749 7.741,-1.325 11.403,-1.73 3.662,-0.404 7.045,-0.61 10.148,-0.617 l 4.262,2.252 c 0.868,1.585 2.085,2.957 3.652,4.117 1.567,1.16 3.205,2.307 4.912,3.44 3.42,2.557 6.847,5.697 10.282,9.417 3.435,3.721 4.787,9.879 4.054,18.474 -2.204,3.918 -3.866,6.275 -4.984,7.071 l -3.729,5.957 -4.227,0.366 c -1.689,0.321 -3.234,0.833 -4.635,1.537 -1.401,0.704 -2.802,1.48 -4.201,2.329 -1.118,0.796 -2.237,1.519 -3.357,2.169 -1.119,0.65 -2.381,1.254 -3.784,1.813 -2.533,0.481 -9.293,1.329 -10.981,1.65 z"
       style="clip-rule:evenodd;fill:#ff00ff;fill-rule:nonzero;stroke-linejoin:round;stroke-miterlimit:2"
       id="path34" /><path
       d="m 2811.43,554.656 c -1.947,2.12 -3.607,4.549 -4.982,7.289 -1.374,2.74 -2.747,5.552 -4.119,8.437 -1.365,3.467 -2.872,6.815 -4.522,10.044 -1.65,3.23 -3.726,6.248 -6.227,9.057 -1.349,4.63 -2.711,8.315 -4.085,11.054 -1.374,2.74 -3.588,6.003 -6.641,9.791 -2.66,12.169 -9.105,26.078 -19.335,41.726 -0.247,2.671 -0.987,5.363 -2.22,8.076 -1.234,2.713 -2.539,5.367 -3.915,7.961 -0.551,0.98 -1.101,2.032 -1.651,3.157 -0.549,1.125 -0.96,2.005 -1.234,2.64 l -0.786,4.523 c -1.376,2.594 -2.897,4.924 -4.562,6.99 -1.666,2.066 -3.192,3.96 -4.58,5.682 -0.551,0.979 -1.521,2.33 -2.908,4.052 l -6.297,3.821 c -20.582,0.996 -33.256,-7.967 -38.022,-26.889 l 0.364,-4.443 c 0.544,-1.561 1.016,-3.181 1.417,-4.861 0.401,-1.68 0.871,-3.446 1.411,-5.298 1.071,-4.286 2.354,-8.612 3.847,-12.978 1.494,-4.366 3.767,-8.443 6.82,-12.23 0.536,-2.143 1.759,-5.656 3.669,-10.539 1.91,-4.882 5.197,-12.286 9.861,-22.212 3.847,-7.729 6.869,-13.843 9.066,-18.343 2.198,-4.5 3.984,-8.047 5.36,-10.641 -2.876,-4.118 -6.309,-7.694 -10.299,-10.726 -3.755,-6.576 -7.013,-12.954 -9.776,-19.136 -2.762,-6.181 -4.882,-11.756 -6.358,-16.723 -0.332,-3.728 -0.797,-6.847 -1.394,-9.358 -0.598,-2.51 -1.198,-5.166 -1.799,-7.968 -0.887,-3.039 -1.633,-6.104 -2.238,-9.197 -0.606,-3.092 -0.932,-6.383 -0.978,-9.873 -1.434,-1.769 -2.305,-3.644 -2.614,-5.627 l 0.786,-4.523 c 0.817,-2.196 0.922,-4.913 0.315,-8.151 -0.607,-3.238 -1.356,-6.521 -2.247,-9.851 -0.601,-2.802 -1.277,-5.881 -2.027,-9.237 -0.75,-3.356 -1.007,-6.806 -0.772,-10.35 0.235,-3.544 1.106,-6.99 2.613,-10.338 1.507,-3.348 4.074,-6.533 7.702,-9.555 l 7.17,-1.8 c 2.552,0.973 5.033,1.886 7.442,2.74 2.41,0.854 4.75,1.795 7.021,2.821 3.114,0.866 6.089,1.759 8.922,2.678 2.834,0.919 5.814,2.248 8.94,3.987 l 3.036,5.546 5.551,3.756 0.064,4.799 c 0.297,1.109 0.459,2.682 0.486,4.718 0.05,3.781 0.644,6.001 1.782,6.66 l 1.758,4.914 c 0.054,4.072 0.527,7.845 1.42,11.32 0.892,3.475 1.782,6.732 2.669,9.771 0.886,3.039 1.775,6.223 2.666,9.553 0.891,3.33 1.081,7.084 0.573,11.263 1.677,-1.194 3.07,-2.479 4.18,-3.856 0.555,-0.689 1.113,-1.232 1.671,-1.63 0.559,-0.398 1.116,-0.941 1.672,-1.63 l 24.441,-39.635 -0.903,-4.202 8.749,-10.41 c 2.22,-2.755 4.372,-5.351 6.456,-7.788 2.083,-2.437 3.813,-4.953 5.189,-7.547 l 4.597,-4.373 c 8.812,-16.254 21.497,-27.704 38.054,-34.35 l 5.898,-1.995 1.764,5.35 c 1.168,2.986 3.528,5.453 7.081,7.402 3.552,1.949 7.314,3.712 11.285,5.29 l 3.834,1.896 c 1.445,2.641 2.178,4.688 2.197,6.143 0.02,1.454 -0.104,2.789 -0.37,4.006 l 1.747,4.042 c -2.159,7.408 -4.835,13.02 -8.029,16.834 -3.193,3.814 -6.321,7.325 -9.381,10.531 -2.502,2.808 -4.796,5.358 -6.881,7.649 -2.086,2.292 -3.672,4.999 -4.759,8.121 l -2.908,4.052 c -5.864,4.614 -9.601,9.989 -11.212,16.127 l -1.197,5.476 -5.065,0.963 c -0.282,0.053 -0.908,0.683 -1.88,1.888 -0.971,1.205 -2.415,4.031 -4.33,8.477 -1.932,3.283 -3.313,5.441 -4.146,6.474 -0.833,1.033 -1.527,1.894 -2.082,2.582 -0.266,1.217 -0.603,2.375 -1.012,3.473 -0.408,1.098 -0.884,2.428 -1.428,3.989 -3.608,4.476 -5.821,7.74 -6.64,9.791 -0.82,2.051 -4.991,11.883 -5.947,14.251 -0.956,2.369 -2.544,4.93 -4.765,7.685 z"
       style="clip-rule:evenodd;fill:#ff00ff;fill-rule:nonzero;stroke-linejoin:round;stroke-miterlimit:2"
       id="path35" /><g
       id="g28"
       style="clip-rule:evenodd;fill-rule:evenodd;stroke-linejoin:round;stroke-miterlimit:2"><path
         d="m 1356.97,908.079 c -1.403,0.558 -2.684,-0.292 -3.843,-2.55 -1.158,-2.258 -2.457,-4.417 -3.895,-6.476 l 4.644,-0.883 c -2.055,-6.024 -2.626,-11.82 -1.713,-17.388 0.914,-5.568 2.04,-11.03 3.38,-16.387 1.339,-5.358 2.469,-10.529 3.39,-15.516 0.921,-4.986 0.362,-9.909 -1.677,-14.77 1.418,0.605 2.469,0.041 3.151,-1.692 0.682,-1.734 1.218,-3.877 1.607,-6.429 0.39,-2.552 0.496,-5.197 0.318,-7.933 -0.177,-2.736 -0.418,-4.95 -0.723,-6.642 3.539,-9.712 6.299,-19.567 8.282,-29.566 1.983,-9.999 3.756,-19.885 5.319,-29.659 1.563,-9.773 3.341,-19.296 5.333,-28.568 1.993,-9.272 4.626,-18.155 7.898,-26.65 3.932,-1.33 8.09,-1.61 12.473,-0.84 4.383,0.771 7.294,2.186 8.732,4.245 8.631,-8.638 16.258,-18.544 22.88,-29.716 6.623,-11.173 13.318,-22.14 20.087,-32.903 6.769,-10.763 14.467,-20.609 23.095,-29.539 8.627,-8.929 19.403,-15.351 32.329,-19.265 6.82,3.66 14.488,7.524 23.006,11.591 8.518,4.067 15.506,9.809 20.965,17.228 2.271,1.026 10.937,5.648 13.208,6.674 l 0.087,6.544 c 3.99,3.032 7.356,6.839 10.097,11.421 2.741,4.581 5.205,9.507 7.391,14.778 2.186,5.27 4.302,10.627 6.349,16.069 2.048,5.443 4.371,10.395 6.969,14.858 -0.54,1.852 -0.73,3.419 -0.572,4.701 0.158,1.282 0.457,2.538 0.896,3.766 0.44,1.229 0.811,2.616 1.113,4.162 0.303,1.547 0.47,3.483 0.501,5.81 -0.921,15.629 -5.61,28.985 -14.067,40.069 -8.458,11.084 -18.768,20.77 -30.93,29.059 -12.162,8.289 -25.11,15.853 -38.843,22.691 -13.733,6.838 -26.195,13.799 -37.386,20.883 0.015,1.164 0.656,1.625 1.922,1.384 1.267,-0.24 1.63,0.565 1.091,2.417 8.512,3.631 15.111,6.605 19.796,8.921 4.686,2.317 9.084,4.178 13.193,5.584 4.11,1.406 8.637,2.368 13.581,2.886 4.944,0.518 11.791,0.966 20.542,1.344 8.751,0.378 15.598,0.753 20.54,1.126 4.942,0.373 9.388,0.548 13.337,0.526 3.95,-0.021 8.18,-0.169 12.69,-0.443 4.511,-0.274 10.571,-0.697 18.18,-1.269 3.139,2.611 5.722,5.911 7.749,9.899 2.028,3.988 3.493,8.083 4.396,12.286 0.902,4.202 1.168,8.306 0.798,12.313 -0.37,4.007 -1.524,7.361 -3.463,10.062 0.297,1.11 1.077,1.471 2.342,1.085 1.264,-0.386 2.602,-0.567 4.013,-0.544 -1.951,1.829 -3.616,3.895 -4.996,6.198 -1.38,2.304 -2.76,4.607 -4.14,6.91 -1.38,2.304 -2.973,4.502 -4.779,6.595 -1.806,2.092 -4.114,3.552 -6.924,4.377 -10.077,5.998 -23.02,8.604 -38.83,7.818 -15.809,-0.786 -36.019,-3.651 -60.63,-8.595 -12.163,-2.354 -22.068,-4.699 -29.717,-7.036 -7.648,-2.337 -14.311,-4.788 -19.987,-7.354 -5.677,-2.566 -10.935,-5.503 -15.776,-8.811 -4.84,-3.308 -10.394,-7.282 -16.662,-11.922 -0.841,0.452 -1.326,1.127 -1.455,2.026 -0.129,0.899 -0.613,1.575 -1.454,2.026 -1.252,11.901 -3.308,21.768 -6.166,29.601 -2.858,7.833 -7.051,16.065 -12.579,24.697 -4.514,-0.017 -7.533,0.994 -9.058,3.034 -1.524,2.039 -3.403,4 -5.635,5.882 -2.806,1.116 -4.918,1.445 -6.334,0.985 -1.417,-0.46 -2.694,-1.019 -3.831,-1.677 -1.138,-0.659 -2.416,-1.291 -3.834,-1.896 -1.419,-0.605 -3.674,-0.468 -6.766,0.411 -0.879,-2.457 -1.757,-4.841 -2.634,-7.153 -0.877,-2.312 -3.143,-2.974 -6.798,-1.988 0.81,-2.778 1.061,-5.086 0.755,-6.923 -0.307,-1.837 -0.752,-3.502 -1.336,-4.994 -0.584,-1.493 -1.099,-3.072 -1.544,-4.737 -0.446,-1.665 -0.262,-3.741 0.552,-6.228 z m 138.338,-226.172 c -3.585,6.221 -7.599,12.014 -12.042,17.378 -4.443,5.364 -8.813,10.86 -13.111,16.488 -4.298,5.628 -8.098,11.598 -11.4,17.912 -3.301,6.313 -5.603,13.53 -6.906,21.65 11.8,-3.7 24.137,-9.471 37.01,-17.312 12.874,-7.842 25.047,-15.331 36.519,-22.468 -1.55,-10.494 -5.323,-18.451 -11.32,-23.872 -5.997,-5.421 -12.247,-8.68 -18.75,-9.776 z"
         style="fill:#ff00ff;fill-rule:nonzero;filter:url(#filter56)"
         id="path22" /><path
         d="m 1857.37,604.343 c 0.309,1.982 0.399,3.496 0.272,4.54 -0.127,1.045 -0.255,2.017 -0.384,2.916 -0.13,0.899 -0.187,1.858 -0.174,2.876 0.014,1.018 0.315,2.491 0.905,4.42 -5.778,11.012 -12.512,19.072 -20.203,24.178 -7.69,5.107 -16.028,9.316 -25.012,12.627 -8.984,3.311 -18.178,6.735 -27.582,10.272 -9.404,3.537 -18.711,9.096 -27.92,16.678 -3.678,-0.758 -6.985,-0.13 -9.92,1.886 -2.936,2.016 -7.221,3.268 -12.857,3.756 -1.666,2.066 -3.76,3.703 -6.283,4.912 -2.523,1.208 -5.045,2.489 -7.566,3.843 1.16,2.404 1.689,5.001 1.585,7.79 -0.104,2.79 0.277,4.977 1.145,6.562 9.861,-1 20.764,-3.218 32.708,-6.654 11.945,-3.437 23.684,-6.397 35.219,-8.881 0.3,1.401 0.172,2.373 -0.385,2.916 -0.557,0.543 -0.687,1.37 -0.39,2.48 1.989,1.08 3.983,2.523 5.982,4.33 1.999,1.807 3.997,3.541 5.994,5.202 1.997,1.662 4.059,2.947 6.187,3.854 2.128,0.908 4.598,0.949 7.408,0.123 1.156,2.113 1.964,4.511 2.423,7.194 0.459,2.682 0.145,5.585 -0.942,8.707 -4.46,4.055 -8.919,8.183 -13.378,12.384 -4.458,4.2 -9.132,8.077 -14.022,11.631 -4.89,3.554 -10.068,6.652 -15.534,9.295 -5.466,2.642 -11.579,4.46 -18.336,5.453 -1.407,0.267 -2.463,0.468 -3.166,0.602 -0.704,0.133 -1.624,-0.129 -2.761,-0.788 -2.232,1.882 -5.393,2.92 -9.481,3.114 -4.088,0.194 -7.248,1.232 -9.48,3.114 -3.115,-0.865 -6.852,-0.811 -11.212,0.163 -4.36,0.975 -8.237,1.201 -11.629,0.68 -4.422,6.963 -8.415,14.283 -11.981,21.959 -3.565,7.675 -6.703,15.707 -9.413,24.095 9.588,-0.365 17.546,-1.294 23.874,-2.788 6.327,-1.495 12.301,-3.14 17.919,-4.937 5.619,-1.797 11.378,-3.621 17.278,-5.471 5.9,-1.85 13.355,-3.486 22.364,-4.907 5.586,-4.269 12.241,-7.648 19.967,-10.137 7.725,-2.489 14.809,-5.511 21.25,-9.068 2.263,0.444 4.253,1.597 5.971,3.457 1.717,1.861 3.363,3.589 4.935,5.185 1.573,1.597 3.214,2.961 4.922,4.095 1.707,1.133 3.826,1.313 6.355,0.541 1.141,0.95 1.933,2.184 2.376,3.703 0.444,1.52 0.816,2.98 1.117,4.381 0.3,1.4 0.809,2.543 1.526,3.427 0.717,0.884 1.918,1.021 3.603,0.409 -4.094,10.4 -8.851,18.667 -14.27,24.799 -5.42,6.133 -11.631,11.177 -18.631,15.132 -7.001,3.955 -14.783,7.475 -23.347,10.561 -8.564,3.085 -18.038,6.635 -28.423,10.65 -2.525,1.064 -4.637,1.392 -6.335,0.986 -1.698,-0.406 -3.673,-0.396 -5.924,0.032 -6.453,2.685 -14.175,5.465 -23.165,8.34 -8.99,2.875 -18.13,5.049 -27.42,6.523 -9.291,1.475 -18.172,1.923 -26.643,1.347 -8.472,-0.577 -15.418,-3.12 -20.838,-7.63 -2.278,-1.608 -3.788,-3.727 -4.528,-6.356 -0.74,-2.629 -2.668,-4.377 -5.783,-5.243 -0.331,-3.727 -0.95,-7.838 -1.856,-12.331 -0.906,-4.493 -1.815,-9.204 -2.727,-14.133 -0.912,-4.93 -1.612,-9.826 -2.1,-14.691 -0.488,-4.864 -0.337,-9.412 0.453,-13.644 0.787,-4.523 2.493,-8.784 5.12,-12.782 2.627,-3.999 3.492,-7.953 2.593,-11.865 1.403,-0.558 2.237,-1.518 2.501,-2.881 0.264,-1.362 1.383,-2.085 3.357,-2.169 1.619,-5.556 3.382,-10.848 5.29,-15.876 1.908,-5.028 3.888,-9.924 5.941,-14.687 2.053,-4.764 4.104,-9.601 6.155,-14.51 2.051,-4.909 4.024,-10.314 5.921,-16.215 -3.99,-3.032 -6.93,-6.628 -8.819,-10.789 -1.889,-4.16 -3.286,-8.414 -4.19,-12.762 -0.904,-4.347 -1.67,-8.867 -2.296,-13.559 -0.627,-4.692 -1.677,-9.377 -3.15,-14.054 2.757,-4.897 6.157,-9.115 10.2,-12.654 4.044,-3.538 8.446,-6.635 13.207,-9.289 4.761,-2.655 9.948,-5.098 15.561,-7.332 5.613,-2.233 11.505,-4.665 17.677,-7.296 11.206,-5.92 21.228,-10.741 30.065,-14.462 8.838,-3.72 17.539,-7.051 26.105,-9.991 8.566,-2.94 17.484,-5.875 26.756,-8.803 9.271,-2.929 19.801,-6.679 31.589,-11.253 2.568,2.136 4.977,2.991 7.228,2.563 1.091,-2.832 2.417,-3.886 3.979,-3.162 1.561,0.724 2.184,-0.196 1.867,-2.76 2.88,4.409 6.523,7.872 10.93,10.387 4.406,2.516 9.298,4.429 14.676,5.74 z"
         style="fill:#ff00ff;fill-rule:nonzero;filter:url(#filter58)"
         id="path23" /><path
         d="m 2073.32,772.798 c -1.623,5.265 -4.018,10.751 -7.187,16.456 -3.169,5.704 -6.908,10.935 -11.218,15.69 -4.309,4.756 -9.12,8.95 -14.432,12.584 -5.312,3.634 -10.921,6.158 -16.827,7.572 -3.67,-0.177 -6.145,-0.654 -7.425,-1.432 -1.28,-0.777 -2.629,-1.468 -4.048,-2.073 -0.852,-0.421 -3.689,-1.632 -4.256,-1.815 l -5.094,-1.219 1.613,-5.992 c 0.532,-2.434 0.367,-4.225 -0.495,-5.374 -0.861,-1.148 -2.574,-2.645 -5.138,-4.49 -0.856,-0.712 -1.711,-1.424 -2.567,-2.136 -0.856,-0.712 -1.571,-1.451 -2.146,-2.217 l -7.286,-6.925 11.357,-5.22 c 7.008,-3.373 11.687,-6.887 14.036,-10.541 2.35,-3.654 3.193,-9.208 2.53,-16.663 -5.644,-0.094 -10.36,0.657 -14.147,2.251 -3.788,1.595 -7.644,3.348 -11.568,5.261 -5.046,2.417 -10.166,4.629 -15.358,6.636 -5.193,2.008 -10.885,3.6 -17.076,4.777 -2.251,0.428 -4.363,0.756 -6.335,0.985 -1.971,0.229 -4.085,0.412 -6.34,0.549 l -4.233,-0.07 c -0.605,-3.092 -1.192,-4.803 -1.761,-5.133 -0.569,-0.329 -1.138,-0.731 -1.709,-1.206 -1.426,-1.186 -2.93,-2.869 -4.51,-5.047 -1.581,-2.178 -1.974,-5.237 -1.18,-9.179 -1.442,-2.35 -2.321,-4.807 -2.637,-7.371 -1.643,3.811 -2.861,7.687 -3.655,11.628 l -1.63,4.684 -4.21,1.675 c -0.559,0.398 -0.972,1.132 -1.24,2.204 -0.268,1.071 -0.398,1.898 -0.39,2.48 l -2.012,7.817 c -0.555,0.689 -2.781,3.007 -3.337,3.696 -0.528,2.725 -1.196,5.476 -2.006,8.254 -0.809,2.778 -1.621,5.411 -2.434,7.898 -1.357,4.048 -2.503,7.984 -3.44,11.807 -0.937,3.823 -1.241,7.452 -0.913,10.889 l -1.625,5.12 c -1.384,2.012 -2.913,3.688 -4.588,5.027 -1.675,1.339 -3.351,2.605 -5.028,3.798 -0.555,0.689 -1.322,1.345 -2.301,1.969 -0.979,0.623 -1.748,1.134 -2.307,1.532 l -1.203,5.039 -5.054,1.836 c -3.088,1.17 -5.263,2.02 -6.525,2.552 -1.263,0.532 -2.738,0.958 -4.427,1.279 l -4.227,0.366 c -3.13,-2.03 -5.55,-3.684 -7.26,-4.962 -1.71,-1.279 -3.7,-2.431 -5.971,-3.458 -2.579,-3.009 -4.021,-5.359 -4.325,-7.05 -0.305,-1.692 -0.607,-3.238 -0.908,-4.639 -0.586,-1.638 -0.957,-3.025 -1.114,-4.162 -0.156,-1.137 -0.519,-1.942 -1.09,-2.417 l -5.557,-4.192 4.591,-4.809 0.324,-7.497 c 5.431,-15.903 11.221,-31.291 17.372,-46.164 6.15,-14.873 12.507,-30.078 19.071,-45.613 2.19,-5.081 10.525,-25.327 12.715,-30.408 -0.293,-0.819 -0.447,-1.81 -0.463,-2.974 -0.015,-1.163 0.249,-2.525 0.792,-4.087 3.03,-5.532 5.504,-10.449 7.422,-14.75 1.917,-4.301 3.834,-8.674 5.75,-13.121 2.185,-5.372 4.443,-10.612 6.773,-15.72 2.33,-5.109 5.292,-10.482 8.884,-16.122 l 6.714,-4.338 c 0.84,-0.451 1.82,-1.002 2.94,-1.652 1.12,-0.65 2.384,-1.109 3.791,-1.377 l 6.343,-0.331 c 7.829,-5.278 14.653,-11.897 20.472,-19.855 5.819,-7.958 11.76,-17.324 17.824,-28.099 l 4.14,-6.91 5.534,2.447 c 1.418,0.605 3.399,1.031 5.941,1.276 2.543,0.246 5.227,0.538 8.053,0.875 5.081,0.201 9.882,0.601 14.404,1.199 4.522,0.598 8.209,2.084 11.062,4.458 1.75,4.333 2.782,7.636 3.094,9.909 0.313,2.273 0.766,4.52 1.359,6.739 0.91,4.784 1.75,9.582 2.519,14.392 0.77,4.811 1.335,10.243 1.698,16.298 1.473,4.677 2.734,9.321 3.782,13.933 1.049,4.612 2.029,9.309 2.939,14.093 1.499,6.713 2.996,13.208 4.49,19.484 1.495,6.277 3.406,12.11 5.735,17.499 2.251,-0.428 3.66,-0.55 4.227,-0.366 1.399,-0.849 2.871,-1.566 4.414,-2.151 1.544,-0.585 3.299,-1.211 5.265,-1.876 l 4.638,-1.319 1.746,4.042 c 0.301,1.401 1.728,2.588 4.28,3.56 3.662,-0.404 6.346,-0.112 8.052,0.876 1.706,0.987 3.272,2.075 4.698,3.262 1.141,0.949 2.279,1.608 3.412,1.975 l 6.367,1.414 -3.29,7.186 c -2.745,5.77 -6.688,11.55 -11.831,17.338 -5.142,5.789 -10.928,10.898 -17.358,15.327 0.304,1.692 0.538,3.324 0.7,4.897 0.162,1.573 0.536,3.178 1.122,4.816 0.91,4.784 1.681,9.74 2.313,14.869 0.633,5.128 0.704,10.509 0.215,16.142 z m -122.997,-52.287 c 8.435,-2.187 16.095,-4.299 22.98,-6.336 6.885,-2.038 14.537,-4.731 22.956,-8.081 -2.086,-8.351 -4.317,-17.039 -6.694,-26.063 -2.377,-9.025 -4.894,-17.95 -7.55,-26.776 l -2.475,4.844 c -5.547,7.178 -10.874,15.042 -15.979,23.594 -5.106,8.551 -9.443,16.52 -13.013,23.904 -1.654,2.939 -3.307,5.877 -4.961,8.816 -1.654,2.938 -3.167,5.85 -4.539,8.735 1.685,-0.611 3.301,-1.064 4.849,-1.359 1.548,-0.294 3.023,-0.72 4.426,-1.278 z"
         style="fill:#ff00ff;fill-rule:nonzero;filter:url(#filter62)"
         id="path24" /><path
         d="m 2213.05,778.169 c -7.845,4.116 -16.394,8.365 -25.645,12.747 -9.252,4.383 -18.522,7.457 -27.808,9.222 -14.071,2.674 -25.235,1.152 -33.493,-4.568 -1.45,-2.932 -2.745,-4.873 -3.886,-5.822 -0.86,-1.003 -1.65,-2.092 -2.371,-3.267 -0.721,-1.175 -1.238,-2.9 -1.55,-5.173 -3.431,-3.43 -6.167,-7.648 -8.209,-12.654 -2.041,-5.006 -3.451,-10.278 -4.23,-15.816 -0.779,-5.538 -0.996,-11.256 -0.652,-17.153 0.345,-5.897 1.186,-11.597 2.524,-17.099 0.547,-1.271 0.883,-2.501 1.009,-3.691 0.125,-1.19 0.319,-2.539 0.581,-4.047 1.063,-4.867 2.2,-9.603 3.408,-14.206 1.208,-4.604 2.917,-8.719 5.126,-12.346 -1.161,-2.404 -1.2,-5.312 -0.116,-8.725 1.083,-3.414 2.31,-6.563 3.683,-9.448 3.793,-11.801 6.974,-21.809 9.545,-30.025 2.571,-8.215 5.214,-16.371 7.927,-24.468 4.61,-13.998 8.941,-27.796 12.992,-41.396 4.051,-13.599 7.666,-28.136 10.846,-43.611 2.232,-1.883 3.907,-3.221 5.025,-4.017 1.681,-0.903 3.082,-1.606 4.204,-2.111 5.1,1.655 11.044,3.076 17.83,4.265 6.787,1.188 12.432,1.355 16.935,0.499 2.27,1.026 3.692,1.849 4.264,2.469 0.573,0.621 1.144,1.168 1.715,1.643 3.146,3.192 5.87,6.538 8.174,10.036 2.304,3.499 3.076,8.528 2.317,15.087 -1.654,2.938 -2.903,4.488 -3.747,4.648 -1.33,6.085 -2.742,11.31 -4.235,15.676 -1.494,4.366 -3.058,8.745 -4.692,13.138 -1.912,4.737 -3.684,9.448 -5.314,14.131 -1.63,4.684 -2.966,10.332 -4.007,16.944 -1.106,1.669 -1.862,3.124 -2.269,4.368 -0.407,1.244 -0.882,2.646 -1.425,4.207 -0.544,1.562 -1.157,3.209 -1.839,4.942 -0.682,1.734 -1.719,3.316 -3.111,4.747 -0.743,7.722 -1.999,14.084 -3.766,19.085 -1.768,5.001 -3.605,10.016 -5.513,15.044 -3.265,9.076 -6.178,18.086 -8.74,27.028 -2.561,8.943 -4.051,18.848 -4.471,29.717 1.399,-0.849 2.732,-1.394 3.998,-1.635 1.267,-0.241 2.463,-0.468 3.589,-0.682 2.532,-0.481 5.493,-0.607 8.881,-0.376 8.381,-6.258 17.561,-10.773 27.539,-13.544 9.979,-2.772 19.891,-5.239 29.737,-7.402 3.939,-0.749 7.879,-1.497 11.819,-2.246 3.94,-0.749 7.594,-1.735 10.964,-2.959 2.552,0.973 4.18,1.465 4.886,1.477 0.705,0.012 1.762,-0.116 3.169,-0.384 1.97,-0.374 3.66,-0.55 5.071,-0.526 3.419,2.557 6.687,4.269 9.802,5.135 3.114,0.866 6.368,1.559 9.761,2.081 3.111,0.575 6.152,1.236 9.125,1.983 2.972,0.747 5.88,2.017 8.726,3.809 l 3.204,18.198 c 2.004,2.243 2.872,3.828 2.602,4.754 0.031,2.326 -0.509,4.178 -1.619,5.556 l 0.908,4.638 c -4.209,1.675 -7.08,3.241 -8.613,4.699 -1.532,1.457 -2.992,3.047 -4.38,4.769 -2.247,0.718 -3.863,1.171 -4.848,1.359 -0.985,0.187 -1.9,0.361 -2.744,0.521 -3.94,0.749 -8.714,2.385 -14.323,4.909 -7.633,-1.173 -15.53,-0.984 -23.691,0.567 -3.096,0.588 -6.33,1.349 -9.703,2.282 -3.373,0.932 -6.746,1.865 -10.12,2.798 -3.369,1.223 -6.81,2.315 -10.324,3.274 -3.514,0.96 -7.1,1.787 -10.758,2.482 z"
         style="fill:#ff00ff;fill-rule:nonzero;filter:url(#filter64)"
         id="path25" /><path
         d="m 2421.23,712.795 c 1.524,8.458 1.122,15.386 -1.204,20.785 -2.327,5.399 -5.654,9.749 -9.983,13.051 -4.329,3.301 -9.306,5.632 -14.931,6.993 -5.624,1.36 -10.975,2.086 -16.052,2.176 -2.868,-3.537 -5.468,-8.146 -7.801,-13.825 -2.333,-5.68 -4.527,-11.605 -6.584,-17.775 -2.057,-6.169 -3.902,-12.306 -5.535,-18.411 -1.633,-6.104 -3.045,-11.522 -4.236,-16.252 1.361,-3.758 2.222,-7.931 2.584,-12.519 0.362,-4.588 0.583,-9.223 0.662,-13.903 0.078,-4.68 0.156,-9.433 0.233,-14.259 0.077,-4.826 0.368,-9.473 0.873,-13.943 1.807,-12.59 4.537,-24.772 8.189,-36.546 3.652,-11.774 6.525,-23.838 8.618,-36.19 0.528,-2.725 0.284,-5.157 -0.732,-7.297 -1.016,-2.139 -1.256,-4.28 -0.72,-6.423 0.266,-1.217 1.099,-2.177 2.501,-2.881 1.401,-0.704 2.232,-1.81 2.495,-3.317 0.801,-3.36 0.978,-6.018 0.528,-7.973 -0.449,-1.956 0.011,-4.522 1.379,-7.698 1.376,-2.594 3.09,-6.346 5.14,-11.255 2.051,-4.909 2.762,-9.783 2.134,-14.62 2.509,-2.227 4.874,-4.717 7.094,-7.472 2.221,-2.754 4.514,-5.304 6.881,-7.649 2.367,-2.346 5.018,-4.526 7.954,-6.542 2.935,-2.016 6.514,-3.425 10.735,-4.227 2.29,2.48 3.81,5.399 4.56,8.755 0.75,3.357 1.5,6.713 2.25,10.07 0.75,3.356 1.848,6.427 3.296,9.214 1.448,2.786 3.872,4.731 7.272,5.834 0.031,2.327 0.07,5.236 0.116,8.726 0.046,3.49 0.232,6.881 0.558,10.172 0.326,3.291 1,6.225 2.022,8.8 1.021,2.576 2.664,4.086 4.927,4.531 -4.88,14.923 -9.41,29.635 -13.59,44.133 -4.181,14.499 -7.586,28.924 -10.216,43.274 -2.631,14.35 -4.205,28.572 -4.723,42.666 -0.518,14.095 0.584,28.027 3.306,41.797 z"
         style="fill:#ff00ff;fill-rule:nonzero;filter:url(#filter66)"
         id="path26" /><path
         d="m 2708,478.53 c -7.035,1.337 -14.627,3.29 -22.774,5.859 -8.148,2.569 -16.154,5.184 -24.018,7.845 -5.616,1.943 -11.024,3.699 -16.222,5.271 -5.199,1.571 -9.907,2.903 -14.124,3.996 -1.885,6.773 -3.779,12.819 -5.684,18.138 -1.904,5.319 -3.951,10.519 -6.14,15.6 -2.186,5.372 -4.159,10.777 -5.921,16.215 -1.761,5.437 -3.448,11.225 -5.059,17.363 -2.752,5.188 -5.017,9.919 -6.794,14.194 -1.777,4.274 -3.195,8.99 -4.255,14.148 -3.319,5.005 -5.791,10.067 -7.415,15.187 -1.625,5.12 -2.836,9.505 -3.634,13.156 l -1.619,5.556 c -1.665,2.066 -2.632,3.634 -2.9,4.706 -0.268,1.071 -0.959,2.15 -2.073,3.237 -0.239,3.253 -1.181,6.639 -2.827,10.159 -0.544,1.562 -0.947,3.023 -1.211,4.386 -0.264,1.362 -0.392,2.334 -0.385,2.916 0.039,2.908 -0.639,4.932 -2.035,6.072 0.301,1.401 0.321,2.928 0.061,4.581 -0.26,1.653 -0.521,3.234 -0.783,4.741 -0.798,3.651 -1.043,6.467 -0.734,8.45 0.859,1.003 1.647,1.874 2.362,2.612 0.715,0.739 1.223,1.809 1.524,3.21 1.704,0.842 2.98,1.329 3.828,1.459 1.137,0.659 2.839,1.356 5.106,2.091 l 3.857,3.641 c 1.519,8.167 0.342,15.097 -3.532,20.79 -4.148,6.329 -11.287,10.456 -21.418,12.381 l -5.066,0.963 c -1.426,-1.187 -2.286,-2.19 -2.579,-3.009 -2.263,-0.444 -4.102,-0.824 -5.516,-1.138 -1.415,-0.314 -2.697,-1.237 -3.846,-2.768 -3.682,-1.05 -6.656,-1.943 -8.923,-2.678 l -3.828,-1.459 c -0.042,-3.2 -0.065,-4.945 -0.069,-5.235 -2.005,-2.244 -3.521,-4.871 -4.549,-7.883 -1.027,-3.013 -1.843,-6.065 -2.449,-9.157 -0.597,-2.511 -1.263,-4.863 -1.998,-7.056 -0.734,-2.193 -1.676,-4.055 -2.825,-5.586 -0.787,-16.762 0.571,-31.308 4.075,-43.637 3.504,-12.329 7.154,-24.249 10.951,-35.759 2.174,-6.245 4.347,-12.562 6.519,-18.952 2.172,-6.391 4.059,-12.945 5.663,-19.665 l 3.741,-5.085 c 1.908,-5.028 3.475,-9.189 4.701,-12.484 1.225,-3.294 2.521,-6.675 3.885,-10.142 0.817,-2.196 1.565,-4.306 2.243,-6.33 0.679,-2.025 1.29,-3.817 1.833,-5.379 -1.688,0.321 -3.235,0.688 -4.64,1.101 -1.405,0.413 -7.442,2.581 -8.847,2.994 -1.405,0.413 -2.812,0.753 -4.219,1.02 -1.97,0.375 -3.379,0.497 -4.227,0.366 -3.076,2.043 -6.443,3.412 -10.102,4.107 l -4.221,0.803 c -0.844,0.16 -1.619,0.234 -2.324,0.223 -0.706,-0.012 -1.34,0.036 -1.903,0.143 -2.814,0.534 -5.06,1.399 -6.736,2.592 -3.377,0.642 -13.93,2.648 -13.93,2.648 -0.563,0.107 -3.653,1.131 -4.216,1.238 -1.97,0.375 -4.083,0.558 -6.34,0.549 -2.257,-0.008 -4.662,-0.499 -7.214,-1.471 -3.439,-4.012 -5.723,-6.056 -6.853,-6.133 l -3.868,-4.513 c -0.305,-1.692 -0.749,-3.284 -1.333,-4.777 -0.585,-1.492 -1.172,-3.203 -1.761,-5.132 -1.165,-2.695 -2.262,-5.621 -3.291,-8.778 -1.029,-3.158 -1.575,-7.063 -1.637,-11.717 0.25,-2.38 0.79,-4.232 1.619,-5.556 0.829,-1.324 1.519,-2.476 2.07,-3.455 l 1.179,-6.785 5.494,-0.607 11.819,-2.246 c 9.005,-1.712 18.146,-3.814 27.423,-6.306 9.277,-2.492 18.835,-5.11 28.673,-7.855 5.62,-1.651 11.311,-3.316 17.073,-4.994 5.761,-1.679 11.733,-3.397 17.917,-5.155 1.09,-2.832 2.183,-5.518 3.278,-8.059 l 4.192,-2.983 c 5.062,-1.254 8.658,-1.282 10.79,-0.083 2.132,1.198 3.911,2.391 5.338,3.578 6.183,-1.759 12.436,-3.603 18.758,-5.534 6.322,-1.93 12.712,-4.092 19.169,-6.486 9.549,-3.273 19.17,-6.414 28.863,-9.422 9.693,-3.009 19.043,-5.369 28.048,-7.081 3.94,-0.749 7.741,-1.325 11.403,-1.73 3.662,-0.404 7.045,-0.61 10.148,-0.617 l 4.262,2.252 c 0.868,1.585 2.085,2.957 3.652,4.117 1.567,1.16 3.205,2.307 4.912,3.44 3.42,2.557 6.847,5.697 10.282,9.417 3.435,3.721 4.787,9.879 4.054,18.474 -2.204,3.918 -3.866,6.275 -4.984,7.071 l -3.729,5.957 -4.227,0.366 c -1.689,0.321 -3.234,0.833 -4.635,1.537 -1.401,0.704 -2.802,1.48 -4.201,2.329 -1.118,0.796 -2.237,1.519 -3.357,2.169 -1.119,0.65 -2.381,1.254 -3.784,1.813 -2.533,0.481 -9.293,1.329 -10.981,1.65 z"
         style="fill:#ff00ff;fill-rule:nonzero;filter:url(#filter71)"
         id="path27" /><path
         d="m 2811.43,554.656 c -1.947,2.12 -3.607,4.549 -4.982,7.289 -1.374,2.74 -2.747,5.552 -4.119,8.437 -1.365,3.467 -2.872,6.815 -4.522,10.044 -1.65,3.23 -3.726,6.248 -6.227,9.057 -1.349,4.63 -2.711,8.315 -4.085,11.054 -1.374,2.74 -3.588,6.003 -6.641,9.791 -2.66,12.169 -9.105,26.078 -19.335,41.726 -0.247,2.671 -0.987,5.363 -2.22,8.076 -1.234,2.713 -2.539,5.367 -3.915,7.961 -0.551,0.98 -1.101,2.032 -1.651,3.157 -0.549,1.125 -0.96,2.005 -1.234,2.64 l -0.786,4.523 c -1.376,2.594 -2.897,4.924 -4.562,6.99 -1.666,2.066 -3.192,3.96 -4.58,5.682 -0.551,0.979 -1.521,2.33 -2.908,4.052 l -6.297,3.821 c -20.582,0.996 -33.256,-7.967 -38.022,-26.889 l 0.364,-4.443 c 0.544,-1.561 1.016,-3.181 1.417,-4.861 0.401,-1.68 0.871,-3.446 1.411,-5.298 1.071,-4.286 2.354,-8.612 3.847,-12.978 1.494,-4.366 3.767,-8.443 6.82,-12.23 0.536,-2.143 1.759,-5.656 3.669,-10.539 1.91,-4.882 5.197,-12.286 9.861,-22.212 3.847,-7.729 6.869,-13.843 9.066,-18.343 2.198,-4.5 3.984,-8.047 5.36,-10.641 -2.876,-4.118 -6.309,-7.694 -10.299,-10.726 -3.755,-6.576 -7.013,-12.954 -9.776,-19.136 -2.762,-6.181 -4.882,-11.756 -6.358,-16.723 -0.332,-3.728 -0.797,-6.847 -1.394,-9.358 -0.598,-2.51 -1.198,-5.166 -1.799,-7.968 -0.887,-3.039 -1.633,-6.104 -2.238,-9.197 -0.606,-3.092 -0.932,-6.383 -0.978,-9.873 -1.434,-1.769 -2.305,-3.644 -2.614,-5.627 l 0.786,-4.523 c 0.817,-2.196 0.922,-4.913 0.315,-8.151 -0.607,-3.238 -1.356,-6.521 -2.247,-9.851 -0.601,-2.802 -1.277,-5.881 -2.027,-9.237 -0.75,-3.356 -1.007,-6.806 -0.772,-10.35 0.235,-3.544 1.106,-6.99 2.613,-10.338 1.507,-3.348 4.074,-6.533 7.702,-9.555 l 7.17,-1.8 c 2.552,0.973 5.033,1.886 7.442,2.74 2.41,0.854 4.75,1.795 7.021,2.821 3.114,0.866 6.089,1.759 8.922,2.678 2.834,0.919 5.814,2.248 8.94,3.987 l 3.036,5.546 5.551,3.756 0.064,4.799 c 0.297,1.109 0.459,2.682 0.486,4.718 0.05,3.781 0.644,6.001 1.782,6.66 l 1.758,4.914 c 0.054,4.072 0.527,7.845 1.42,11.32 0.892,3.475 1.782,6.732 2.669,9.771 0.886,3.039 1.775,6.223 2.666,9.553 0.891,3.33 1.081,7.084 0.573,11.263 1.677,-1.194 3.07,-2.479 4.18,-3.856 0.555,-0.689 1.113,-1.232 1.671,-1.63 0.559,-0.398 1.116,-0.941 1.672,-1.63 l 24.441,-39.635 -0.903,-4.202 8.749,-10.41 c 2.22,-2.755 4.372,-5.351 6.456,-7.788 2.083,-2.437 3.813,-4.953 5.189,-7.547 l 4.597,-4.373 c 8.812,-16.254 21.497,-27.704 38.054,-34.35 l 5.898,-1.995 1.764,5.35 c 1.168,2.986 3.528,5.453 7.081,7.402 3.552,1.949 7.314,3.712 11.285,5.29 l 3.834,1.896 c 1.445,2.641 2.178,4.688 2.197,6.143 0.02,1.454 -0.104,2.789 -0.37,4.006 l 1.747,4.042 c -2.159,7.408 -4.835,13.02 -8.029,16.834 -3.193,3.814 -6.321,7.325 -9.381,10.531 -2.502,2.808 -4.796,5.358 -6.881,7.649 -2.086,2.292 -3.672,4.999 -4.759,8.121 l -2.908,4.052 c -5.864,4.614 -9.601,9.989 -11.212,16.127 l -1.197,5.476 -5.065,0.963 c -0.282,0.053 -0.908,0.683 -1.88,1.888 -0.971,1.205 -2.415,4.031 -4.33,8.477 -1.932,3.283 -3.313,5.441 -4.146,6.474 -0.833,1.033 -1.527,1.894 -2.082,2.582 -0.266,1.217 -0.603,2.375 -1.012,3.473 -0.408,1.098 -0.884,2.428 -1.428,3.989 -3.608,4.476 -5.821,7.74 -6.64,9.791 -0.82,2.051 -4.991,11.883 -5.947,14.251 -0.956,2.369 -2.544,4.93 -4.765,7.685 z"
         style="fill:#ff00ff;fill-rule:nonzero;filter:url(#filter74)"
         id="path28" /></g></g></svg>
