<?xml version="1.0" encoding="UTF-8" standalone="no"?>
<svg
   width="241"
   height="241"
   viewBox="0 0 241.00001 241"
   version="1.1"
   xml:space="preserve"
   style="clip-rule:evenodd;fill-rule:evenodd;stroke-linejoin:round;stroke-miterlimit:2"
   id="svg35"
   sodipodi:docname="Favicon.svg"
   inkscape:version="1.3 (0e150ed, 2023-07-21)"
   xmlns:inkscape="http://www.inkscape.org/namespaces/inkscape"
   xmlns:sodipodi="http://sodipodi.sourceforge.net/DTD/sodipodi-0.dtd"
   xmlns:xlink="http://www.w3.org/1999/xlink"
   xmlns="http://www.w3.org/2000/svg"
   xmlns:svg="http://www.w3.org/2000/svg"><defs
     id="defs35"><linearGradient
       id="linearGradient51"
       inkscape:collect="always"><stop
         style="stop-color:#000000;stop-opacity:1;"
         offset="0"
         id="stop51" /><stop
         style="stop-color:#000000;stop-opacity:1;"
         offset="0.247851"
         id="stop53" /><stop
         style="stop-color:#00ffff;stop-opacity:1;"
         offset="0.52796561"
         id="stop54" /><stop
         style="stop-color:#ff00ff;stop-opacity:1;"
         offset="0.52999997"
         id="stop55" /><stop
         style="stop-color:#000000;stop-opacity:1;"
         offset="0.75035816"
         id="stop56" /><stop
         style="stop-color:#000000;stop-opacity:1;"
         offset="1"
         id="stop52" /></linearGradient><filter
       style="color-interpolation-filters:sRGB"
       inkscape:label="Drop Shadow"
       id="filter47"
       x="-0.20697387"
       y="-0.16247632"
       width="1.4965935"
       height="1.3898303"
       inkscape:menu="Shadows and Glows"
       inkscape:menu-tooltip="Cut out, add inner shadow and colorize some parts of an image"><feFlood
         result="flood"
         in="SourceGraphic"
         flood-opacity="1.000000"
         flood-color="rgb(0,255,255)"
         id="feFlood46" /><feGaussianBlur
         result="blur"
         in="SourceGraphic"
         stdDeviation="0.000000"
         id="feGaussianBlur46" /><feOffset
         result="offset"
         in="blur"
         dx="20.000000"
         dy="20.000000"
         id="feOffset46" /><feComposite
         result="comp1"
         operator="in"
         in="flood"
         in2="offset"
         id="feComposite46" /><feComposite
         result="fbSourceGraphic"
         operator="over"
         in="SourceGraphic"
         in2="comp1"
         id="feComposite47" /><feColorMatrix
         result="fbSourceGraphicAlpha"
         in="fbSourceGraphic"
         values="0 0 0 -1 0 0 0 0 -1 0 0 0 0 -1 0 0 0 0 1 0"
         id="feColorMatrix66" /><feColorMatrix
         id="feColorMatrix67"
         values="0 0 0 0 0 0 0 0 0 0 0 0 0 0 0 0.21 0.72 0.07 0 0 "
         result="result1"
         in="fbSourceGraphic" /><feColorMatrix
         id="feColorMatrix68"
         values="1 0 0 0 0 0 1 0 0 0 0 0 1 0 0 0 0 0 2 0 "
         result="result9" /><feComposite
         id="feComposite68"
         in2="result9"
         in="fbSourceGraphic"
         operator="in"
         result="result4" /><feFlood
         id="feFlood68"
         result="result2"
         flood-color="rgb(0,0,0)" /><feComposite
         id="feComposite69"
         in2="result9"
         operator="in"
         result="result10" /><feComposite
         id="feComposite70"
         in2="result4"
         operator="atop" /><feGaussianBlur
         id="feGaussianBlur70"
         stdDeviation="3"
         result="result8" /><feOffset
         id="feOffset70"
         dx="3"
         dy="3"
         result="result3"
         in="result8" /><feFlood
         id="feFlood70"
         flood-opacity="1"
         flood-color="rgb(219,173,62)"
         result="result5" /><feMerge
         id="feMerge70"
         result="result6"><feMergeNode
           id="feMergeNode70"
           in="result5" /><feMergeNode
           id="feMergeNode71"
           in="result3" /><feMergeNode
           id="feMergeNode72"
           in="result4" /></feMerge><feComposite
         id="feComposite72"
         in2="fbSourceGraphic"
         operator="in"
         result="fbSourceGraphic" /><feColorMatrix
         result="fbSourceGraphicAlpha"
         in="fbSourceGraphic"
         values="0 0 0 -1 0 0 0 0 -1 0 0 0 0 -1 0 0 0 0 1 0"
         id="feColorMatrix84" /><feFlood
         id="feFlood84"
         result="flood"
         in="fbSourceGraphic"
         flood-opacity="1.000000"
         flood-color="rgb(255,0,255)" /><feGaussianBlur
         id="feGaussianBlur84"
         result="blur"
         in="fbSourceGraphic"
         stdDeviation="7.000000" /><feOffset
         id="feOffset84"
         result="offset"
         in="blur"
         dx="0.000000"
         dy="0.000000" /><feComposite
         id="feComposite84"
         result="comp1"
         operator="out"
         in="flood"
         in2="offset" /><feComposite
         id="feComposite85"
         result="comp2"
         operator="atop"
         in="comp1"
         in2="fbSourceGraphic" /></filter><linearGradient
       inkscape:collect="always"
       xlink:href="#linearGradient51"
       id="linearGradient52"
       x1="1366.7981"
       y1="630.44397"
       x2="1366.7981"
       y2="70.627831"
       gradientUnits="userSpaceOnUse" /><filter
       style="color-interpolation-filters:sRGB"
       inkscape:label="Drop Shadow"
       id="filter60"
       x="-0.091272931"
       y="-0.12207761"
       width="1.1825457"
       height="1.2441552"><feFlood
         result="flood"
         in="SourceGraphic"
         flood-opacity="1.000000"
         flood-color="rgb(0,255,255)"
         id="feFlood59" /><feGaussianBlur
         result="blur"
         in="SourceGraphic"
         stdDeviation="20.000000"
         id="feGaussianBlur59" /><feOffset
         result="offset"
         in="blur"
         dx="0.000000"
         dy="0.000000"
         id="feOffset59" /><feComposite
         result="comp1"
         operator="in"
         in="flood"
         in2="offset"
         id="feComposite59" /><feComposite
         result="comp2"
         operator="over"
         in="SourceGraphic"
         in2="comp1"
         id="feComposite60" /></filter><filter
       style="color-interpolation-filters:sRGB"
       inkscape:label="Drop Shadow"
       id="filter56"
       x="-0.06899129"
       y="-0.054158775"
       width="1.1379826"
       height="1.1083175"><feFlood
         result="flood"
         in="SourceGraphic"
         flood-opacity="1.000000"
         flood-color="rgb(255,0,255)"
         id="feFlood55" /><feGaussianBlur
         result="blur"
         in="SourceGraphic"
         stdDeviation="8.000000"
         id="feGaussianBlur55" /><feOffset
         result="offset"
         in="blur"
         dx="0.000000"
         dy="0.000000"
         id="feOffset55" /><feComposite
         result="comp1"
         operator="in"
         in="flood"
         in2="offset"
         id="feComposite55" /><feComposite
         result="comp2"
         operator="over"
         in="SourceGraphic"
         in2="comp1"
         id="feComposite56" /></filter><filter
       style="color-interpolation-filters:sRGB"
       inkscape:label="Drop Shadow"
       id="filter58"
       x="-0.08361841"
       y="-0.063817285"
       width="1.1672368"
       height="1.1276346"><feFlood
         result="flood"
         in="SourceGraphic"
         flood-opacity="1.000000"
         flood-color="rgb(255,0,255)"
         id="feFlood56" /><feGaussianBlur
         result="blur"
         in="SourceGraphic"
         stdDeviation="8.000000"
         id="feGaussianBlur56" /><feOffset
         result="offset"
         in="blur"
         dx="0.000000"
         dy="0.000000"
         id="feOffset56" /><feComposite
         result="comp1"
         operator="in"
         in="flood"
         in2="offset"
         id="feComposite57" /><feComposite
         result="comp2"
         operator="over"
         in="SourceGraphic"
         in2="comp1"
         id="feComposite58" /></filter><filter
       style="color-interpolation-filters:sRGB"
       inkscape:label="Drop Shadow"
       id="filter62"
       x="-0.072958305"
       y="-0.065149456"
       width="1.1459166"
       height="1.1302989"><feFlood
         result="flood"
         in="SourceGraphic"
         flood-opacity="1.000000"
         flood-color="rgb(255,0,255)"
         id="feFlood58" /><feGaussianBlur
         result="blur"
         in="SourceGraphic"
         stdDeviation="8.000000"
         id="feGaussianBlur58" /><feOffset
         result="offset"
         in="blur"
         dx="0.000000"
         dy="0.000000"
         id="feOffset58" /><feComposite
         result="comp1"
         operator="in"
         in="flood"
         in2="offset"
         id="feComposite61" /><feComposite
         result="comp2"
         operator="over"
         in="SourceGraphic"
         in2="comp1"
         id="feComposite62" /></filter><filter
       style="color-interpolation-filters:sRGB"
       inkscape:label="Drop Shadow"
       id="filter64"
       x="-0.088097952"
       y="-0.06834662"
       width="1.1761959"
       height="1.1366932"><feFlood
         result="flood"
         in="SourceGraphic"
         flood-opacity="1.000000"
         flood-color="rgb(255,0,255)"
         id="feFlood62" /><feGaussianBlur
         result="blur"
         in="SourceGraphic"
         stdDeviation="8.000000"
         id="feGaussianBlur62" /><feOffset
         result="offset"
         in="blur"
         dx="0.000000"
         dy="0.000000"
         id="feOffset62" /><feComposite
         result="comp1"
         operator="in"
         in="flood"
         in2="offset"
         id="feComposite63" /><feComposite
         result="comp2"
         operator="over"
         in="SourceGraphic"
         in2="comp1"
         id="feComposite64" /></filter><filter
       style="color-interpolation-filters:sRGB"
       inkscape:label="Drop Shadow"
       id="filter66"
       x="-0.20972376"
       y="-0.068332992"
       width="1.4194475"
       height="1.1366661"><feFlood
         result="flood"
         in="SourceGraphic"
         flood-opacity="1.000000"
         flood-color="rgb(255,0,255)"
         id="feFlood64" /><feGaussianBlur
         result="blur"
         in="SourceGraphic"
         stdDeviation="8.000000"
         id="feGaussianBlur64" /><feOffset
         result="offset"
         in="blur"
         dx="0.000000"
         dy="0.000000"
         id="feOffset64" /><feComposite
         result="comp1"
         operator="in"
         in="flood"
         in2="offset"
         id="feComposite65" /><feComposite
         result="comp2"
         operator="over"
         in="SourceGraphic"
         in2="comp1"
         id="feComposite66" /></filter><filter
       style="color-interpolation-filters:sRGB"
       inkscape:label="Drop Shadow"
       id="filter71"
       x="-0.068422541"
       y="-0.062032536"
       width="1.1368451"
       height="1.124065"><feFlood
         result="flood"
         in="SourceGraphic"
         flood-opacity="1.000000"
         flood-color="rgb(255,0,255)"
         id="feFlood66" /><feGaussianBlur
         result="blur"
         in="SourceGraphic"
         stdDeviation="8.000000"
         id="feGaussianBlur66" /><feOffset
         result="offset"
         in="blur"
         dx="0.000000"
         dy="0.000000"
         id="feOffset66" /><feComposite
         result="comp1"
         operator="in"
         in="flood"
         in2="offset"
         id="feComposite67" /><feComposite
         result="comp2"
         operator="over"
         in="SourceGraphic"
         in2="comp1"
         id="feComposite71" /></filter><filter
       style="color-interpolation-filters:sRGB"
       inkscape:label="Drop Shadow"
       id="filter74"
       x="-0.096110046"
       y="-0.061183184"
       width="1.1922201"
       height="1.1223664"><feFlood
         result="flood"
         in="SourceGraphic"
         flood-opacity="1.000000"
         flood-color="rgb(255,0,255)"
         id="feFlood71" /><feGaussianBlur
         result="blur"
         in="SourceGraphic"
         stdDeviation="8.000000"
         id="feGaussianBlur71" /><feOffset
         result="offset"
         in="blur"
         dx="0.000000"
         dy="0.000000"
         id="feOffset71" /><feComposite
         result="comp1"
         operator="in"
         in="flood"
         in2="offset"
         id="feComposite73" /><feComposite
         result="comp2"
         operator="over"
         in="SourceGraphic"
         in2="comp1"
         id="feComposite74" /></filter><linearGradient
       inkscape:collect="always"
       xlink:href="#linearGradient51"
       id="linearGradient1"
       gradientUnits="userSpaceOnUse"
       x1="1366.7981"
       y1="630.44397"
       x2="1366.7981"
       y2="70.627831"
       gradientTransform="translate(-4.3012538,19.667584)" /><linearGradient
       inkscape:collect="always"
       xlink:href="#linearGradient51"
       id="linearGradient8"
       gradientUnits="userSpaceOnUse"
       x1="1366.7981"
       y1="630.44397"
       x2="1366.7981"
       y2="70.627831"
       gradientTransform="translate(-4.3012538,19.667584)" /><linearGradient
       inkscape:collect="always"
       xlink:href="#linearGradient51"
       id="linearGradient15"
       gradientUnits="userSpaceOnUse"
       x1="1366.7981"
       y1="630.44397"
       x2="1366.7981"
       y2="70.627831"
       gradientTransform="translate(-4.3012538,19.667584)" /><filter
       style="color-interpolation-filters:sRGB"
       inkscape:label="Drop Shadow"
       id="filter19"
       x="-0.12073476"
       y="-0.094777854"
       width="1.2414695"
       height="1.1895557"><feFlood
         result="flood"
         in="SourceGraphic"
         flood-opacity="1.000000"
         flood-color="rgb(255,0,255)"
         id="feFlood18" /><feGaussianBlur
         result="blur"
         in="SourceGraphic"
         stdDeviation="6.000000"
         id="feGaussianBlur18" /><feOffset
         result="offset"
         in="blur"
         dx="0.000000"
         dy="0.000000"
         id="feOffset18" /><feComposite
         result="comp1"
         operator="in"
         in="flood"
         in2="offset"
         id="feComposite18" /><feComposite
         result="comp2"
         operator="over"
         in="SourceGraphic"
         in2="comp1"
         id="feComposite19" /></filter></defs><sodipodi:namedview
     id="namedview35"
     pagecolor="#ffffff"
     bordercolor="#000000"
     borderopacity="0.25"
     inkscape:showpageshadow="2"
     inkscape:pageopacity="0.0"
     inkscape:pagecheckerboard="0"
     inkscape:deskcolor="#d1d1d1"
     inkscape:zoom="1.5253526"
     inkscape:cx="121.93902"
     inkscape:cy="149.80143"
     inkscape:window-width="1456"
     inkscape:window-height="854"
     inkscape:window-x="0"
     inkscape:window-y="38"
     inkscape:window-maximized="0"
     inkscape:current-layer="layer1"
     showguides="true"
     showgrid="false"><sodipodi:guide
       position="-998.60279,179.88473"
       orientation="1,0"
       id="guide56"
       inkscape:locked="false" /></sodipodi:namedview><g
     inkscape:groupmode="layer"
     id="layer1"
     inkscape:label="Vintage"
     style="fill:url(#linearGradient52);stroke:#000000;stroke-width:2;stroke-linecap:round;stroke-linejoin:round;stroke-dasharray:none;stroke-opacity:1;filter:url(#filter60)"
     transform="matrix(0.4,0,0,0.4,-67.227097,-25.773466)"><path
       d="m 300.04175,520.80058 -124.918,-401.384 h 100.346 l 90.235,291.561 246.482,-291.561 h 99.788 l -340.018,401.384 z"
       style="clip-rule:evenodd;fill:url(#linearGradient1);fill-rule:nonzero;stroke:#000000;stroke-width:2;stroke-linecap:round;stroke-linejoin:round;stroke-miterlimit:2;stroke-dasharray:none;stroke-opacity:1"
       id="path1" /><path
       d="m 300.04175,520.80058 -124.918,-401.384 h 100.346 l 90.235,291.561 246.482,-291.561 h 99.788 l -340.018,401.384 z"
       style="clip-rule:evenodd;fill:url(#linearGradient8);fill-rule:nonzero;stroke:#000000;stroke-width:2;stroke-linecap:round;stroke-linejoin:round;stroke-miterlimit:2;stroke-dasharray:none;stroke-opacity:1"
       id="path8" /><path
       d="m 300.04175,520.80058 -124.918,-401.384 h 100.346 l 90.235,291.561 246.482,-291.561 h 99.788 l -340.018,401.384 z"
       style="clip-rule:evenodd;fill:url(#linearGradient15);fill-rule:nonzero;stroke:#000000;stroke-width:2;stroke-linecap:round;stroke-linejoin:round;stroke-miterlimit:2;stroke-dasharray:none;stroke-opacity:1"
       id="path15" /></g><g
     inkscape:groupmode="layer"
     id="layer2"
     inkscape:label="Reality"
     style="display:inline;filter:url(#filter47)"
     transform="matrix(0.4,0,0,0.4,-67.227097,-25.773466)"><path
       d="m 466.40975,557.52858 c -1.403,0.558 -2.684,-0.292 -3.843,-2.55 -1.158,-2.258 -2.457,-4.417 -3.895,-6.476 l 4.644,-0.883 c -2.055,-6.024 -2.626,-11.82 -1.713,-17.388 0.914,-5.568 2.04,-11.03 3.38,-16.387 1.339,-5.358 2.469,-10.529 3.39,-15.516 0.921,-4.986 0.362,-9.909 -1.677,-14.77 1.418,0.605 2.469,0.041 3.151,-1.692 0.682,-1.734 1.218,-3.877 1.607,-6.429 0.39,-2.552 0.496,-5.197 0.318,-7.933 -0.177,-2.736 -0.418,-4.95 -0.723,-6.642 3.539,-9.712 6.299,-19.567 8.282,-29.566 1.983,-9.999 3.756,-19.885 5.319,-29.659 1.563,-9.773 3.341,-19.296 5.333,-28.568 1.993,-9.272 4.626,-18.155 7.898,-26.65 3.932,-1.33 8.09,-1.61 12.473,-0.84 4.383,0.771 7.294,2.186 8.732,4.245 8.631,-8.638 16.258,-18.544 22.88,-29.716 6.623,-11.173 13.318,-22.14 20.087,-32.903 6.769,-10.763 14.467,-20.609 23.095,-29.539 8.627,-8.929 19.403,-15.351 32.329,-19.265 6.82,3.66 14.488,7.524 23.006,11.591 8.518,4.067 15.506,9.809 20.965,17.228 2.271,1.026 10.937,5.648 13.208,6.674 l 0.087,6.544 c 3.99,3.032 7.356,6.839 10.097,11.421 2.741,4.581 5.205,9.507 7.391,14.778 2.186,5.27 4.302,10.627 6.349,16.069 2.048,5.443 4.371,10.395 6.969,14.858 -0.54,1.852 -0.73,3.419 -0.572,4.701 0.158,1.282 0.457,2.538 0.896,3.766 0.44,1.229 0.811,2.616 1.113,4.162 0.303,1.547 0.47,3.483 0.501,5.81 -0.921,15.629 -5.61,28.985 -14.067,40.069 -8.458,11.084 -18.768,20.77 -30.93,29.059 -12.162,8.289 -25.11,15.853 -38.843,22.691 -13.733,6.838 -26.195,13.799 -37.386,20.883 0.015,1.164 0.656,1.625 1.922,1.384 1.267,-0.24 1.63,0.565 1.091,2.417 8.512,3.631 15.111,6.605 19.796,8.921 4.686,2.317 9.084,4.178 13.193,5.584 4.11,1.406 8.637,2.368 13.581,2.886 4.944,0.518 11.791,0.966 20.542,1.344 8.751,0.378 15.598,0.753 20.54,1.126 4.942,0.373 9.388,0.548 13.337,0.526 3.95,-0.021 8.18,-0.169 12.69,-0.443 4.511,-0.274 10.571,-0.697 18.18,-1.269 3.139,2.611 5.722,5.911 7.749,9.899 2.028,3.988 3.493,8.083 4.396,12.286 0.902,4.202 1.168,8.306 0.798,12.313 -0.37,4.007 -1.524,7.361 -3.463,10.062 0.297,1.11 1.077,1.471 2.342,1.085 1.264,-0.386 2.602,-0.567 4.013,-0.544 -1.951,1.829 -3.616,3.895 -4.996,6.198 -1.38,2.304 -2.76,4.607 -4.14,6.91 -1.38,2.304 -2.973,4.502 -4.779,6.595 -1.806,2.092 -4.114,3.552 -6.924,4.377 -10.077,5.998 -23.02,8.604 -38.83,7.818 -15.809,-0.786 -36.019,-3.651 -60.63,-8.595 -12.163,-2.354 -22.068,-4.699 -29.717,-7.036 -7.648,-2.337 -14.311,-4.788 -19.987,-7.354 -5.677,-2.566 -10.935,-5.503 -15.776,-8.811 -4.84,-3.308 -10.394,-7.282 -16.662,-11.922 -0.841,0.452 -1.326,1.127 -1.455,2.026 -0.129,0.899 -0.613,1.575 -1.454,2.026 -1.252,11.901 -3.308,21.768 -6.166,29.601 -2.858,7.833 -7.051,16.065 -12.579,24.697 -4.514,-0.017 -7.533,0.994 -9.058,3.034 -1.524,2.039 -3.403,4 -5.635,5.882 -2.806,1.116 -4.918,1.445 -6.334,0.985 -1.417,-0.46 -2.694,-1.019 -3.831,-1.677 -1.138,-0.659 -2.416,-1.291 -3.834,-1.896 -1.419,-0.605 -3.674,-0.468 -6.766,0.411 -0.879,-2.457 -1.757,-4.841 -2.634,-7.153 -0.877,-2.312 -3.143,-2.974 -6.798,-1.988 0.81,-2.778 1.061,-5.086 0.755,-6.923 -0.307,-1.837 -0.752,-3.502 -1.336,-4.994 -0.584,-1.493 -1.099,-3.072 -1.544,-4.737 -0.446,-1.665 -0.262,-3.741 0.552,-6.228 z m 138.338,-226.172 c -3.585,6.221 -7.599,12.014 -12.042,17.378 -4.443,5.364 -8.813,10.86 -13.111,16.488 -4.298,5.628 -8.098,11.598 -11.4,17.912 -3.301,6.313 -5.603,13.53 -6.906,21.65 11.8,-3.7 24.137,-9.471 37.01,-17.312 12.874,-7.842 25.047,-15.331 36.519,-22.468 -1.55,-10.494 -5.323,-18.451 -11.32,-23.872 -5.997,-5.421 -12.247,-8.68 -18.75,-9.776 z"
       style="clip-rule:evenodd;fill:#ff00ff;fill-rule:nonzero;stroke-linejoin:round;stroke-miterlimit:2"
       id="path29" /><g
       id="g28"
       style="clip-rule:evenodd;fill-rule:evenodd;stroke-linejoin:round;stroke-miterlimit:2;filter:url(#filter19)"
       transform="translate(-890.56025,-350.55042)"><path
         d="m 1356.97,908.079 c -1.403,0.558 -2.684,-0.292 -3.843,-2.55 -1.158,-2.258 -2.457,-4.417 -3.895,-6.476 l 4.644,-0.883 c -2.055,-6.024 -2.626,-11.82 -1.713,-17.388 0.914,-5.568 2.04,-11.03 3.38,-16.387 1.339,-5.358 2.469,-10.529 3.39,-15.516 0.921,-4.986 0.362,-9.909 -1.677,-14.77 1.418,0.605 2.469,0.041 3.151,-1.692 0.682,-1.734 1.218,-3.877 1.607,-6.429 0.39,-2.552 0.496,-5.197 0.318,-7.933 -0.177,-2.736 -0.418,-4.95 -0.723,-6.642 3.539,-9.712 6.299,-19.567 8.282,-29.566 1.983,-9.999 3.756,-19.885 5.319,-29.659 1.563,-9.773 3.341,-19.296 5.333,-28.568 1.993,-9.272 4.626,-18.155 7.898,-26.65 3.932,-1.33 8.09,-1.61 12.473,-0.84 4.383,0.771 7.294,2.186 8.732,4.245 8.631,-8.638 16.258,-18.544 22.88,-29.716 6.623,-11.173 13.318,-22.14 20.087,-32.903 6.769,-10.763 14.467,-20.609 23.095,-29.539 8.627,-8.929 19.403,-15.351 32.329,-19.265 6.82,3.66 14.488,7.524 23.006,11.591 8.518,4.067 15.506,9.809 20.965,17.228 2.271,1.026 10.937,5.648 13.208,6.674 l 0.087,6.544 c 3.99,3.032 7.356,6.839 10.097,11.421 2.741,4.581 5.205,9.507 7.391,14.778 2.186,5.27 4.302,10.627 6.349,16.069 2.048,5.443 4.371,10.395 6.969,14.858 -0.54,1.852 -0.73,3.419 -0.572,4.701 0.158,1.282 0.457,2.538 0.896,3.766 0.44,1.229 0.811,2.616 1.113,4.162 0.303,1.547 0.47,3.483 0.501,5.81 -0.921,15.629 -5.61,28.985 -14.067,40.069 -8.458,11.084 -18.768,20.77 -30.93,29.059 -12.162,8.289 -25.11,15.853 -38.843,22.691 -13.733,6.838 -26.195,13.799 -37.386,20.883 0.015,1.164 0.656,1.625 1.922,1.384 1.267,-0.24 1.63,0.565 1.091,2.417 8.512,3.631 15.111,6.605 19.796,8.921 4.686,2.317 9.084,4.178 13.193,5.584 4.11,1.406 8.637,2.368 13.581,2.886 4.944,0.518 11.791,0.966 20.542,1.344 8.751,0.378 15.598,0.753 20.54,1.126 4.942,0.373 9.388,0.548 13.337,0.526 3.95,-0.021 8.18,-0.169 12.69,-0.443 4.511,-0.274 10.571,-0.697 18.18,-1.269 3.139,2.611 5.722,5.911 7.749,9.899 2.028,3.988 3.493,8.083 4.396,12.286 0.902,4.202 1.168,8.306 0.798,12.313 -0.37,4.007 -1.524,7.361 -3.463,10.062 0.297,1.11 1.077,1.471 2.342,1.085 1.264,-0.386 2.602,-0.567 4.013,-0.544 -1.951,1.829 -3.616,3.895 -4.996,6.198 -1.38,2.304 -2.76,4.607 -4.14,6.91 -1.38,2.304 -2.973,4.502 -4.779,6.595 -1.806,2.092 -4.114,3.552 -6.924,4.377 -10.077,5.998 -23.02,8.604 -38.83,7.818 -15.809,-0.786 -36.019,-3.651 -60.63,-8.595 -12.163,-2.354 -22.068,-4.699 -29.717,-7.036 -7.648,-2.337 -14.311,-4.788 -19.987,-7.354 -5.677,-2.566 -10.935,-5.503 -15.776,-8.811 -4.84,-3.308 -10.394,-7.282 -16.662,-11.922 -0.841,0.452 -1.326,1.127 -1.455,2.026 -0.129,0.899 -0.613,1.575 -1.454,2.026 -1.252,11.901 -3.308,21.768 -6.166,29.601 -2.858,7.833 -7.051,16.065 -12.579,24.697 -4.514,-0.017 -7.533,0.994 -9.058,3.034 -1.524,2.039 -3.403,4 -5.635,5.882 -2.806,1.116 -4.918,1.445 -6.334,0.985 -1.417,-0.46 -2.694,-1.019 -3.831,-1.677 -1.138,-0.659 -2.416,-1.291 -3.834,-1.896 -1.419,-0.605 -3.674,-0.468 -6.766,0.411 -0.879,-2.457 -1.757,-4.841 -2.634,-7.153 -0.877,-2.312 -3.143,-2.974 -6.798,-1.988 0.81,-2.778 1.061,-5.086 0.755,-6.923 -0.307,-1.837 -0.752,-3.502 -1.336,-4.994 -0.584,-1.493 -1.099,-3.072 -1.544,-4.737 -0.446,-1.665 -0.262,-3.741 0.552,-6.228 z m 138.338,-226.172 c -3.585,6.221 -7.599,12.014 -12.042,17.378 -4.443,5.364 -8.813,10.86 -13.111,16.488 -4.298,5.628 -8.098,11.598 -11.4,17.912 -3.301,6.313 -5.603,13.53 -6.906,21.65 11.8,-3.7 24.137,-9.471 37.01,-17.312 12.874,-7.842 25.047,-15.331 36.519,-22.468 -1.55,-10.494 -5.323,-18.451 -11.32,-23.872 -5.997,-5.421 -12.247,-8.68 -18.75,-9.776 z"
         style="fill:#ff00ff;fill-rule:nonzero;filter:url(#filter56)"
         id="path22" /></g></g></svg>
