<?xml version="1.0" encoding="UTF-8" standalone="no"?>
<svg
   width="1138.116"
   height="400.47607"
   viewBox="0 0 1138.116 400.47607"
   version="1.1"
   xml:space="preserve"
   style="clip-rule:evenodd;fill-rule:evenodd;stroke-linejoin:round;stroke-miterlimit:2"
   id="svg35"
   sodipodi:docname="Vintage.svg"
   inkscape:version="1.3 (0e150ed, 2023-07-21)"
   xmlns:inkscape="http://www.inkscape.org/namespaces/inkscape"
   xmlns:sodipodi="http://sodipodi.sourceforge.net/DTD/sodipodi-0.dtd"
   xmlns:xlink="http://www.w3.org/1999/xlink"
   xmlns="http://www.w3.org/2000/svg"
   xmlns:svg="http://www.w3.org/2000/svg"><defs
     id="defs35"><linearGradient
       id="linearGradient51"
       inkscape:collect="always"><stop
         style="stop-color:#000000;stop-opacity:1;"
         offset="0"
         id="stop51" /><stop
         style="stop-color:#000000;stop-opacity:1;"
         offset="0.247851"
         id="stop53" /><stop
         style="stop-color:#00ffff;stop-opacity:1;"
         offset="0.52796561"
         id="stop54" /><stop
         style="stop-color:#ff00ff;stop-opacity:1;"
         offset="0.52999997"
         id="stop55" /><stop
         style="stop-color:#000000;stop-opacity:1;"
         offset="0.75035816"
         id="stop56" /><stop
         style="stop-color:#000000;stop-opacity:1;"
         offset="1"
         id="stop52" /></linearGradient><filter
       style="color-interpolation-filters:sRGB"
       inkscape:label="Drop Shadow"
       id="filter47"
       x="-0.037260258"
       y="-0.10318028"
       width="1.0893987"
       height="1.247561"
       inkscape:menu="Shadows and Glows"
       inkscape:menu-tooltip="Cut out, add inner shadow and colorize some parts of an image"><feFlood
         result="flood"
         in="SourceGraphic"
         flood-opacity="1.000000"
         flood-color="rgb(0,255,255)"
         id="feFlood46" /><feGaussianBlur
         result="blur"
         in="SourceGraphic"
         stdDeviation="0.000000"
         id="feGaussianBlur46" /><feOffset
         result="offset"
         in="blur"
         dx="20.000000"
         dy="20.000000"
         id="feOffset46" /><feComposite
         result="comp1"
         operator="in"
         in="flood"
         in2="offset"
         id="feComposite46" /><feComposite
         result="fbSourceGraphic"
         operator="over"
         in="SourceGraphic"
         in2="comp1"
         id="feComposite47" /><feColorMatrix
         result="fbSourceGraphicAlpha"
         in="fbSourceGraphic"
         values="0 0 0 -1 0 0 0 0 -1 0 0 0 0 -1 0 0 0 0 1 0"
         id="feColorMatrix66" /><feColorMatrix
         id="feColorMatrix67"
         values="0 0 0 0 0 0 0 0 0 0 0 0 0 0 0 0.21 0.72 0.07 0 0 "
         result="result1"
         in="fbSourceGraphic" /><feColorMatrix
         id="feColorMatrix68"
         values="1 0 0 0 0 0 1 0 0 0 0 0 1 0 0 0 0 0 2 0 "
         result="result9" /><feComposite
         id="feComposite68"
         in2="result9"
         in="fbSourceGraphic"
         operator="in"
         result="result4" /><feFlood
         id="feFlood68"
         result="result2"
         flood-color="rgb(0,0,0)" /><feComposite
         id="feComposite69"
         in2="result9"
         operator="in"
         result="result10" /><feComposite
         id="feComposite70"
         in2="result4"
         operator="atop" /><feGaussianBlur
         id="feGaussianBlur70"
         stdDeviation="3"
         result="result8" /><feOffset
         id="feOffset70"
         dx="3"
         dy="3"
         result="result3"
         in="result8" /><feFlood
         id="feFlood70"
         flood-opacity="1"
         flood-color="rgb(219,173,62)"
         result="result5" /><feMerge
         id="feMerge70"
         result="result6"><feMergeNode
           id="feMergeNode70"
           in="result5" /><feMergeNode
           id="feMergeNode71"
           in="result3" /><feMergeNode
           id="feMergeNode72"
           in="result4" /></feMerge><feComposite
         id="feComposite72"
         in2="fbSourceGraphic"
         operator="in"
         result="fbSourceGraphic" /><feColorMatrix
         result="fbSourceGraphicAlpha"
         in="fbSourceGraphic"
         values="0 0 0 -1 0 0 0 0 -1 0 0 0 0 -1 0 0 0 0 1 0"
         id="feColorMatrix84" /><feFlood
         id="feFlood84"
         result="flood"
         in="fbSourceGraphic"
         flood-opacity="1.000000"
         flood-color="rgb(255,0,255)" /><feGaussianBlur
         id="feGaussianBlur84"
         result="blur"
         in="fbSourceGraphic"
         stdDeviation="7.000000" /><feOffset
         id="feOffset84"
         result="offset"
         in="blur"
         dx="0.000000"
         dy="0.000000" /><feComposite
         id="feComposite84"
         result="comp1"
         operator="out"
         in="flood"
         in2="offset" /><feComposite
         id="feComposite85"
         result="comp2"
         operator="atop"
         in="comp1"
         in2="fbSourceGraphic" /></filter><linearGradient
       inkscape:collect="always"
       xlink:href="#linearGradient51"
       id="linearGradient52"
       x1="1366.7981"
       y1="630.44397"
       x2="1366.7981"
       y2="70.627831"
       gradientUnits="userSpaceOnUse" /><filter
       style="color-interpolation-filters:sRGB"
       inkscape:label="Drop Shadow"
       id="filter60"
       x="-0.021155326"
       y="-0.087983912"
       width="1.0423099"
       height="1.1759678"><feFlood
         result="flood"
         in="SourceGraphic"
         flood-opacity="1.000000"
         flood-color="rgb(0,255,255)"
         id="feFlood59" /><feGaussianBlur
         result="blur"
         in="SourceGraphic"
         stdDeviation="20.000000"
         id="feGaussianBlur59" /><feOffset
         result="offset"
         in="blur"
         dx="0.000000"
         dy="0.000000"
         id="feOffset59" /><feComposite
         result="comp1"
         operator="in"
         in="flood"
         in2="offset"
         id="feComposite59" /><feComposite
         result="comp2"
         operator="over"
         in="SourceGraphic"
         in2="comp1"
         id="feComposite60" /></filter><filter
       style="color-interpolation-filters:sRGB"
       inkscape:label="Drop Shadow"
       id="filter56"
       x="-0.06899129"
       y="-0.054158775"
       width="1.1379826"
       height="1.1083175"><feFlood
         result="flood"
         in="SourceGraphic"
         flood-opacity="1.000000"
         flood-color="rgb(255,0,255)"
         id="feFlood55" /><feGaussianBlur
         result="blur"
         in="SourceGraphic"
         stdDeviation="8.000000"
         id="feGaussianBlur55" /><feOffset
         result="offset"
         in="blur"
         dx="0.000000"
         dy="0.000000"
         id="feOffset55" /><feComposite
         result="comp1"
         operator="in"
         in="flood"
         in2="offset"
         id="feComposite55" /><feComposite
         result="comp2"
         operator="over"
         in="SourceGraphic"
         in2="comp1"
         id="feComposite56" /></filter><filter
       style="color-interpolation-filters:sRGB"
       inkscape:label="Drop Shadow"
       id="filter58"
       x="-0.083618408"
       y="-0.063817284"
       width="1.1672368"
       height="1.1276346"><feFlood
         result="flood"
         in="SourceGraphic"
         flood-opacity="1.000000"
         flood-color="rgb(255,0,255)"
         id="feFlood56" /><feGaussianBlur
         result="blur"
         in="SourceGraphic"
         stdDeviation="8.000000"
         id="feGaussianBlur56" /><feOffset
         result="offset"
         in="blur"
         dx="0.000000"
         dy="0.000000"
         id="feOffset56" /><feComposite
         result="comp1"
         operator="in"
         in="flood"
         in2="offset"
         id="feComposite57" /><feComposite
         result="comp2"
         operator="over"
         in="SourceGraphic"
         in2="comp1"
         id="feComposite58" /></filter><filter
       style="color-interpolation-filters:sRGB"
       inkscape:label="Drop Shadow"
       id="filter62"
       x="-0.072958307"
       y="-0.065149454"
       width="1.1459166"
       height="1.1302989"><feFlood
         result="flood"
         in="SourceGraphic"
         flood-opacity="1.000000"
         flood-color="rgb(255,0,255)"
         id="feFlood58" /><feGaussianBlur
         result="blur"
         in="SourceGraphic"
         stdDeviation="8.000000"
         id="feGaussianBlur58" /><feOffset
         result="offset"
         in="blur"
         dx="0.000000"
         dy="0.000000"
         id="feOffset58" /><feComposite
         result="comp1"
         operator="in"
         in="flood"
         in2="offset"
         id="feComposite61" /><feComposite
         result="comp2"
         operator="over"
         in="SourceGraphic"
         in2="comp1"
         id="feComposite62" /></filter><filter
       style="color-interpolation-filters:sRGB"
       inkscape:label="Drop Shadow"
       id="filter64"
       x="-0.088097956"
       y="-0.06834662"
       width="1.1761959"
       height="1.1366932"><feFlood
         result="flood"
         in="SourceGraphic"
         flood-opacity="1.000000"
         flood-color="rgb(255,0,255)"
         id="feFlood62" /><feGaussianBlur
         result="blur"
         in="SourceGraphic"
         stdDeviation="8.000000"
         id="feGaussianBlur62" /><feOffset
         result="offset"
         in="blur"
         dx="0.000000"
         dy="0.000000"
         id="feOffset62" /><feComposite
         result="comp1"
         operator="in"
         in="flood"
         in2="offset"
         id="feComposite63" /><feComposite
         result="comp2"
         operator="over"
         in="SourceGraphic"
         in2="comp1"
         id="feComposite64" /></filter><filter
       style="color-interpolation-filters:sRGB"
       inkscape:label="Drop Shadow"
       id="filter66"
       x="-0.20972375"
       y="-0.068332995"
       width="1.4194475"
       height="1.136666"><feFlood
         result="flood"
         in="SourceGraphic"
         flood-opacity="1.000000"
         flood-color="rgb(255,0,255)"
         id="feFlood64" /><feGaussianBlur
         result="blur"
         in="SourceGraphic"
         stdDeviation="8.000000"
         id="feGaussianBlur64" /><feOffset
         result="offset"
         in="blur"
         dx="0.000000"
         dy="0.000000"
         id="feOffset64" /><feComposite
         result="comp1"
         operator="in"
         in="flood"
         in2="offset"
         id="feComposite65" /><feComposite
         result="comp2"
         operator="over"
         in="SourceGraphic"
         in2="comp1"
         id="feComposite66" /></filter><filter
       style="color-interpolation-filters:sRGB"
       inkscape:label="Drop Shadow"
       id="filter71"
       x="-0.068422541"
       y="-0.062032535"
       width="1.1368451"
       height="1.1240651"><feFlood
         result="flood"
         in="SourceGraphic"
         flood-opacity="1.000000"
         flood-color="rgb(255,0,255)"
         id="feFlood66" /><feGaussianBlur
         result="blur"
         in="SourceGraphic"
         stdDeviation="8.000000"
         id="feGaussianBlur66" /><feOffset
         result="offset"
         in="blur"
         dx="0.000000"
         dy="0.000000"
         id="feOffset66" /><feComposite
         result="comp1"
         operator="in"
         in="flood"
         in2="offset"
         id="feComposite67" /><feComposite
         result="comp2"
         operator="over"
         in="SourceGraphic"
         in2="comp1"
         id="feComposite71" /></filter><filter
       style="color-interpolation-filters:sRGB"
       inkscape:label="Drop Shadow"
       id="filter74"
       x="-0.096110046"
       y="-0.061183186"
       width="1.1922201"
       height="1.1223664"><feFlood
         result="flood"
         in="SourceGraphic"
         flood-opacity="1.000000"
         flood-color="rgb(255,0,255)"
         id="feFlood71" /><feGaussianBlur
         result="blur"
         in="SourceGraphic"
         stdDeviation="8.000000"
         id="feGaussianBlur71" /><feOffset
         result="offset"
         in="blur"
         dx="0.000000"
         dy="0.000000"
         id="feOffset71" /><feComposite
         result="comp1"
         operator="in"
         in="flood"
         in2="offset"
         id="feComposite73" /><feComposite
         result="comp2"
         operator="over"
         in="SourceGraphic"
         in2="comp1"
         id="feComposite74" /></filter><linearGradient
       inkscape:collect="always"
       xlink:href="#linearGradient51"
       id="linearGradient1"
       gradientUnits="userSpaceOnUse"
       x1="1366.7981"
       y1="630.44397"
       x2="1366.7981"
       y2="70.627831" /><linearGradient
       inkscape:collect="always"
       xlink:href="#linearGradient51"
       id="linearGradient2"
       gradientUnits="userSpaceOnUse"
       x1="1366.7981"
       y1="630.44397"
       x2="1366.7981"
       y2="70.627831" /><linearGradient
       inkscape:collect="always"
       xlink:href="#linearGradient51"
       id="linearGradient3"
       gradientUnits="userSpaceOnUse"
       x1="1366.7981"
       y1="630.44397"
       x2="1366.7981"
       y2="70.627831" /><linearGradient
       inkscape:collect="always"
       xlink:href="#linearGradient51"
       id="linearGradient4"
       gradientUnits="userSpaceOnUse"
       x1="1366.7981"
       y1="630.44397"
       x2="1366.7981"
       y2="70.627831" /><linearGradient
       inkscape:collect="always"
       xlink:href="#linearGradient51"
       id="linearGradient5"
       gradientUnits="userSpaceOnUse"
       x1="1366.7981"
       y1="630.44397"
       x2="1366.7981"
       y2="70.627831" /><linearGradient
       inkscape:collect="always"
       xlink:href="#linearGradient51"
       id="linearGradient6"
       gradientUnits="userSpaceOnUse"
       x1="1366.7981"
       y1="630.44397"
       x2="1366.7981"
       y2="70.627831" /><linearGradient
       inkscape:collect="always"
       xlink:href="#linearGradient51"
       id="linearGradient7"
       gradientUnits="userSpaceOnUse"
       x1="1366.7981"
       y1="630.44397"
       x2="1366.7981"
       y2="70.627831" /><linearGradient
       inkscape:collect="always"
       xlink:href="#linearGradient51"
       id="linearGradient8"
       gradientUnits="userSpaceOnUse"
       x1="1366.7981"
       y1="630.44397"
       x2="1366.7981"
       y2="70.627831" /><linearGradient
       inkscape:collect="always"
       xlink:href="#linearGradient51"
       id="linearGradient9"
       gradientUnits="userSpaceOnUse"
       x1="1366.7981"
       y1="630.44397"
       x2="1366.7981"
       y2="70.627831" /><linearGradient
       inkscape:collect="always"
       xlink:href="#linearGradient51"
       id="linearGradient10"
       gradientUnits="userSpaceOnUse"
       x1="1366.7981"
       y1="630.44397"
       x2="1366.7981"
       y2="70.627831" /><linearGradient
       inkscape:collect="always"
       xlink:href="#linearGradient51"
       id="linearGradient11"
       gradientUnits="userSpaceOnUse"
       x1="1366.7981"
       y1="630.44397"
       x2="1366.7981"
       y2="70.627831" /><linearGradient
       inkscape:collect="always"
       xlink:href="#linearGradient51"
       id="linearGradient12"
       gradientUnits="userSpaceOnUse"
       x1="1366.7981"
       y1="630.44397"
       x2="1366.7981"
       y2="70.627831" /><linearGradient
       inkscape:collect="always"
       xlink:href="#linearGradient51"
       id="linearGradient13"
       gradientUnits="userSpaceOnUse"
       x1="1366.7981"
       y1="630.44397"
       x2="1366.7981"
       y2="70.627831" /><linearGradient
       inkscape:collect="always"
       xlink:href="#linearGradient51"
       id="linearGradient14"
       gradientUnits="userSpaceOnUse"
       x1="1366.7981"
       y1="630.44397"
       x2="1366.7981"
       y2="70.627831" /><linearGradient
       inkscape:collect="always"
       xlink:href="#linearGradient51"
       id="linearGradient15"
       gradientUnits="userSpaceOnUse"
       x1="1366.7981"
       y1="630.44397"
       x2="1366.7981"
       y2="70.627831" /><linearGradient
       inkscape:collect="always"
       xlink:href="#linearGradient51"
       id="linearGradient16"
       gradientUnits="userSpaceOnUse"
       x1="1366.7981"
       y1="630.44397"
       x2="1366.7981"
       y2="70.627831" /><linearGradient
       inkscape:collect="always"
       xlink:href="#linearGradient51"
       id="linearGradient17"
       gradientUnits="userSpaceOnUse"
       x1="1366.7981"
       y1="630.44397"
       x2="1366.7981"
       y2="70.627831" /><linearGradient
       inkscape:collect="always"
       xlink:href="#linearGradient51"
       id="linearGradient18"
       gradientUnits="userSpaceOnUse"
       x1="1366.7981"
       y1="630.44397"
       x2="1366.7981"
       y2="70.627831" /><linearGradient
       inkscape:collect="always"
       xlink:href="#linearGradient51"
       id="linearGradient19"
       gradientUnits="userSpaceOnUse"
       x1="1366.7981"
       y1="630.44397"
       x2="1366.7981"
       y2="70.627831" /><linearGradient
       inkscape:collect="always"
       xlink:href="#linearGradient51"
       id="linearGradient20"
       gradientUnits="userSpaceOnUse"
       x1="1366.7981"
       y1="630.44397"
       x2="1366.7981"
       y2="70.627831" /><linearGradient
       inkscape:collect="always"
       xlink:href="#linearGradient51"
       id="linearGradient21"
       gradientUnits="userSpaceOnUse"
       x1="1366.7981"
       y1="630.44397"
       x2="1366.7981"
       y2="70.627831" /><filter
       style="color-interpolation-filters:sRGB"
       inkscape:label="Drop Shadow"
       id="filter19"
       x="-0.02173515"
       y="-0.060188498"
       width="1.0434703"
       height="1.120377"><feFlood
         result="flood"
         in="SourceGraphic"
         flood-opacity="1.000000"
         flood-color="rgb(255,0,255)"
         id="feFlood18" /><feGaussianBlur
         result="blur"
         in="SourceGraphic"
         stdDeviation="6.000000"
         id="feGaussianBlur18" /><feOffset
         result="offset"
         in="blur"
         dx="0.000000"
         dy="0.000000"
         id="feOffset18" /><feComposite
         result="comp1"
         operator="in"
         in="flood"
         in2="offset"
         id="feComposite18" /><feComposite
         result="comp2"
         operator="over"
         in="SourceGraphic"
         in2="comp1"
         id="feComposite19" /></filter></defs><sodipodi:namedview
     id="namedview35"
     pagecolor="#ffffff"
     bordercolor="#000000"
     borderopacity="0.25"
     inkscape:showpageshadow="2"
     inkscape:pageopacity="0.0"
     inkscape:pagecheckerboard="0"
     inkscape:deskcolor="#d1d1d1"
     inkscape:zoom="0.52001865"
     inkscape:cx="476.90597"
     inkscape:cy="256.72156"
     inkscape:window-width="1456"
     inkscape:window-height="854"
     inkscape:window-x="0"
     inkscape:window-y="38"
     inkscape:window-maximized="0"
     inkscape:current-layer="layer1"
     showguides="true"
     showgrid="false"><sodipodi:guide
       position="-983.54569,323.73734"
       orientation="1,0"
       id="guide56"
       inkscape:locked="false" /></sodipodi:namedview><g
     inkscape:groupmode="layer"
     id="layer1"
     inkscape:label="Vintage"
     style="fill:url(#linearGradient52);stroke:#000000;stroke-width:2;stroke-linecap:round;stroke-linejoin:round;stroke-dasharray:none;stroke-opacity:1;filter:url(#filter60)"
     transform="matrix(0.4,0,0,0.4,-52.170015,-9.1499995)"><path
       d="M 304.343,501.133 179.425,99.749 H 279.771 L 370.006,391.31 616.488,99.749 h 99.788 L 376.258,501.133 Z"
       style="clip-rule:evenodd;fill:url(#linearGradient1);fill-rule:nonzero;stroke:#000000;stroke-width:2;stroke-linecap:round;stroke-linejoin:round;stroke-miterlimit:2;stroke-dasharray:none;stroke-opacity:1"
       id="path1" /><path
       d="m 636.6,501.133 86.638,-323.337 h 85.294 l -86.638,323.337 z m 92.015,-343.406 23.004,-85.852 h 85.294 l -23.004,85.852 z"
       style="clip-rule:evenodd;fill:url(#linearGradient2);fill-rule:nonzero;stroke:#000000;stroke-width:2;stroke-linecap:round;stroke-linejoin:round;stroke-miterlimit:2;stroke-dasharray:none;stroke-opacity:1"
       id="path2" /><path
       d="m 741.405,501.133 86.638,-323.337 h 246.963 c 14.773,0 27.319,3.716 37.639,11.149 10.319,7.433 17.468,17.247 21.448,29.442 3.979,12.195 4.009,25.609 0.088,40.243 l -64.979,242.503 H 983.908 L 1047.692,263.09 H 890.483 L 826.7,501.133 Z"
       style="clip-rule:evenodd;fill:url(#linearGradient3);fill-rule:nonzero;stroke:#000000;stroke-width:2;stroke-linecap:round;stroke-linejoin:round;stroke-miterlimit:2;stroke-dasharray:none;stroke-opacity:1"
       id="path3" /><path
       d="m 1206.34,501.133 c -15.052,0 -27.668,-3.717 -37.848,-11.15 -10.18,-7.433 -17.353,-17.247 -21.518,-29.442 -4.166,-12.194 -4.288,-25.609 -0.367,-40.243 L 1237.278,81.91 h 85.295 l -25.693,95.886 h 119.858 l -22.855,85.294 h -119.858 l -40.929,152.749 h 119.858 l -22.854,85.294 z"
       style="clip-rule:evenodd;fill:url(#linearGradient4);fill-rule:nonzero;stroke:#000000;stroke-width:2;stroke-linecap:round;stroke-linejoin:round;stroke-miterlimit:2;stroke-dasharray:none;stroke-opacity:1"
       id="path4" /><path
       d="m 1429.89,501.133 c -14.773,0 -27.319,-3.717 -37.639,-11.15 -10.319,-7.433 -17.468,-17.247 -21.448,-29.442 -3.979,-12.194 -4.009,-25.609 -0.088,-40.243 l 33.162,-123.76 h 242.502 l 8.963,-33.448 h -242.503 l 22.855,-85.294 h 246.962 c 15.017,0 27.61,3.693 37.78,11.08 10.169,7.386 17.248,17.235 21.237,29.546 3.989,12.311 4.042,25.714 0.158,40.208 l -64.978,242.503 z m 27.314,-85.294 h 157.209 l 11.95,-44.599 h -157.209 z"
       style="clip-rule:evenodd;fill:url(#linearGradient5);fill-rule:nonzero;stroke:#000000;stroke-width:2;stroke-linecap:round;stroke-linejoin:round;stroke-miterlimit:2;stroke-dasharray:none;stroke-opacity:1"
       id="path5" /><path
       d="m 1742.99,628.795 23.003,-85.852 h 191.773 l 11.203,-41.81 H 1807.3 c -14.796,0 -27.372,-3.694 -37.727,-11.08 -10.355,-7.387 -17.582,-17.236 -21.681,-29.547 -4.1,-12.31 -4.208,-25.713 -0.324,-40.208 l 43.319,-161.668 c 3.921,-14.634 11.232,-28.048 21.933,-40.243 10.7,-12.195 23.202,-22.009 37.505,-29.442 14.302,-7.433 28.84,-11.149 43.613,-11.149 h 166.129 c 15.051,0 27.667,3.716 37.847,11.149 10.18,7.433 17.26,17.247 21.24,29.442 3.979,12.195 4.008,25.609 0.087,40.243 l -77.526,289.331 c -4.023,15.017 -11.252,28.6 -21.684,40.748 -10.433,12.148 -22.793,21.866 -37.08,29.154 -14.287,7.288 -28.863,10.932 -43.729,10.932 z m 91.067,-212.956 h 157.766 l 40.929,-152.749 h -157.766 z"
       style="clip-rule:evenodd;fill:url(#linearGradient6);fill-rule:nonzero;stroke:#000000;stroke-width:2;stroke-linecap:round;stroke-linejoin:round;stroke-miterlimit:2;stroke-dasharray:none;stroke-opacity:1"
       id="path6" /><path
       d="m 2180.81,501.133 c -14.633,0 -27.052,-3.717 -37.255,-11.15 -10.203,-7.433 -17.388,-17.247 -21.553,-29.442 -4.165,-12.194 -4.288,-25.609 -0.366,-40.243 l 43.318,-161.668 c 3.922,-14.634 11.232,-28.048 21.933,-40.243 10.701,-12.195 23.144,-22.009 37.331,-29.442 14.186,-7.433 28.596,-11.149 43.23,-11.149 h 166.128 c 15.018,0 27.611,3.693 37.78,11.08 10.169,7.386 17.248,17.235 21.237,29.546 3.989,12.311 4.042,25.714 0.158,40.208 l -33.161,123.76 h -242.503 l -8.962,33.449 h 242.502 l -22.854,85.294 z m 56.293,-193.445 h 157.209 l 11.95,-44.598 h -157.208 z"
       style="clip-rule:evenodd;fill:url(#linearGradient7);fill-rule:nonzero;stroke:#000000;stroke-width:2;stroke-linecap:round;stroke-linejoin:round;stroke-miterlimit:2;stroke-dasharray:none;stroke-opacity:1"
       id="path7" /><path
       d="M 304.343,501.133 179.425,99.749 H 279.771 L 370.006,391.31 616.488,99.749 h 99.788 L 376.258,501.133 Z"
       style="clip-rule:evenodd;fill:url(#linearGradient8);fill-rule:nonzero;stroke:#000000;stroke-width:2;stroke-linecap:round;stroke-linejoin:round;stroke-miterlimit:2;stroke-dasharray:none;stroke-opacity:1"
       id="path8" /><path
       d="m 636.6,501.133 86.638,-323.337 h 85.294 l -86.638,323.337 z m 92.015,-343.406 23.004,-85.852 h 85.294 l -23.004,85.852 z"
       style="clip-rule:evenodd;fill:url(#linearGradient9);fill-rule:nonzero;stroke:#000000;stroke-width:2;stroke-linecap:round;stroke-linejoin:round;stroke-miterlimit:2;stroke-dasharray:none;stroke-opacity:1"
       id="path9" /><path
       d="m 741.405,501.133 86.638,-323.337 h 246.963 c 14.773,0 27.319,3.716 37.639,11.149 10.319,7.433 17.468,17.247 21.448,29.442 3.979,12.195 4.009,25.609 0.088,40.243 l -64.979,242.503 H 983.908 L 1047.692,263.09 H 890.483 L 826.7,501.133 Z"
       style="clip-rule:evenodd;fill:url(#linearGradient10);fill-rule:nonzero;stroke:#000000;stroke-width:2;stroke-linecap:round;stroke-linejoin:round;stroke-miterlimit:2;stroke-dasharray:none;stroke-opacity:1"
       id="path10" /><path
       d="m 1206.34,501.133 c -15.052,0 -27.668,-3.717 -37.848,-11.15 -10.18,-7.433 -17.353,-17.247 -21.518,-29.442 -4.166,-12.194 -4.288,-25.609 -0.367,-40.243 L 1237.278,81.91 h 85.295 l -25.693,95.886 h 119.858 l -22.855,85.294 h -119.858 l -40.929,152.749 h 119.858 l -22.854,85.294 z"
       style="clip-rule:evenodd;fill:url(#linearGradient11);fill-rule:nonzero;stroke:#000000;stroke-width:2;stroke-linecap:round;stroke-linejoin:round;stroke-miterlimit:2;stroke-dasharray:none;stroke-opacity:1"
       id="path11" /><path
       d="m 1429.89,501.133 c -14.773,0 -27.319,-3.717 -37.639,-11.15 -10.319,-7.433 -17.468,-17.247 -21.448,-29.442 -3.979,-12.194 -4.009,-25.609 -0.088,-40.243 l 33.162,-123.76 h 242.502 l 8.963,-33.448 h -242.503 l 22.855,-85.294 h 246.962 c 15.017,0 27.61,3.693 37.78,11.08 10.169,7.386 17.248,17.235 21.237,29.546 3.989,12.311 4.042,25.714 0.158,40.208 l -64.978,242.503 z m 27.314,-85.294 h 157.209 l 11.95,-44.599 h -157.209 z"
       style="clip-rule:evenodd;fill:url(#linearGradient12);fill-rule:nonzero;stroke:#000000;stroke-width:2;stroke-linecap:round;stroke-linejoin:round;stroke-miterlimit:2;stroke-dasharray:none;stroke-opacity:1"
       id="path12" /><path
       d="m 1742.99,628.795 23.003,-85.852 h 191.773 l 11.203,-41.81 H 1807.3 c -14.796,0 -27.372,-3.694 -37.727,-11.08 -10.355,-7.387 -17.582,-17.236 -21.681,-29.547 -4.1,-12.31 -4.208,-25.713 -0.324,-40.208 l 43.319,-161.668 c 3.921,-14.634 11.232,-28.048 21.933,-40.243 10.7,-12.195 23.202,-22.009 37.505,-29.442 14.302,-7.433 28.84,-11.149 43.613,-11.149 h 166.129 c 15.051,0 27.667,3.716 37.847,11.149 10.18,7.433 17.26,17.247 21.24,29.442 3.979,12.195 4.008,25.609 0.087,40.243 l -77.526,289.331 c -4.023,15.017 -11.252,28.6 -21.684,40.748 -10.433,12.148 -22.793,21.866 -37.08,29.154 -14.287,7.288 -28.863,10.932 -43.729,10.932 z m 91.067,-212.956 h 157.766 l 40.929,-152.749 h -157.766 z"
       style="clip-rule:evenodd;fill:url(#linearGradient13);fill-rule:nonzero;stroke:#000000;stroke-width:2;stroke-linecap:round;stroke-linejoin:round;stroke-miterlimit:2;stroke-dasharray:none;stroke-opacity:1"
       id="path13" /><path
       d="m 2180.81,501.133 c -14.633,0 -27.052,-3.717 -37.255,-11.15 -10.203,-7.433 -17.388,-17.247 -21.553,-29.442 -4.165,-12.194 -4.288,-25.609 -0.366,-40.243 l 43.318,-161.668 c 3.922,-14.634 11.232,-28.048 21.933,-40.243 10.701,-12.195 23.144,-22.009 37.331,-29.442 14.186,-7.433 28.596,-11.149 43.23,-11.149 h 166.128 c 15.018,0 27.611,3.693 37.78,11.08 10.169,7.386 17.248,17.235 21.237,29.546 3.989,12.311 4.042,25.714 0.158,40.208 l -33.161,123.76 h -242.503 l -8.962,33.449 h 242.502 l -22.854,85.294 z m 56.293,-193.445 h 157.209 l 11.95,-44.598 h -157.208 z"
       style="clip-rule:evenodd;fill:url(#linearGradient14);fill-rule:nonzero;stroke:#000000;stroke-width:2;stroke-linecap:round;stroke-linejoin:round;stroke-miterlimit:2;stroke-dasharray:none;stroke-opacity:1"
       id="path14" /><path
       d="M 304.343,501.133 179.425,99.749 H 279.771 L 370.006,391.31 616.488,99.749 h 99.788 L 376.258,501.133 Z"
       style="clip-rule:evenodd;fill:url(#linearGradient15);fill-rule:nonzero;stroke:#000000;stroke-width:2;stroke-linecap:round;stroke-linejoin:round;stroke-miterlimit:2;stroke-dasharray:none;stroke-opacity:1"
       id="path15" /><path
       d="m 636.6,501.133 86.638,-323.337 h 85.294 l -86.638,323.337 z m 92.015,-343.406 23.004,-85.852 h 85.294 l -23.004,85.852 z"
       style="clip-rule:evenodd;fill:url(#linearGradient16);fill-rule:nonzero;stroke:#000000;stroke-width:2;stroke-linecap:round;stroke-linejoin:round;stroke-miterlimit:2;stroke-dasharray:none;stroke-opacity:1"
       id="path16" /><path
       d="m 741.405,501.133 86.638,-323.337 h 246.963 c 14.773,0 27.319,3.716 37.639,11.149 10.319,7.433 17.468,17.247 21.448,29.442 3.979,12.195 4.009,25.609 0.088,40.243 l -64.979,242.503 H 983.908 L 1047.692,263.09 H 890.483 L 826.7,501.133 Z"
       style="clip-rule:evenodd;fill:url(#linearGradient17);fill-rule:nonzero;stroke:#000000;stroke-width:2;stroke-linecap:round;stroke-linejoin:round;stroke-miterlimit:2;stroke-dasharray:none;stroke-opacity:1"
       id="path17" /><path
       d="m 1206.34,501.133 c -15.052,0 -27.668,-3.717 -37.848,-11.15 -10.18,-7.433 -17.353,-17.247 -21.518,-29.442 -4.166,-12.194 -4.288,-25.609 -0.367,-40.243 L 1237.278,81.91 h 85.295 l -25.693,95.886 h 119.858 l -22.855,85.294 h -119.858 l -40.929,152.749 h 119.858 l -22.854,85.294 z"
       style="clip-rule:evenodd;fill:url(#linearGradient18);fill-rule:nonzero;stroke:#000000;stroke-width:2;stroke-linecap:round;stroke-linejoin:round;stroke-miterlimit:2;stroke-dasharray:none;stroke-opacity:1"
       id="path18" /><path
       d="m 1429.89,501.133 c -14.773,0 -27.319,-3.717 -37.639,-11.15 -10.319,-7.433 -17.468,-17.247 -21.448,-29.442 -3.979,-12.194 -4.009,-25.609 -0.088,-40.243 l 33.162,-123.76 h 242.502 l 8.963,-33.448 h -242.503 l 22.855,-85.294 h 246.962 c 15.017,0 27.61,3.693 37.78,11.08 10.169,7.386 17.248,17.235 21.237,29.546 3.989,12.311 4.042,25.714 0.158,40.208 l -64.978,242.503 z m 27.314,-85.294 h 157.209 l 11.95,-44.599 h -157.209 z"
       style="clip-rule:evenodd;fill:url(#linearGradient19);fill-rule:nonzero;stroke:#000000;stroke-width:2;stroke-linecap:round;stroke-linejoin:round;stroke-miterlimit:2;stroke-dasharray:none;stroke-opacity:1"
       id="path19" /><path
       d="m 1742.99,628.795 23.003,-85.852 h 191.773 l 11.203,-41.81 H 1807.3 c -14.796,0 -27.372,-3.694 -37.727,-11.08 -10.355,-7.387 -17.582,-17.236 -21.681,-29.547 -4.1,-12.31 -4.208,-25.713 -0.324,-40.208 l 43.319,-161.668 c 3.921,-14.634 11.232,-28.048 21.933,-40.243 10.7,-12.195 23.202,-22.009 37.505,-29.442 14.302,-7.433 28.84,-11.149 43.613,-11.149 h 166.129 c 15.051,0 27.667,3.716 37.847,11.149 10.18,7.433 17.26,17.247 21.24,29.442 3.979,12.195 4.008,25.609 0.087,40.243 l -77.526,289.331 c -4.023,15.017 -11.252,28.6 -21.684,40.748 -10.433,12.148 -22.793,21.866 -37.08,29.154 -14.287,7.288 -28.863,10.932 -43.729,10.932 z m 91.067,-212.956 h 157.766 l 40.929,-152.749 h -157.766 z"
       style="clip-rule:evenodd;fill:url(#linearGradient20);fill-rule:nonzero;stroke:#000000;stroke-width:2;stroke-linecap:round;stroke-linejoin:round;stroke-miterlimit:2;stroke-dasharray:none;stroke-opacity:1"
       id="path20" /><path
       d="m 2180.81,501.133 c -14.633,0 -27.052,-3.717 -37.255,-11.15 -10.203,-7.433 -17.388,-17.247 -21.553,-29.442 -4.165,-12.194 -4.288,-25.609 -0.366,-40.243 l 43.318,-161.668 c 3.922,-14.634 11.232,-28.048 21.933,-40.243 10.701,-12.195 23.144,-22.009 37.331,-29.442 14.186,-7.433 28.596,-11.149 43.23,-11.149 h 166.128 c 15.018,0 27.611,3.693 37.78,11.08 10.169,7.386 17.248,17.235 21.237,29.546 3.989,12.311 4.042,25.714 0.158,40.208 l -33.161,123.76 h -242.503 l -8.962,33.449 h 242.502 l -22.854,85.294 z m 56.293,-193.445 h 157.209 l 11.95,-44.598 h -157.208 z"
       style="clip-rule:evenodd;fill:url(#linearGradient21);fill-rule:nonzero;stroke:#000000;stroke-width:2;stroke-linecap:round;stroke-linejoin:round;stroke-miterlimit:2;stroke-dasharray:none;stroke-opacity:1"
       id="path21" /></g></svg>
