<svg xmlns="http://www.w3.org/2000/svg" id="svg2" width="270" height="70" version="1.0"><g id="layer1"><path id="path1307" d="M34.5 5.5v50c0 10 10 10 20 10h60s10 0 10-10c0 0 0-10 10-10s10 10 10 10c0 10 10 10 10 10h60c5 0 20 0 20-10v-50z" style="fill:#fff;fill-opacity:1;fill-rule:evenodd;stroke:#000;stroke-width:1px;stroke-linecap:butt;stroke-linejoin:miter;stroke-opacity:1"/><path id="path1309" d="M54.5 15.5c-10 20 0 40 0 40h60c10-20 0-40 0-40z" style="fill:red;fill-opacity:1;fill-rule:evenodd;stroke:#000;stroke-width:1px;stroke-linecap:butt;stroke-linejoin:miter;stroke-opacity:1"/><path id="path1311" d="M214.5 15.5c10 20 0 40 0 40S165 56 155 56c-10.5-20.5-.5-40.5-.5-40.5z" style="fill:#00f;fill-opacity:1;fill-rule:evenodd;stroke:#000;stroke-width:1px;stroke-linecap:butt;stroke-linejoin:miter;stroke-opacity:1"/><path id="path4807" d="M34.5 5.5s-20 10-30 20v30c0 10 10 10 10 10v-20c10 0 20 10 20 10" style="fill:#fff;fill-opacity:1;fill-rule:evenodd;stroke:#000;stroke-width:1px;stroke-linecap:butt;stroke-linejoin:miter;stroke-opacity:1"/><path id="path4809" d="M234.5 5s20 10 30 20v30c0 10-10 10-10 10V45c-10 0-20 10-20 10" style="fill:#fff;fill-opacity:1;fill-rule:evenodd;stroke:#000;stroke-width:1px;stroke-linecap:butt;stroke-linejoin:miter;stroke-opacity:1"/></g></svg>