<svg xmlns="http://www.w3.org/2000/svg" xmlns:xlink="http://www.w3.org/1999/xlink" id="svg1" width="1920" height="1080" version="1.1" viewBox="0 0 508 285.75"><defs id="defs1"><linearGradient id="linearGradient409"><stop id="stop409" offset="0" style="stop-color:#f0f;stop-opacity:.5"/><stop id="stop410" offset="1" style="stop-color:#0ff;stop-opacity:.5"/></linearGradient><linearGradient xlink:href="#linearGradient409" id="linearGradient410" x1="-.661" x2="508" y1="142.544" y2="142.544" gradientUnits="userSpaceOnUse"/><filter id="filter3" width="1.032" height="1.217" x="-.016" y="-.109" style="color-interpolation-filters:sRGB"><feFlood id="feFlood2" flood-color="#F0F" flood-opacity="1" result="flood"/><feGaussianBlur id="feGaussianBlur2" in="SourceGraphic" result="blur" stdDeviation="6"/><feOffset id="feOffset2" dx="0" dy="0" in="blur" result="offset"/><feComposite id="feComposite2" in="offset" in2="flood" operator="in" result="comp1"/><feComposite id="feComposite3" in="SourceGraphic" in2="comp1" operator="over" result="comp2"/></filter></defs><path id="path409" d="M-11.228 147.242-224.716 285.75m241.02-138.508L-175.56 285.75M43.836 147.242-126.403 285.75M71.368 147.242-77.246 285.75M98.9 147.242-28.089 285.75m154.521-138.508L21.068 285.75m132.896-138.508L70.225 285.75m111.271-138.508L119.382 285.75m89.646-138.508L168.54 285.75m68.021-138.508L217.696 285.75m46.396-138.508 2.761 138.508m24.771-138.508L316.01 285.75m3.146-138.508 46.011 138.508m-18.479-138.508 67.636 138.508M374.22 147.242l89.261 138.508m-61.729-138.508L512.638 285.75m-83.354-138.508L561.795 285.75M456.816 147.242 610.952 285.75M484.348 147.242 660.11 285.75M511.88 147.242 709.266 285.75M-11.228 147.242h528.615M-22.77 154.73h551.06m-563.626 8.152h575.499m-589.23 8.908h602.203m-617.27 9.776h631.507m-648.117 10.776h663.81m-682.21 11.937H600.45m-720.09 13.298h739.456m-762.43 14.905h784.136m-810.064 16.822H666.02m-864.055 19.135h891.92" style="fill:none;stroke:url(#linearGradient410);stroke-width:1.32292px;filter:url(#filter3)"/></svg>