<svg xmlns="http://www.w3.org/2000/svg" xmlns:xlink="http://www.w3.org/1999/xlink" xml:space="preserve" id="svg35" width="241" height="241" style="clip-rule:evenodd;fill-rule:evenodd;stroke-linejoin:round;stroke-miterlimit:2" version="1.1" viewBox="0 0 241 241"><defs id="defs35"><linearGradient id="linearGradient51"><stop id="stop51" offset="0" style="stop-color:#000;stop-opacity:1"/><stop id="stop53" offset=".248" style="stop-color:#000;stop-opacity:1"/><stop id="stop54" offset=".528" style="stop-color:#0ff;stop-opacity:1"/><stop id="stop55" offset=".53" style="stop-color:#f0f;stop-opacity:1"/><stop id="stop56" offset=".75" style="stop-color:#000;stop-opacity:1"/><stop id="stop52" offset="1" style="stop-color:#000;stop-opacity:1"/></linearGradient><linearGradient xlink:href="#linearGradient51" id="linearGradient52" x1="1366.798" x2="1366.798" y1="630.444" y2="70.628" gradientUnits="userSpaceOnUse"/><linearGradient xlink:href="#linearGradient51" id="linearGradient1" x1="1366.798" x2="1366.798" y1="630.444" y2="70.628" gradientTransform="translate(-4.301 19.668)" gradientUnits="userSpaceOnUse"/><linearGradient xlink:href="#linearGradient51" id="linearGradient8" x1="1366.798" x2="1366.798" y1="630.444" y2="70.628" gradientTransform="translate(-4.301 19.668)" gradientUnits="userSpaceOnUse"/><linearGradient xlink:href="#linearGradient51" id="linearGradient15" x1="1366.798" x2="1366.798" y1="630.444" y2="70.628" gradientTransform="translate(-4.301 19.668)" gradientUnits="userSpaceOnUse"/><filter id="filter47" width="1.497" height="1.39" x="-.207" y="-.162" style="color-interpolation-filters:sRGB"><feFlood id="feFlood46" flood-color="#0FF" flood-opacity="1" result="flood"/><feGaussianBlur id="feGaussianBlur46" in="SourceGraphic" result="blur" stdDeviation="0"/><feOffset id="feOffset46" dx="20" dy="20" in="blur" result="offset"/><feComposite id="feComposite46" in="flood" in2="offset" operator="in" result="comp1"/><feComposite id="feComposite47" in="SourceGraphic" in2="comp1" operator="over" result="fbSourceGraphic"/><feColorMatrix id="feColorMatrix66" in="fbSourceGraphic" result="fbSourceGraphicAlpha" values="0 0 0 -1 0 0 0 0 -1 0 0 0 0 -1 0 0 0 0 1 0"/><feColorMatrix id="feColorMatrix67" in="fbSourceGraphic" result="result1" values="0 0 0 0 0 0 0 0 0 0 0 0 0 0 0 0.21 0.72 0.07 0 0 "/><feColorMatrix id="feColorMatrix68" result="result9" values="1 0 0 0 0 0 1 0 0 0 0 0 1 0 0 0 0 0 2 0 "/><feComposite id="feComposite68" in="fbSourceGraphic" in2="result9" operator="in" result="result4"/><feFlood id="feFlood68" flood-color="#000" result="result2"/><feComposite id="feComposite69" in2="result9" operator="in" result="result10"/><feComposite id="feComposite70" in2="result4" operator="atop"/><feGaussianBlur id="feGaussianBlur70" result="result8" stdDeviation="3"/><feOffset id="feOffset70" dx="3" dy="3" in="result8" result="result3"/><feFlood id="feFlood70" flood-color="#DBAD3E" flood-opacity="1" result="result5"/><feMerge id="feMerge70" result="result6"><feMergeNode id="feMergeNode70" in="result5"/><feMergeNode id="feMergeNode71" in="result3"/><feMergeNode id="feMergeNode72" in="result4"/></feMerge><feComposite id="feComposite72" in2="fbSourceGraphic" operator="in" result="fbSourceGraphic"/><feColorMatrix id="feColorMatrix84" in="fbSourceGraphic" result="fbSourceGraphicAlpha" values="0 0 0 -1 0 0 0 0 -1 0 0 0 0 -1 0 0 0 0 1 0"/><feFlood id="feFlood84" flood-color="#F0F" flood-opacity="1" result="flood"/><feGaussianBlur id="feGaussianBlur84" in="fbSourceGraphic" result="blur" stdDeviation="7"/><feOffset id="feOffset84" dx="0" dy="0" in="blur" result="offset"/><feComposite id="feComposite84" in="flood" in2="offset" operator="out" result="comp1"/><feComposite id="feComposite85" in="comp1" in2="fbSourceGraphic" operator="atop" result="comp2"/></filter><filter id="filter60" width="1.183" height="1.244" x="-.091" y="-.122" style="color-interpolation-filters:sRGB"><feFlood id="feFlood59" flood-color="#0FF" flood-opacity="1" result="flood"/><feGaussianBlur id="feGaussianBlur59" in="SourceGraphic" result="blur" stdDeviation="20"/><feOffset id="feOffset59" dx="0" dy="0" in="blur" result="offset"/><feComposite id="feComposite59" in="flood" in2="offset" operator="in" result="comp1"/><feComposite id="feComposite60" in="SourceGraphic" in2="comp1" operator="over" result="comp2"/></filter><filter id="filter56" width="1.138" height="1.108" x="-.069" y="-.054" style="color-interpolation-filters:sRGB"><feFlood id="feFlood55" flood-color="#F0F" flood-opacity="1" result="flood"/><feGaussianBlur id="feGaussianBlur55" in="SourceGraphic" result="blur" stdDeviation="8"/><feOffset id="feOffset55" dx="0" dy="0" in="blur" result="offset"/><feComposite id="feComposite55" in="flood" in2="offset" operator="in" result="comp1"/><feComposite id="feComposite56" in="SourceGraphic" in2="comp1" operator="over" result="comp2"/></filter><filter id="filter19" width="1.241" height="1.19" x="-.121" y="-.095" style="color-interpolation-filters:sRGB"><feFlood id="feFlood18" flood-color="#F0F" flood-opacity="1" result="flood"/><feGaussianBlur id="feGaussianBlur18" in="SourceGraphic" result="blur" stdDeviation="6"/><feOffset id="feOffset18" dx="0" dy="0" in="blur" result="offset"/><feComposite id="feComposite18" in="flood" in2="offset" operator="in" result="comp1"/><feComposite id="feComposite19" in="SourceGraphic" in2="comp1" operator="over" result="comp2"/></filter><path id="path1" d="M300.042 520.8 175.124 119.418H275.47l90.235 291.56 246.482-291.56h99.788L371.957 520.8z"/></defs><g id="layer1" style="fill:url(#linearGradient52);stroke:#000;stroke-width:2;stroke-linecap:round;stroke-linejoin:round;stroke-dasharray:none;stroke-opacity:1;filter:url(#filter60)" transform="matrix(.4 0 0 .4 -67.227 -25.773)"><use xlink:href="#path1" style="clip-rule:evenodd;fill:url(#linearGradient1);fill-rule:nonzero;stroke:#000;stroke-width:2;stroke-linecap:round;stroke-linejoin:round;stroke-miterlimit:2;stroke-dasharray:none;stroke-opacity:1"/><use xlink:href="#path1" id="path8" style="clip-rule:evenodd;fill:url(#linearGradient8);fill-rule:nonzero;stroke:#000;stroke-width:2;stroke-linecap:round;stroke-linejoin:round;stroke-miterlimit:2;stroke-dasharray:none;stroke-opacity:1"/><use xlink:href="#path1" id="path15" style="clip-rule:evenodd;fill:url(#linearGradient15);fill-rule:nonzero;stroke:#000;stroke-width:2;stroke-linecap:round;stroke-linejoin:round;stroke-miterlimit:2;stroke-dasharray:none;stroke-opacity:1"/></g><g id="layer2" style="display:inline;filter:url(#filter47)" transform="matrix(.4 0 0 .4 -67.227 -25.773)"><path id="path29" d="M466.41 557.529q-2.105.837-3.843-2.55a56 56 0 0 0-3.895-6.476l4.644-.883q-3.082-9.036-1.713-17.388 1.37-8.352 3.38-16.387a255 255 0 0 0 3.39-15.516q1.38-7.48-1.677-14.77 2.128.907 3.15-1.692 1.024-2.6 1.608-6.43.585-3.827.318-7.932-.266-4.104-.723-6.642a200 200 0 0 0 8.282-29.566 810 810 0 0 0 5.319-29.66 548 548 0 0 1 5.333-28.567q2.99-13.908 7.898-26.65 5.898-1.995 12.473-.84t8.732 4.245q12.946-12.957 22.88-29.716a1465 1465 0 0 1 20.087-32.903q10.153-16.145 23.095-29.54 12.94-13.392 32.329-19.264 10.23 5.49 23.006 11.59 12.777 6.101 20.965 17.229c2.27 1.026 10.937 5.648 13.208 6.674l.087 6.544q5.985 4.548 10.097 11.42 4.111 6.873 7.39 14.779a517 517 0 0 1 6.35 16.069q3.071 8.164 6.969 14.858-.81 2.778-.572 4.7.237 1.925.896 3.767.66 1.843 1.113 4.162.455 2.32.5 5.81-1.381 23.443-14.066 40.069-12.687 16.626-30.93 29.059t-38.843 22.69-37.386 20.884q.023 1.746 1.922 1.384 1.9-.36 1.09 2.417 12.77 5.446 19.797 8.92 7.03 3.476 13.193 5.585 6.165 2.109 13.58 2.886 7.417.777 20.543 1.344t20.54 1.126q7.413.56 13.337.526 5.925-.033 12.69-.443t18.18-1.27q4.709 3.918 7.749 9.9 3.042 5.982 4.396 12.286 1.353 6.303.798 12.313t-3.463 10.062q.445 1.664 2.342 1.085a13 13 0 0 1 4.013-.544 28.6 28.6 0 0 0-4.996 6.198l-4.14 6.91a47 47 0 0 1-4.78 6.595q-2.708 3.139-6.923 4.377-15.115 8.997-38.83 7.818t-60.63-8.595q-18.244-3.532-29.717-7.036-11.472-3.505-19.987-7.354t-15.776-8.811-16.662-11.922q-1.262.678-1.455 2.026-.194 1.349-1.454 2.026-1.879 17.851-6.166 29.6t-12.58 24.698q-6.77-.026-9.057 3.034-2.286 3.059-5.635 5.882-4.21 1.674-6.334.985-2.125-.69-3.831-1.677a35 35 0 0 0-3.834-1.896q-2.129-.907-6.766.41a402 402 0 0 0-2.634-7.152q-1.315-3.467-6.798-1.988 1.214-4.167.755-6.923-.46-2.756-1.336-4.994a45 45 0 0 1-1.544-4.737q-.669-2.497.552-6.228m138.338-226.172q-5.378 9.331-12.042 17.378a533 533 0 0 0-13.111 16.488 124.6 124.6 0 0 0-11.4 17.912q-4.952 9.47-6.906 21.65 17.7-5.55 37.01-17.312a4563 4563 0 0 0 36.519-22.468q-2.325-15.74-11.32-23.872t-18.75-9.776" style="clip-rule:evenodd;fill:#f0f;fill-rule:nonzero;stroke-linejoin:round;stroke-miterlimit:2"/><g id="g28" style="clip-rule:evenodd;fill-rule:evenodd;stroke-linejoin:round;stroke-miterlimit:2;filter:url(#filter19)" transform="translate(-890.56 -350.55)"><path id="path22" d="M1356.97 908.079q-2.105.837-3.843-2.55a56 56 0 0 0-3.895-6.476l4.644-.883q-3.083-9.036-1.713-17.388t3.38-16.387a255 255 0 0 0 3.39-15.516q1.382-7.479-1.677-14.77 2.128.908 3.151-1.692t1.607-6.429q.585-3.829.318-7.933-.265-4.104-.723-6.642a200 200 0 0 0 8.282-29.566 810 810 0 0 0 5.319-29.659 548 548 0 0 1 5.333-28.568q2.99-13.908 7.898-26.65 5.898-1.995 12.473-.84 6.575 1.157 8.732 4.245 12.947-12.958 22.88-29.716a1465 1465 0 0 1 20.087-32.903q10.153-16.144 23.095-29.539 12.94-13.394 32.329-19.265 10.23 5.49 23.006 11.591t20.965 17.228c2.271 1.026 10.937 5.648 13.208 6.674l.087 6.544q5.985 4.548 10.097 11.421 4.112 6.871 7.391 14.778a517 517 0 0 1 6.349 16.069q3.072 8.164 6.969 14.858-.81 2.778-.572 4.701.237 1.924.896 3.766.66 1.843 1.113 4.162.455 2.32.501 5.81-1.381 23.443-14.067 40.069t-30.93 29.059q-18.243 12.434-38.843 22.691t-37.386 20.883q.023 1.746 1.922 1.384 1.9-.36 1.091 2.417 12.768 5.447 19.796 8.921 7.03 3.475 13.193 5.584 6.165 2.109 13.581 2.886t20.542 1.344 20.54 1.126q7.413.56 13.337.526 5.925-.032 12.69-.443 6.766-.411 18.18-1.269 4.708 3.917 7.749 9.899 3.042 5.982 4.396 12.286 1.353 6.303.798 12.313t-3.463 10.062q.445 1.664 2.342 1.085a13 13 0 0 1 4.013-.544 28.6 28.6 0 0 0-4.996 6.198l-4.14 6.91a47 47 0 0 1-4.779 6.595q-2.709 3.139-6.924 4.377-15.115 8.997-38.83 7.818t-60.63-8.595q-18.244-3.53-29.717-7.036t-19.987-7.354q-8.515-3.849-15.776-8.811t-16.662-11.922q-1.261.678-1.455 2.026-.193 1.349-1.454 2.026-1.878 17.851-6.166 29.601-4.287 11.75-12.579 24.697-6.77-.026-9.058 3.034-2.286 3.059-5.635 5.882-4.21 1.674-6.334.985-2.125-.69-3.831-1.677a35 35 0 0 0-3.834-1.896q-2.128-.907-6.766.411a402 402 0 0 0-2.634-7.153q-1.316-3.468-6.798-1.988 1.214-4.167.755-6.923-.46-2.756-1.336-4.994a45 45 0 0 1-1.544-4.737q-.669-2.497.552-6.228m138.338-226.172q-5.378 9.332-12.042 17.378a533 533 0 0 0-13.111 16.488 124.6 124.6 0 0 0-11.4 17.912q-4.952 9.47-6.906 21.65 17.7-5.55 37.01-17.312a4563 4563 0 0 0 36.519-22.468q-2.325-15.74-11.32-23.872t-18.75-9.776" style="fill:#f0f;fill-rule:nonzero;filter:url(#filter56)"/></g></g></svg>