<svg xmlns="http://www.w3.org/2000/svg" xml:space="preserve" id="svg3" width="236" height="236" x="0" y="0" version="1.1" viewBox="0 0 236 236"><g id="g3" transform="translate(-10 -111.4)"><g id="g2"><g id="g1"><rect id="rect2" width="87.963" height="59.015" x="19.938" y="121.242" style="opacity:.65;fill:#0ff;fill-opacity:1;stroke:none;stroke-width:1.92762;stroke-linecap:round;stroke-linejoin:round;paint-order:markers stroke fill"/><rect id="rect2-7" width="87.963" height="59.015" x="145.794" y="121.242" style="opacity:.65;fill:#f0f;fill-opacity:1;stroke:none;stroke-width:1.92762;stroke-linecap:round;stroke-linejoin:round;paint-order:markers stroke fill"/><path id="path1" d="M19.857 111.4c-5.444 0-9.857 4.413-9.857 9.857V179.6c0 5.8 4.7 10.5 10.5 10.5h84.3c7.9 0 15.1-24.5 23.2-24.5 7 0 12.3 24.5 19.2 24.5h76.519a6.58 6.58 45 0 1 6.582 6.582v143.266a7.437 7.437 0 0 0 7.453 7.453h.793a7.437 7.437 0 0 0 7.453-7.453v-218.84c0-5.361-4.346-9.707-9.707-9.707zM41.5 127.2h47.2c8.7 0 15.7 7 15.7 15.7v15.7c0 8.7-7.1 15.7-15.7 15.7H41.5c-8.7 0-15.7-7.1-15.7-15.7v-15.7c0-8.7 7-15.7 15.7-15.7m125.9 0h47.2c8.7 0 15.7 7 15.7 15.7v15.699c0 8.7-7.1 15.701-15.7 15.701h-47.2c-8.7 0-15.7-7.1-15.7-15.7v-15.7c0-8.7 7-15.7 15.7-15.7"/></g></g></g></svg>