<svg xmlns="http://www.w3.org/2000/svg" xml:space="preserve" id="svg3" width="236" height="78.7" x="0" y="0" version="1.1" viewBox="0 0 236 78.7"><g id="g3" transform="translate(-10 -111.4)"><g id="g2"><g id="g1"><path id="path1" fill="#000" d="M10 121.257V179.6c0 5.8 4.7 10.5 10.5 10.5h84.3c7.9 0 15.1-24.5 23.2-24.5 7 0 12.3 24.5 19.2 24.5h88.3c5.8 0 10.5-4.7 10.5-10.5v-58.494a9.706 9.706 45 0 0-9.706-9.706H19.857A9.857 9.857 135 0 0 10 121.257m94.4 37.343c0 8.7-7.1 15.7-15.7 15.7H41.5c-8.7 0-15.7-7.1-15.7-15.7v-15.7c0-8.7 7-15.7 15.7-15.7h47.2c8.7 0 15.7 7 15.7 15.7zm125.9 0c0 8.7-7.1 15.7-15.7 15.7h-47.2c-8.7 0-15.7-7.1-15.7-15.7v-15.7c0-8.7 7-15.7 15.7-15.7h47.2c8.7 0 15.7 7 15.7 15.7z"/></g></g></g></svg>