<svg xmlns="http://www.w3.org/2000/svg" xmlns:xlink="http://www.w3.org/1999/xlink" xml:space="preserve" id="svg35" width="1138.116" height="400.476" style="clip-rule:evenodd;fill-rule:evenodd;stroke-linejoin:round;stroke-miterlimit:2" version="1.1" viewBox="0 0 1138.116 400.476"><defs id="defs35"><filter id="filter47" width="1.089" height="1.248" x="-.037" y="-.103" style="color-interpolation-filters:sRGB"><feFlood id="feFlood46" flood-color="#0FF" flood-opacity="1" result="flood"/><feGaussianBlur id="feGaussianBlur46" in="SourceGraphic" result="blur" stdDeviation="0"/><feOffset id="feOffset46" dx="20" dy="20" in="blur" result="offset"/><feComposite id="feComposite46" in="flood" in2="offset" operator="in" result="comp1"/><feComposite id="feComposite47" in="SourceGraphic" in2="comp1" operator="over" result="fbSourceGraphic"/><feColorMatrix id="feColorMatrix66" in="fbSourceGraphic" result="fbSourceGraphicAlpha" values="0 0 0 -1 0 0 0 0 -1 0 0 0 0 -1 0 0 0 0 1 0"/><feColorMatrix id="feColorMatrix67" in="fbSourceGraphic" result="result1" values="0 0 0 0 0 0 0 0 0 0 0 0 0 0 0 0.21 0.72 0.07 0 0 "/><feColorMatrix id="feColorMatrix68" result="result9" values="1 0 0 0 0 0 1 0 0 0 0 0 1 0 0 0 0 0 2 0 "/><feComposite id="feComposite68" in="fbSourceGraphic" in2="result9" operator="in" result="result4"/><feFlood id="feFlood68" flood-color="#000" result="result2"/><feComposite id="feComposite69" in2="result9" operator="in" result="result10"/><feComposite id="feComposite70" in2="result4" operator="atop"/><feGaussianBlur id="feGaussianBlur70" result="result8" stdDeviation="3"/><feOffset id="feOffset70" dx="3" dy="3" in="result8" result="result3"/><feFlood id="feFlood70" flood-color="#DBAD3E" flood-opacity="1" result="result5"/><feMerge id="feMerge70" result="result6"><feMergeNode id="feMergeNode70" in="result5"/><feMergeNode id="feMergeNode71" in="result3"/><feMergeNode id="feMergeNode72" in="result4"/></feMerge><feComposite id="feComposite72" in2="fbSourceGraphic" operator="in" result="fbSourceGraphic"/><feColorMatrix id="feColorMatrix84" in="fbSourceGraphic" result="fbSourceGraphicAlpha" values="0 0 0 -1 0 0 0 0 -1 0 0 0 0 -1 0 0 0 0 1 0"/><feFlood id="feFlood84" flood-color="#F0F" flood-opacity="1" result="flood"/><feGaussianBlur id="feGaussianBlur84" in="fbSourceGraphic" result="blur" stdDeviation="7"/><feOffset id="feOffset84" dx="0" dy="0" in="blur" result="offset"/><feComposite id="feComposite84" in="flood" in2="offset" operator="out" result="comp1"/><feComposite id="feComposite85" in="comp1" in2="fbSourceGraphic" operator="atop" result="comp2"/></filter><filter id="filter56" width="1.138" height="1.108" x="-.069" y="-.054" style="color-interpolation-filters:sRGB"><feFlood id="feFlood55" flood-color="#F0F" flood-opacity="1" result="flood"/><feGaussianBlur id="feGaussianBlur55" in="SourceGraphic" result="blur" stdDeviation="8"/><feOffset id="feOffset55" dx="0" dy="0" in="blur" result="offset"/><feComposite id="feComposite55" in="flood" in2="offset" operator="in" result="comp1"/><feComposite id="feComposite56" in="SourceGraphic" in2="comp1" operator="over" result="comp2"/></filter><filter id="filter58" width="1.167" height="1.128" x="-.084" y="-.064" style="color-interpolation-filters:sRGB"><feFlood id="feFlood56" flood-color="#F0F" flood-opacity="1" result="flood"/><feGaussianBlur id="feGaussianBlur56" in="SourceGraphic" result="blur" stdDeviation="8"/><feOffset id="feOffset56" dx="0" dy="0" in="blur" result="offset"/><feComposite id="feComposite57" in="flood" in2="offset" operator="in" result="comp1"/><feComposite id="feComposite58" in="SourceGraphic" in2="comp1" operator="over" result="comp2"/></filter><filter id="filter62" width="1.146" height="1.13" x="-.073" y="-.065" style="color-interpolation-filters:sRGB"><feFlood id="feFlood58" flood-color="#F0F" flood-opacity="1" result="flood"/><feGaussianBlur id="feGaussianBlur58" in="SourceGraphic" result="blur" stdDeviation="8"/><feOffset id="feOffset58" dx="0" dy="0" in="blur" result="offset"/><feComposite id="feComposite61" in="flood" in2="offset" operator="in" result="comp1"/><feComposite id="feComposite62" in="SourceGraphic" in2="comp1" operator="over" result="comp2"/></filter><filter id="filter64" width="1.176" height="1.137" x="-.088" y="-.068" style="color-interpolation-filters:sRGB"><feFlood id="feFlood62" flood-color="#F0F" flood-opacity="1" result="flood"/><feGaussianBlur id="feGaussianBlur62" in="SourceGraphic" result="blur" stdDeviation="8"/><feOffset id="feOffset62" dx="0" dy="0" in="blur" result="offset"/><feComposite id="feComposite63" in="flood" in2="offset" operator="in" result="comp1"/><feComposite id="feComposite64" in="SourceGraphic" in2="comp1" operator="over" result="comp2"/></filter><filter id="filter66" width="1.419" height="1.137" x="-.21" y="-.068" style="color-interpolation-filters:sRGB"><feFlood id="feFlood64" flood-color="#F0F" flood-opacity="1" result="flood"/><feGaussianBlur id="feGaussianBlur64" in="SourceGraphic" result="blur" stdDeviation="8"/><feOffset id="feOffset64" dx="0" dy="0" in="blur" result="offset"/><feComposite id="feComposite65" in="flood" in2="offset" operator="in" result="comp1"/><feComposite id="feComposite66" in="SourceGraphic" in2="comp1" operator="over" result="comp2"/></filter><filter id="filter71" width="1.137" height="1.124" x="-.068" y="-.062" style="color-interpolation-filters:sRGB"><feFlood id="feFlood66" flood-color="#F0F" flood-opacity="1" result="flood"/><feGaussianBlur id="feGaussianBlur66" in="SourceGraphic" result="blur" stdDeviation="8"/><feOffset id="feOffset66" dx="0" dy="0" in="blur" result="offset"/><feComposite id="feComposite67" in="flood" in2="offset" operator="in" result="comp1"/><feComposite id="feComposite71" in="SourceGraphic" in2="comp1" operator="over" result="comp2"/></filter><filter id="filter74" width="1.192" height="1.122" x="-.096" y="-.061" style="color-interpolation-filters:sRGB"><feFlood id="feFlood71" flood-color="#F0F" flood-opacity="1" result="flood"/><feGaussianBlur id="feGaussianBlur71" in="SourceGraphic" result="blur" stdDeviation="8"/><feOffset id="feOffset71" dx="0" dy="0" in="blur" result="offset"/><feComposite id="feComposite73" in="flood" in2="offset" operator="in" result="comp1"/><feComposite id="feComposite74" in="SourceGraphic" in2="comp1" operator="over" result="comp2"/></filter><filter id="filter19" width="1.043" height="1.12" x="-.022" y="-.06" style="color-interpolation-filters:sRGB"><feFlood id="feFlood18" flood-color="#F0F" flood-opacity="1" result="flood"/><feGaussianBlur id="feGaussianBlur18" in="SourceGraphic" result="blur" stdDeviation="6"/><feOffset id="feOffset18" dx="0" dy="0" in="blur" result="offset"/><feComposite id="feComposite18" in="flood" in2="offset" operator="in" result="comp1"/><feComposite id="feComposite19" in="SourceGraphic" in2="comp1" operator="over" result="comp2"/></filter><path id="path29" d="M1356.97 908.079q-2.105.837-3.843-2.55a56 56 0 0 0-3.895-6.476l4.644-.883q-3.083-9.036-1.713-17.388t3.38-16.387a255 255 0 0 0 3.39-15.516q1.382-7.479-1.677-14.77 2.128.908 3.151-1.692t1.607-6.429q.585-3.829.318-7.933-.265-4.104-.723-6.642a200 200 0 0 0 8.282-29.566 810 810 0 0 0 5.319-29.659 548 548 0 0 1 5.333-28.568q2.99-13.908 7.898-26.65 5.898-1.995 12.473-.84 6.575 1.157 8.732 4.245 12.947-12.958 22.88-29.716a1465 1465 0 0 1 20.087-32.903q10.153-16.144 23.095-29.539 12.94-13.394 32.329-19.265 10.23 5.49 23.006 11.591t20.965 17.228c2.271 1.026 10.937 5.648 13.208 6.674l.087 6.544q5.985 4.548 10.097 11.421 4.112 6.871 7.391 14.778a517 517 0 0 1 6.349 16.069q3.072 8.164 6.969 14.858-.81 2.778-.572 4.701.237 1.924.896 3.766.66 1.843 1.113 4.162.455 2.32.501 5.81-1.381 23.443-14.067 40.069t-30.93 29.059q-18.243 12.434-38.843 22.691t-37.386 20.883q.023 1.746 1.922 1.384 1.9-.36 1.091 2.417 12.768 5.447 19.796 8.921 7.03 3.475 13.193 5.584 6.165 2.109 13.581 2.886t20.542 1.344 20.54 1.126q7.413.56 13.337.526 5.925-.032 12.69-.443 6.766-.411 18.18-1.269 4.708 3.917 7.749 9.899 3.042 5.982 4.396 12.286 1.353 6.303.798 12.313t-3.463 10.062q.445 1.664 2.342 1.085a13 13 0 0 1 4.013-.544 28.6 28.6 0 0 0-4.996 6.198l-4.14 6.91a47 47 0 0 1-4.779 6.595q-2.709 3.139-6.924 4.377-15.115 8.997-38.83 7.818t-60.63-8.595q-18.244-3.53-29.717-7.036t-19.987-7.354q-8.515-3.849-15.776-8.811t-16.662-11.922q-1.261.678-1.455 2.026-.193 1.349-1.454 2.026-1.878 17.851-6.166 29.601-4.287 11.75-12.579 24.697-6.77-.026-9.058 3.034-2.286 3.059-5.635 5.882-4.21 1.674-6.334.985-2.125-.69-3.831-1.677a35 35 0 0 0-3.834-1.896q-2.128-.907-6.766.411a402 402 0 0 0-2.634-7.153q-1.316-3.468-6.798-1.988 1.214-4.167.755-6.923-.46-2.756-1.336-4.994a45 45 0 0 1-1.544-4.737q-.669-2.497.552-6.228m138.338-226.172q-5.378 9.332-12.042 17.378a533 533 0 0 0-13.111 16.488 124.6 124.6 0 0 0-11.4 17.912q-4.952 9.47-6.906 21.65 17.7-5.55 37.01-17.312a4563 4563 0 0 0 36.519-22.468q-2.325-15.74-11.32-23.872t-18.75-9.776"/><path id="path30" d="M1857.37 604.343q.463 2.974.272 4.54a137 137 0 0 1-.384 2.916 18.5 18.5 0 0 0-.174 2.876q.02 1.527.905 4.42-8.667 16.519-20.203 24.178t-25.012 12.627a4428 4428 0 0 0-27.582 10.272q-14.106 5.305-27.92 16.678-5.517-1.138-9.92 1.886t-12.857 3.756q-2.499 3.099-6.283 4.912a183 183 0 0 0-7.566 3.843q1.74 3.606 1.585 7.79-.157 4.185 1.145 6.562 14.792-1.5 32.708-6.654 17.917-5.155 35.219-8.881.45 2.101-.385 2.916t-.39 2.48q2.984 1.62 5.982 4.33a193 193 0 0 0 5.994 5.202q2.995 2.493 6.187 3.854t7.408.123q1.734 3.17 2.423 7.194.688 4.024-.942 8.707-6.69 6.082-13.378 12.384a143 143 0 0 1-14.022 11.631 101.6 101.6 0 0 1-15.534 9.295q-8.2 3.963-18.336 5.453l-3.166.602q-1.056.2-2.761-.788-3.349 2.823-9.481 3.114t-9.48 3.114q-4.672-1.298-11.212.163t-11.629.68a191 191 0 0 0-11.981 21.959q-5.348 11.513-9.413 24.095 14.382-.547 23.874-2.788 9.491-2.242 17.919-4.937a3192 3192 0 0 1 17.278-5.471q8.85-2.775 22.364-4.907 8.379-6.404 19.967-10.137t21.25-9.068q3.394.667 5.971 3.457a220 220 0 0 0 4.935 5.185q2.36 2.395 4.922 4.095t6.355.541q1.711 1.425 2.376 3.703.666 2.28 1.117 4.381.45 2.1 1.526 3.427 1.075 1.327 3.603.409-6.141 15.6-14.27 24.799-8.13 9.2-18.631 15.132t-23.347 10.561q-12.846 4.628-28.423 10.65-3.788 1.596-6.335.986t-5.924.032q-9.68 4.027-23.165 8.34a185 185 0 0 1-27.42 6.523q-13.937 2.212-26.643 1.347-12.708-.865-20.838-7.63-3.418-2.412-4.528-6.356t-5.783-5.243q-.497-5.591-1.856-12.331a900 900 0 0 1-2.727-14.133 179 179 0 0 1-2.1-14.691q-.732-7.296.453-13.644 1.18-6.785 5.12-12.782 3.941-5.998 2.593-11.865 2.105-.837 2.501-2.881t3.357-2.169a212 212 0 0 1 5.29-15.876 358 358 0 0 1 5.941-14.687q3.079-7.146 6.155-14.51t5.921-16.215q-5.985-4.548-8.819-10.789a60.7 60.7 0 0 1-4.19-12.762 190 190 0 0 1-2.296-13.559 83.6 83.6 0 0 0-3.15-14.054q4.135-7.346 10.2-12.654a76.7 76.7 0 0 1 13.207-9.289q7.141-3.982 15.561-7.332a788 788 0 0 0 17.677-7.296q16.81-8.88 30.065-14.462 13.256-5.58 26.105-9.991t26.756-8.803 31.589-11.253q3.852 3.204 7.228 2.563 1.636-4.248 3.979-3.162t1.867-2.76q4.32 6.614 10.93 10.387t14.676 5.74"/><path id="path31" d="M2073.32 772.798q-2.434 7.898-7.187 16.456a84 84 0 0 1-11.218 15.69 81.5 81.5 0 0 1-14.432 12.584q-7.968 5.451-16.827 7.572-5.505-.265-7.425-1.432a32 32 0 0 0-4.048-2.073c-.852-.421-3.689-1.632-4.256-1.815l-5.094-1.219 1.613-5.992q.798-3.65-.495-5.374-1.292-1.722-5.138-4.49l-2.567-2.136q-1.284-1.068-2.146-2.217l-7.286-6.925 11.357-5.22q10.512-5.06 14.036-10.541 3.525-5.48 2.53-16.663-8.466-.14-14.147 2.251a231 231 0 0 0-11.568 5.261 215 215 0 0 1-15.358 6.636q-7.79 3.012-17.076 4.777a89 89 0 0 1-6.335.985q-2.957.344-6.34.549l-4.233-.07q-.908-4.638-1.761-5.133a12.4 12.4 0 0 1-1.709-1.206q-2.14-1.78-4.51-5.047-2.371-3.266-1.18-9.179-2.163-3.525-2.637-7.371a58.5 58.5 0 0 0-3.655 11.628l-1.63 4.684-4.21 1.675q-.838.596-1.24 2.204-.402 1.607-.39 2.48l-2.012 7.817c-.555.689-2.781 3.007-3.337 3.696a92 92 0 0 1-2.006 8.254 254 254 0 0 1-2.434 7.898 148 148 0 0 0-3.44 11.807q-1.405 5.734-.913 10.889l-1.625 5.12q-2.076 3.018-4.588 5.027a113 113 0 0 1-5.028 3.798q-.832 1.033-2.301 1.969a56 56 0 0 0-2.307 1.532l-1.203 5.039-5.054 1.836q-4.632 1.755-6.525 2.552t-4.427 1.279l-4.227.366q-4.695-3.045-7.26-4.962-2.565-1.918-5.971-3.458-3.869-4.514-4.325-7.05a143 143 0 0 0-.908-4.639q-.879-2.457-1.114-4.162-.234-1.705-1.09-2.417l-5.557-4.192 4.591-4.809.324-7.497q8.146-23.855 17.372-46.164a6435 6435 0 0 1 19.071-45.613c2.19-5.081 10.525-25.327 12.715-30.408q-.44-1.228-.463-2.974-.023-1.744.792-4.087 4.545-8.298 7.422-14.75 2.876-6.451 5.75-13.121a411 411 0 0 1 6.773-15.72q3.495-7.663 8.884-16.122l6.714-4.338q1.26-.677 2.94-1.652t3.791-1.377l6.343-.331q11.744-7.918 20.472-19.855t17.824-28.099l4.14-6.91 5.534 2.447q2.127.908 5.941 1.276 3.814.37 8.053.875 7.621.302 14.404 1.199t11.062 4.458q2.626 6.5 3.094 9.909a55 55 0 0 0 1.359 6.739 496 496 0 0 1 2.519 14.392q1.154 7.216 1.698 16.298a177 177 0 0 1 3.782 13.933 404 404 0 0 1 2.939 14.093 1429 1429 0 0 0 4.49 19.484q2.242 9.416 5.735 17.499 3.377-.642 4.227-.366a27 27 0 0 1 4.414-2.151 157 157 0 0 1 5.265-1.876l4.638-1.319 1.746 4.042q.452 2.102 4.28 3.56 5.493-.606 8.052.876a33.7 33.7 0 0 1 4.698 3.262q1.712 1.424 3.412 1.975l6.367 1.414-3.29 7.186q-4.117 8.655-11.831 17.338a95.8 95.8 0 0 1-17.358 15.327q.456 2.538.7 4.897t1.122 4.816q1.365 7.176 2.313 14.869t.215 16.142zm-122.997-52.287q12.653-3.28 22.98-6.336t22.956-8.081a2108 2108 0 0 0-6.694-26.063 800 800 0 0 0-7.55-26.776l-2.475 4.844q-8.321 10.766-15.979 23.594-7.659 12.827-13.013 23.904l-4.961 8.816a143 143 0 0 0-4.539 8.735 31.6 31.6 0 0 1 4.849-1.359 24 24 0 0 0 4.426-1.278"/><path id="path32" d="M2213.05 778.169q-11.768 6.174-25.645 12.747-13.878 6.574-27.808 9.222-21.106 4.012-33.493-4.568-2.175-4.398-3.886-5.822a25.5 25.5 0 0 1-2.371-3.267q-1.082-1.763-1.55-5.173-5.146-5.145-8.209-12.654t-4.23-15.816-.652-17.153q.517-8.846 2.524-17.099.82-1.906 1.009-3.691t.581-4.047a351 351 0 0 1 3.408-14.206q1.812-6.906 5.126-12.346-1.742-3.606-.116-8.725 1.624-5.12 3.683-9.448a4183 4183 0 0 0 9.545-30.025 1286 1286 0 0 1 7.927-24.468 1515 1515 0 0 0 12.992-41.396q6.076-20.399 10.846-43.611 3.348-2.824 5.025-4.017 2.521-1.354 4.204-2.111 7.65 2.482 17.83 4.265t16.935.499q3.405 1.539 4.264 2.469a18 18 0 0 0 1.715 1.643q4.719 4.788 8.174 10.036 3.456 5.249 2.317 15.087-2.481 4.408-3.747 4.648-1.995 9.127-4.235 15.676a529 529 0 0 1-4.692 13.138 310 310 0 0 0-5.314 14.131q-2.445 7.026-4.007 16.944-1.659 2.503-2.269 4.368a242 242 0 0 1-1.425 4.207 133 133 0 0 1-1.839 4.942q-1.023 2.6-3.111 4.747-1.115 11.583-3.766 19.085a701 701 0 0 1-5.513 15.044 429 429 0 0 0-8.74 27.028q-3.841 13.414-4.471 29.717 2.099-1.274 3.998-1.635l3.589-.682q3.799-.722 8.881-.376 12.572-9.387 27.539-13.544a560 560 0 0 1 29.737-7.402l11.819-2.246q5.91-1.123 10.964-2.959 3.828 1.46 4.886 1.477t3.169-.384q2.955-.562 5.071-.526 5.129 3.836 9.802 5.135a84 84 0 0 0 9.761 2.081q4.666.862 9.125 1.983 4.457 1.12 8.726 3.809l3.204 18.198q3.006 3.365 2.602 4.754.046 3.489-1.619 5.556l.908 4.638q-6.313 2.512-8.613 4.699a49 49 0 0 0-4.38 4.769q-3.37 1.077-4.848 1.359l-2.744.521q-5.91 1.123-14.323 4.909-11.45-1.76-23.691.567-4.644.882-9.703 2.282l-10.12 2.798a132 132 0 0 1-10.324 3.274q-5.271 1.44-10.758 2.482z"/><path id="path33" d="M2421.23 712.795q2.285 12.687-1.204 20.785-3.49 8.098-9.983 13.051t-14.931 6.993q-8.436 2.04-16.052 2.176-4.302-5.306-7.801-13.825a279 279 0 0 1-6.584-17.775 318 318 0 0 1-5.535-18.411 1154 1154 0 0 1-4.236-16.252q2.041-5.637 2.584-12.519t.662-13.903q.117-7.02.233-14.259.115-7.238.873-13.943 2.71-18.885 8.189-36.546a280 280 0 0 0 8.618-36.19q.792-4.087-.732-7.297-1.524-3.208-.72-6.423.399-1.825 2.501-2.881t2.495-3.317q1.202-5.04.528-7.973-.673-2.934 1.379-7.698 2.065-3.891 5.14-11.255 3.076-7.364 2.134-14.62a62 62 0 0 0 7.094-7.472 92 92 0 0 1 6.881-7.649q3.55-3.519 7.954-6.542 4.403-3.024 10.735-4.227 3.435 3.72 4.56 8.755l2.25 10.07q1.124 5.034 3.296 9.214t7.272 5.834l.116 8.726q.069 5.235.558 10.172t2.022 8.8q1.532 3.864 4.927 4.531a1307 1307 0 0 0-13.59 44.133q-6.271 21.749-10.216 43.274-3.946 21.525-4.723 42.666a180.6 180.6 0 0 0 3.306 41.797"/><path id="path34" d="M2708 478.53q-10.553 2.006-22.774 5.859a1212 1212 0 0 0-24.018 7.845 433 433 0 0 1-16.222 5.271q-7.799 2.357-14.124 3.996-2.827 10.16-5.684 18.138a266 266 0 0 1-6.14 15.6 236 236 0 0 0-5.921 16.215 320 320 0 0 0-5.059 17.363q-4.128 7.782-6.794 14.194-2.665 6.411-4.255 14.148-4.979 7.507-7.415 15.187t-3.634 13.156l-1.619 5.556q-2.498 3.099-2.9 4.706-.402 1.606-2.073 3.237-.358 4.88-2.827 10.159-.815 2.342-1.211 4.386t-.385 2.916q.059 4.362-2.035 6.072.451 2.101.061 4.581t-.783 4.741q-1.197 5.476-.734 8.45a58 58 0 0 0 2.362 2.612q1.072 1.108 1.524 3.21 2.556 1.263 3.828 1.459 1.706.988 5.106 2.091l3.857 3.641q2.279 12.25-3.532 20.79-6.222 9.493-21.418 12.381l-5.066.963q-2.14-1.78-2.579-3.009a236 236 0 0 1-5.516-1.138q-2.122-.471-3.846-2.768-5.523-1.575-8.923-2.678l-3.828-1.459-.069-5.235q-3.007-3.365-4.549-7.883a70 70 0 0 1-2.449-9.157 82 82 0 0 0-1.998-7.056q-1.101-3.29-2.825-5.586-1.18-25.143 4.075-43.637a897 897 0 0 1 10.951-35.759 2729 2729 0 0 0 6.519-18.952 219 219 0 0 0 5.663-19.665l3.741-5.085a2131 2131 0 0 0 4.701-12.484 579 579 0 0 1 3.885-10.142 204 204 0 0 0 2.243-6.33q1.019-3.037 1.833-5.379a49 49 0 0 0-4.64 1.101c-1.405.413-7.442 2.581-8.847 2.994a44 44 0 0 1-4.219 1.02q-2.955.562-4.227.366a27.3 27.3 0 0 1-10.102 4.107l-4.221.803q-1.266.24-2.324.223a9.4 9.4 0 0 0-1.903.143q-4.222.802-6.736 2.592l-13.93 2.648c-.563.107-3.653 1.131-4.216 1.238q-2.955.563-6.34.549-3.386-.013-7.214-1.471-5.158-6.018-6.853-6.133l-3.868-4.513a25.5 25.5 0 0 0-1.333-4.777 71 71 0 0 1-1.761-5.132q-1.748-4.043-3.291-8.778-1.544-4.736-1.637-11.717.375-3.57 1.619-5.556a88 88 0 0 0 2.07-3.455l1.179-6.785 5.494-.607 11.819-2.246a378 378 0 0 0 27.423-6.306q13.916-3.738 28.673-7.855 8.43-2.477 17.073-4.994a2823 2823 0 0 1 17.917-5.155 221 221 0 0 1 3.278-8.059l4.192-2.983q7.592-1.881 10.79-.083 3.198 1.797 5.338 3.578a1015 1015 0 0 0 18.758-5.534 345 345 0 0 0 19.169-6.486q14.323-4.91 28.863-9.422t28.048-7.081q5.91-1.123 11.403-1.73 5.493-.606 10.148-.617l4.262 2.252q1.302 2.377 3.652 4.117a117 117 0 0 0 4.912 3.44q5.13 3.836 10.282 9.417 5.153 5.582 4.054 18.474-3.307 5.877-4.984 7.071l-3.729 5.957-4.227.366q-2.534.481-4.635 1.537a60 60 0 0 0-4.201 2.329 43 43 0 0 1-3.357 2.169 29 29 0 0 1-3.784 1.813c-2.533.481-9.293 1.329-10.981 1.65"/><path id="path35" d="M2811.43 554.656q-2.92 3.18-4.982 7.289a449 449 0 0 0-4.119 8.437 113 113 0 0 1-4.522 10.044q-2.475 4.844-6.227 9.057-2.024 6.945-4.085 11.054-2.061 4.11-6.641 9.791-3.99 18.254-19.335 41.726-.37 4.007-2.22 8.076a146 146 0 0 1-3.915 7.961 62 62 0 0 0-1.651 3.157 67 67 0 0 0-1.234 2.64l-.786 4.523q-2.064 3.891-4.562 6.99l-4.58 5.682q-.827 1.469-2.908 4.052l-6.297 3.821q-30.873 1.494-38.022-26.889l.364-4.443a50 50 0 0 0 1.417-4.861 111 111 0 0 1 1.411-5.298 160 160 0 0 1 3.847-12.978q2.24-6.55 6.82-12.23.804-3.214 3.669-10.539 2.865-7.323 9.861-22.212a2828 2828 0 0 0 9.066-18.343q3.296-6.75 5.36-10.641a47.7 47.7 0 0 0-10.299-10.726q-5.632-9.863-9.776-19.136t-6.358-16.723q-.498-5.592-1.394-9.358a362 362 0 0 1-1.799-7.968 104 104 0 0 1-2.238-9.197q-.909-4.638-.978-9.873-2.15-2.653-2.614-5.627l.786-4.523q1.226-3.294.315-8.151a133 133 0 0 0-2.247-9.851q-.902-4.203-2.027-9.237t-.772-10.35 2.613-10.338 7.702-9.555l7.17-1.8q3.828 1.46 7.442 2.74 3.615 1.282 7.021 2.821 4.672 1.3 8.922 2.678 4.251 1.379 8.94 3.987l3.036 5.546 5.551 3.756.064 4.799q.445 1.664.486 4.718.075 5.671 1.782 6.66l1.758 4.914q.08 6.108 1.42 11.32a310 310 0 0 0 2.669 9.771 447 447 0 0 1 2.666 9.553q1.336 4.995.573 11.263 2.515-1.79 4.18-3.856.833-1.033 1.671-1.63t1.672-1.63l24.441-39.635-.903-4.202 8.749-10.41a347 347 0 0 1 6.456-7.788q3.125-3.656 5.189-7.547l4.597-4.373q13.218-24.381 38.054-34.35l5.898-1.995 1.764 5.35q1.752 4.479 7.081 7.402a101 101 0 0 0 11.285 5.29l3.834 1.896q2.168 3.961 2.197 6.143.03 2.18-.37 4.006l1.747 4.042q-3.238 11.113-8.029 16.834a217 217 0 0 1-9.381 10.531 985 985 0 0 1-6.881 7.649q-3.129 3.438-4.759 8.121l-2.908 4.052q-8.796 6.92-11.212 16.127l-1.197 5.476-5.065.963q-.423.08-1.88 1.888t-4.33 8.477q-2.897 4.924-4.146 6.474l-2.082 2.582a26 26 0 0 1-1.012 3.473 212 212 0 0 0-1.428 3.989q-5.412 6.714-6.64 9.791c-.82 2.051-4.991 11.883-5.947 14.251q-1.434 3.553-4.765 7.685z"/></defs><g id="layer2" style="display:inline;filter:url(#filter47)" transform="matrix(.4 0 0 .4 -52.17 -9.15)"><use xlink:href="#path29" style="clip-rule:evenodd;fill:#f0f;fill-rule:nonzero;stroke-linejoin:round;stroke-miterlimit:2"/><use xlink:href="#path30" style="clip-rule:evenodd;fill:#f0f;fill-rule:nonzero;stroke-linejoin:round;stroke-miterlimit:2"/><use xlink:href="#path31" style="clip-rule:evenodd;fill:#f0f;fill-rule:nonzero;stroke-linejoin:round;stroke-miterlimit:2"/><use xlink:href="#path32" style="clip-rule:evenodd;fill:#f0f;fill-rule:nonzero;stroke-linejoin:round;stroke-miterlimit:2"/><use xlink:href="#path33" style="clip-rule:evenodd;fill:#f0f;fill-rule:nonzero;stroke-linejoin:round;stroke-miterlimit:2"/><use xlink:href="#path34" style="clip-rule:evenodd;fill:#f0f;fill-rule:nonzero;stroke-linejoin:round;stroke-miterlimit:2"/><use xlink:href="#path35" style="clip-rule:evenodd;fill:#f0f;fill-rule:nonzero;stroke-linejoin:round;stroke-miterlimit:2"/><g id="g28" style="clip-rule:evenodd;fill-rule:evenodd;stroke-linejoin:round;stroke-miterlimit:2;filter:url(#filter19)"><use xlink:href="#path29" id="path22" style="fill:#f0f;fill-rule:nonzero;filter:url(#filter56)"/><use xlink:href="#path30" id="path23" style="fill:#f0f;fill-rule:nonzero;filter:url(#filter58)"/><use xlink:href="#path31" id="path24" style="fill:#f0f;fill-rule:nonzero;filter:url(#filter62)"/><use xlink:href="#path32" id="path25" style="fill:#f0f;fill-rule:nonzero;filter:url(#filter64)"/><use xlink:href="#path33" id="path26" style="fill:#f0f;fill-rule:nonzero;filter:url(#filter66)"/><use xlink:href="#path34" id="path27" style="fill:#f0f;fill-rule:nonzero;filter:url(#filter71)"/><use xlink:href="#path35" id="path28" style="fill:#f0f;fill-rule:nonzero;filter:url(#filter74)"/></g></g></svg>