<svg xmlns="http://www.w3.org/2000/svg" xmlns:xlink="http://www.w3.org/1999/xlink" xml:space="preserve" id="svg35" width="1138.116" height="400.476" style="clip-rule:evenodd;fill-rule:evenodd;stroke-linejoin:round;stroke-miterlimit:2" version="1.1" viewBox="0 0 1138.116 400.476"><defs id="defs35"><linearGradient id="linearGradient51"><stop id="stop51" offset="0" style="stop-color:#000;stop-opacity:1"/><stop id="stop53" offset=".248" style="stop-color:#000;stop-opacity:1"/><stop id="stop54" offset=".528" style="stop-color:#0ff;stop-opacity:1"/><stop id="stop55" offset=".53" style="stop-color:#f0f;stop-opacity:1"/><stop id="stop56" offset=".75" style="stop-color:#000;stop-opacity:1"/><stop id="stop52" offset="1" style="stop-color:#000;stop-opacity:1"/></linearGradient><linearGradient xlink:href="#linearGradient51" id="linearGradient52" x1="1366.798" x2="1366.798" y1="630.444" y2="70.628" gradientUnits="userSpaceOnUse"/><linearGradient xlink:href="#linearGradient51" id="linearGradient1" x1="1366.798" x2="1366.798" y1="630.444" y2="70.628" gradientUnits="userSpaceOnUse"/><linearGradient xlink:href="#linearGradient51" id="linearGradient2" x1="1366.798" x2="1366.798" y1="630.444" y2="70.628" gradientUnits="userSpaceOnUse"/><linearGradient xlink:href="#linearGradient51" id="linearGradient3" x1="1366.798" x2="1366.798" y1="630.444" y2="70.628" gradientUnits="userSpaceOnUse"/><linearGradient xlink:href="#linearGradient51" id="linearGradient4" x1="1366.798" x2="1366.798" y1="630.444" y2="70.628" gradientUnits="userSpaceOnUse"/><linearGradient xlink:href="#linearGradient51" id="linearGradient5" x1="1366.798" x2="1366.798" y1="630.444" y2="70.628" gradientUnits="userSpaceOnUse"/><linearGradient xlink:href="#linearGradient51" id="linearGradient6" x1="1366.798" x2="1366.798" y1="630.444" y2="70.628" gradientUnits="userSpaceOnUse"/><linearGradient xlink:href="#linearGradient51" id="linearGradient7" x1="1366.798" x2="1366.798" y1="630.444" y2="70.628" gradientUnits="userSpaceOnUse"/><linearGradient xlink:href="#linearGradient51" id="linearGradient8" x1="1366.798" x2="1366.798" y1="630.444" y2="70.628" gradientUnits="userSpaceOnUse"/><linearGradient xlink:href="#linearGradient51" id="linearGradient9" x1="1366.798" x2="1366.798" y1="630.444" y2="70.628" gradientUnits="userSpaceOnUse"/><linearGradient xlink:href="#linearGradient51" id="linearGradient10" x1="1366.798" x2="1366.798" y1="630.444" y2="70.628" gradientUnits="userSpaceOnUse"/><linearGradient xlink:href="#linearGradient51" id="linearGradient11" x1="1366.798" x2="1366.798" y1="630.444" y2="70.628" gradientUnits="userSpaceOnUse"/><linearGradient xlink:href="#linearGradient51" id="linearGradient12" x1="1366.798" x2="1366.798" y1="630.444" y2="70.628" gradientUnits="userSpaceOnUse"/><linearGradient xlink:href="#linearGradient51" id="linearGradient13" x1="1366.798" x2="1366.798" y1="630.444" y2="70.628" gradientUnits="userSpaceOnUse"/><linearGradient xlink:href="#linearGradient51" id="linearGradient14" x1="1366.798" x2="1366.798" y1="630.444" y2="70.628" gradientUnits="userSpaceOnUse"/><linearGradient xlink:href="#linearGradient51" id="linearGradient15" x1="1366.798" x2="1366.798" y1="630.444" y2="70.628" gradientUnits="userSpaceOnUse"/><linearGradient xlink:href="#linearGradient51" id="linearGradient16" x1="1366.798" x2="1366.798" y1="630.444" y2="70.628" gradientUnits="userSpaceOnUse"/><linearGradient xlink:href="#linearGradient51" id="linearGradient17" x1="1366.798" x2="1366.798" y1="630.444" y2="70.628" gradientUnits="userSpaceOnUse"/><linearGradient xlink:href="#linearGradient51" id="linearGradient18" x1="1366.798" x2="1366.798" y1="630.444" y2="70.628" gradientUnits="userSpaceOnUse"/><linearGradient xlink:href="#linearGradient51" id="linearGradient19" x1="1366.798" x2="1366.798" y1="630.444" y2="70.628" gradientUnits="userSpaceOnUse"/><linearGradient xlink:href="#linearGradient51" id="linearGradient20" x1="1366.798" x2="1366.798" y1="630.444" y2="70.628" gradientUnits="userSpaceOnUse"/><linearGradient xlink:href="#linearGradient51" id="linearGradient21" x1="1366.798" x2="1366.798" y1="630.444" y2="70.628" gradientUnits="userSpaceOnUse"/><path id="path1" d="M304.343 501.133 179.425 99.749h100.346l90.235 291.561L616.488 99.749h99.788L376.258 501.133Z"/><path id="path2" d="m636.6 501.133 86.638-323.337h85.294l-86.638 323.337zm92.015-343.406 23.004-85.852h85.294l-23.004 85.852z"/><path id="path3" d="m741.405 501.133 86.638-323.337h246.963q22.16 0 37.639 11.149 15.478 11.15 21.448 29.442 5.969 18.292.088 40.243l-64.979 242.503h-85.294l63.784-238.043H890.483L826.7 501.133Z"/><path id="path4" d="M1206.34 501.133q-22.578 0-37.848-11.15t-21.518-29.442q-6.249-18.291-.367-40.243l90.671-338.388h85.295l-25.693 95.886h119.858l-22.855 85.294h-119.858l-40.929 152.749h119.858l-22.854 85.294z"/><path id="path5" d="M1429.89 501.133q-22.16 0-37.639-11.15-15.478-11.15-21.448-29.442-5.969-18.291-.088-40.243l33.162-123.76h242.502l8.963-33.448h-242.503l22.855-85.294h246.962q22.525 0 37.78 11.08 15.254 11.08 21.237 29.546 5.984 18.467.158 40.208l-64.978 242.503zm27.314-85.294h157.209l11.95-44.599h-157.209z"/><path id="path6" d="m1742.99 628.795 23.003-85.852h191.773l11.203-41.81H1807.3q-22.194 0-37.727-11.08t-21.681-29.547q-6.15-18.465-.324-40.208l43.319-161.668q5.881-21.95 21.933-40.243 16.05-18.292 37.505-29.442 21.453-11.15 43.613-11.149h166.129q22.577 0 37.847 11.149 15.27 11.15 21.24 29.442 5.968 18.292.087 40.243l-77.526 289.331q-6.035 22.526-21.684 40.748t-37.08 29.154-43.729 10.932zm91.067-212.956h157.766l40.929-152.749h-157.766z"/><path id="path7" d="M2180.81 501.133q-21.95 0-37.255-11.15t-21.553-29.442q-6.248-18.291-.366-40.243l43.318-161.668q5.882-21.95 21.933-40.243 16.051-18.292 37.331-29.442 21.279-11.15 43.23-11.149h166.128q22.527 0 37.78 11.08t21.237 29.546q5.984 18.467.158 40.208l-33.161 123.76h-242.503l-8.962 33.449h242.502l-22.854 85.294zm56.293-193.445h157.209l11.95-44.598h-157.208z"/><filter id="filter60" width="1.042" height="1.176" x="-.021" y="-.088" style="color-interpolation-filters:sRGB"><feFlood id="feFlood59" flood-color="#0FF" flood-opacity="1" result="flood"/><feGaussianBlur id="feGaussianBlur59" in="SourceGraphic" result="blur" stdDeviation="20"/><feOffset id="feOffset59" dx="0" dy="0" in="blur" result="offset"/><feComposite id="feComposite59" in="flood" in2="offset" operator="in" result="comp1"/><feComposite id="feComposite60" in="SourceGraphic" in2="comp1" operator="over" result="comp2"/></filter></defs><g id="layer1" style="fill:url(#linearGradient52);stroke:#000;stroke-width:2;stroke-linecap:round;stroke-linejoin:round;stroke-dasharray:none;stroke-opacity:1;filter:url(#filter60)" transform="matrix(.4 0 0 .4 -52.17 -9.15)"><use xlink:href="#path1" style="clip-rule:evenodd;fill:url(#linearGradient1);fill-rule:nonzero;stroke:#000;stroke-width:2;stroke-linecap:round;stroke-linejoin:round;stroke-miterlimit:2;stroke-dasharray:none;stroke-opacity:1"/><use xlink:href="#path2" style="clip-rule:evenodd;fill:url(#linearGradient2);fill-rule:nonzero;stroke:#000;stroke-width:2;stroke-linecap:round;stroke-linejoin:round;stroke-miterlimit:2;stroke-dasharray:none;stroke-opacity:1"/><use xlink:href="#path3" style="clip-rule:evenodd;fill:url(#linearGradient3);fill-rule:nonzero;stroke:#000;stroke-width:2;stroke-linecap:round;stroke-linejoin:round;stroke-miterlimit:2;stroke-dasharray:none;stroke-opacity:1"/><use xlink:href="#path4" style="clip-rule:evenodd;fill:url(#linearGradient4);fill-rule:nonzero;stroke:#000;stroke-width:2;stroke-linecap:round;stroke-linejoin:round;stroke-miterlimit:2;stroke-dasharray:none;stroke-opacity:1"/><use xlink:href="#path5" style="clip-rule:evenodd;fill:url(#linearGradient5);fill-rule:nonzero;stroke:#000;stroke-width:2;stroke-linecap:round;stroke-linejoin:round;stroke-miterlimit:2;stroke-dasharray:none;stroke-opacity:1"/><use xlink:href="#path6" style="clip-rule:evenodd;fill:url(#linearGradient6);fill-rule:nonzero;stroke:#000;stroke-width:2;stroke-linecap:round;stroke-linejoin:round;stroke-miterlimit:2;stroke-dasharray:none;stroke-opacity:1"/><use xlink:href="#path7" style="clip-rule:evenodd;fill:url(#linearGradient7);fill-rule:nonzero;stroke:#000;stroke-width:2;stroke-linecap:round;stroke-linejoin:round;stroke-miterlimit:2;stroke-dasharray:none;stroke-opacity:1"/><use xlink:href="#path1" id="path8" style="clip-rule:evenodd;fill:url(#linearGradient8);fill-rule:nonzero;stroke:#000;stroke-width:2;stroke-linecap:round;stroke-linejoin:round;stroke-miterlimit:2;stroke-dasharray:none;stroke-opacity:1"/><use xlink:href="#path2" id="path9" style="clip-rule:evenodd;fill:url(#linearGradient9);fill-rule:nonzero;stroke:#000;stroke-width:2;stroke-linecap:round;stroke-linejoin:round;stroke-miterlimit:2;stroke-dasharray:none;stroke-opacity:1"/><use xlink:href="#path3" id="path10" style="clip-rule:evenodd;fill:url(#linearGradient10);fill-rule:nonzero;stroke:#000;stroke-width:2;stroke-linecap:round;stroke-linejoin:round;stroke-miterlimit:2;stroke-dasharray:none;stroke-opacity:1"/><use xlink:href="#path4" id="path11" style="clip-rule:evenodd;fill:url(#linearGradient11);fill-rule:nonzero;stroke:#000;stroke-width:2;stroke-linecap:round;stroke-linejoin:round;stroke-miterlimit:2;stroke-dasharray:none;stroke-opacity:1"/><use xlink:href="#path5" id="path12" style="clip-rule:evenodd;fill:url(#linearGradient12);fill-rule:nonzero;stroke:#000;stroke-width:2;stroke-linecap:round;stroke-linejoin:round;stroke-miterlimit:2;stroke-dasharray:none;stroke-opacity:1"/><use xlink:href="#path6" id="path13" style="clip-rule:evenodd;fill:url(#linearGradient13);fill-rule:nonzero;stroke:#000;stroke-width:2;stroke-linecap:round;stroke-linejoin:round;stroke-miterlimit:2;stroke-dasharray:none;stroke-opacity:1"/><use xlink:href="#path7" id="path14" style="clip-rule:evenodd;fill:url(#linearGradient14);fill-rule:nonzero;stroke:#000;stroke-width:2;stroke-linecap:round;stroke-linejoin:round;stroke-miterlimit:2;stroke-dasharray:none;stroke-opacity:1"/><use xlink:href="#path1" id="path15" style="clip-rule:evenodd;fill:url(#linearGradient15);fill-rule:nonzero;stroke:#000;stroke-width:2;stroke-linecap:round;stroke-linejoin:round;stroke-miterlimit:2;stroke-dasharray:none;stroke-opacity:1"/><use xlink:href="#path2" id="path16" style="clip-rule:evenodd;fill:url(#linearGradient16);fill-rule:nonzero;stroke:#000;stroke-width:2;stroke-linecap:round;stroke-linejoin:round;stroke-miterlimit:2;stroke-dasharray:none;stroke-opacity:1"/><use xlink:href="#path3" id="path17" style="clip-rule:evenodd;fill:url(#linearGradient17);fill-rule:nonzero;stroke:#000;stroke-width:2;stroke-linecap:round;stroke-linejoin:round;stroke-miterlimit:2;stroke-dasharray:none;stroke-opacity:1"/><use xlink:href="#path4" id="path18" style="clip-rule:evenodd;fill:url(#linearGradient18);fill-rule:nonzero;stroke:#000;stroke-width:2;stroke-linecap:round;stroke-linejoin:round;stroke-miterlimit:2;stroke-dasharray:none;stroke-opacity:1"/><use xlink:href="#path5" id="path19" style="clip-rule:evenodd;fill:url(#linearGradient19);fill-rule:nonzero;stroke:#000;stroke-width:2;stroke-linecap:round;stroke-linejoin:round;stroke-miterlimit:2;stroke-dasharray:none;stroke-opacity:1"/><use xlink:href="#path6" id="path20" style="clip-rule:evenodd;fill:url(#linearGradient20);fill-rule:nonzero;stroke:#000;stroke-width:2;stroke-linecap:round;stroke-linejoin:round;stroke-miterlimit:2;stroke-dasharray:none;stroke-opacity:1"/><use xlink:href="#path7" id="path21" style="clip-rule:evenodd;fill:url(#linearGradient21);fill-rule:nonzero;stroke:#000;stroke-width:2;stroke-linecap:round;stroke-linejoin:round;stroke-miterlimit:2;stroke-dasharray:none;stroke-opacity:1"/></g></svg>